<svg width="440" height="835" viewBox="0 0 440 835" fill="none" xmlns="http://www.w3.org/2000/svg">
<rect width="440" height="835" fill="white"/>
<path d="M248.617 10C259.874 10 269 19.126 269 30.3828C269 41.6393 278.125 50.7644 289.382 50.7646H404C418.359 50.7646 430 62.4052 430 76.7646V809C430 823.359 418.359 835 404 835H36C21.6406 835 10 823.359 10 809V458C10 443.641 21.6406 432 36 432H301C315.359 432 327 420.359 327 406V333C327 323.059 318.941 315 309 315C300.163 315 293 307.837 293 299V223C293 208.641 281.359 197 267 197H258C246.402 197 237 187.598 237 176C237 166.059 228.941 158 219 158H36C21.6406 158 10 146.359 10 132V76.7646C10 62.4053 21.6406 50.7646 36 50.7646H122.617C133.874 50.7646 143 41.6394 143 30.3828C143 19.1261 152.125 10.0003 163.382 10H248.617Z" fill="url(#paint0_linear_33_2208)"/>
<mask id="mask0_33_2208" style="mask-type:alpha" maskUnits="userSpaceOnUse" x="10" y="10" width="420" height="825">
<path d="M248.617 10C259.874 10 269 19.126 269 30.3828C269 41.6393 278.125 50.7644 289.382 50.7646H404C418.359 50.7646 430 62.4052 430 76.7646V809C430 823.359 418.359 835 404 835H36C21.6406 835 10 823.359 10 809V458C10 443.641 21.6406 432 36 432H301C315.359 432 327 420.359 327 406V333C327 323.059 318.941 315 309 315C300.163 315 293 307.837 293 299V223C293 208.641 281.359 197 267 197H258C246.402 197 237 187.598 237 176C237 166.059 228.941 158 219 158H36C21.6406 158 10 146.359 10 132V76.7646C10 62.4053 21.6406 50.7646 36 50.7646H122.617C133.874 50.7646 143 41.6394 143 30.3828C143 19.1261 152.125 10.0003 163.382 10H248.617Z" fill="url(#paint1_linear_33_2208)"/>
</mask>
<g mask="url(#mask0_33_2208)">
<g filter="url(#filter0_f_33_2208)">
<ellipse cx="140.434" cy="645.097" rx="162.067" ry="246.413" transform="rotate(-85.3691 140.434 645.097)" fill="url(#paint2_linear_33_2208)"/>
</g>
<mask id="mask1_33_2208" style="mask-type:alpha" maskUnits="userSpaceOnUse" x="-336" y="326" width="854" height="494">
<path d="M517.503 802.229L417.173 371.322C415.802 365.437 410.789 361.11 404.767 360.613L-13.1399 326.174C-14.0623 326.098 -14.9901 326.115 -15.9093 326.223L-154.625 342.56C-158.373 343.001 -161.781 344.947 -164.067 347.951L-332.584 569.382C-335.261 572.901 -336.107 577.482 -334.861 581.725L-281.181 764.559C-279.559 770.085 -274.698 774.04 -268.957 774.505L164.606 809.624L503.558 819.288C512.675 819.548 519.571 811.112 517.503 802.229Z" fill="url(#paint3_linear_33_2208)"/>
</mask>
<g mask="url(#mask1_33_2208)">
</g>
<mask id="mask2_33_2208" style="mask-type:alpha" maskUnits="userSpaceOnUse" x="-322" y="296" width="807" height="546">
<path d="M-321.259 766.598C-306.359 586.284 -288.39 369.008 -284.069 310.21C-283.474 302.124 -276.197 295.798 -268.116 296.453L471.446 356.358C479.104 356.978 484.808 363.688 484.188 371.345L447.132 828.829C446.511 836.486 439.801 842.191 432.144 841.57L-308.516 781.577C-316.182 780.956 -321.892 774.263 -321.259 766.598Z" fill="url(#paint4_linear_33_2208)"/>
</mask>
<g mask="url(#mask2_33_2208)">
<path d="M34.4591 387.719C121.126 394.739 187.94 475.368 182.514 542.362C177.087 609.356 134.883 694.432 41.8966 686.9C-4.18246 683.167 -63.7586 723.419 -115.802 685.623C-168.781 647.148 -148.708 556.803 -145.97 523.008C-140.544 456.014 -52.2077 380.699 34.4591 387.719Z" fill="url(#paint5_linear_33_2208)"/>
<g filter="url(#filter1_f_33_2208)">
<path d="M32.955 393.373C125.903 400.902 187.221 470.522 182.556 528.108C177.892 585.694 136.702 658.424 43.7539 650.896C-2.30638 647.165 -61.4716 682.627 -113.872 649.518C-167.214 615.814 -148.186 538.3 -145.833 509.251C-141.168 451.665 -59.9931 385.844 32.955 393.373Z" fill="url(#paint6_linear_33_2208)"/>
</g>
<g filter="url(#filter2_f_33_2208)">
<path d="M35.7712 393.602C139.948 402.04 208.09 487.27 202.339 558.266C196.589 629.262 149.737 719.248 45.56 710.81C-6.06466 706.628 -73.2761 757.471 -131.747 717.148C-191.268 676.101 -168.741 574.416 -165.84 538.601C-160.089 467.605 -68.4056 385.163 35.7712 393.602Z" fill="url(#paint7_linear_33_2208)"/>
</g>
<g filter="url(#filter3_f_33_2208)">
<path d="M47.1135 402.984C174.324 430.817 273.405 531.529 266.674 614.621C259.944 697.713 187.386 782.252 62.4467 772.131C0.533226 767.116 -86.3929 851.231 -156.6 803.894C-228.068 755.708 -201.862 643.76 -198.466 601.844C-191.736 518.752 -100.252 370.741 47.1135 402.984Z" fill="url(#paint8_linear_33_2208)"/>
</g>
<g filter="url(#filter4_f_33_2208)">
<path d="M87.7247 440.122C222.252 451.019 329.393 567.455 322.813 648.695C316.232 729.934 238.827 812.065 104.3 801.168C37.6353 795.768 -45.8193 820.216 -121.746 773.345C-199.036 725.632 -171.728 616.316 -168.408 575.335C-161.828 494.095 -46.8022 429.225 87.7247 440.122Z" fill="url(#paint9_linear_33_2208)"/>
</g>
<g filter="url(#filter5_f_33_2208)">
<path d="M137.457 476.79C276.478 488.051 387.291 607.242 380.56 690.334C373.83 773.426 293.914 857.369 154.893 846.108C86.001 840.528 -0.214975 865.463 -78.7125 817.456C-158.62 768.585 -130.495 656.793 -127.1 614.877C-120.369 531.785 -1.56439 465.529 137.457 476.79Z" fill="url(#paint10_linear_33_2208)"/>
</g>
<g filter="url(#filter6_f_33_2208)">
<path d="M33.9643 455.107C155.608 464.96 251.46 582.94 244.73 666.032C237.999 749.123 167.164 833.802 45.52 823.949C-14.7603 819.066 -89.7421 835.24 -158.008 788.061C-227.501 740.035 -201.744 628.05 -198.349 586.134C-191.619 503.043 -87.6792 445.254 33.9643 455.107Z" fill="url(#paint11_linear_33_2208)"/>
</g>
</g>
<g filter="url(#filter7_f_33_2208)">
<path d="M-76.073 725.634C-84.1191 699.655 -65.3421 641.556 -40.7926 580.3C-40.2712 578.999 -39.9465 577.632 -39.8333 576.235L-33.3356 496.016C-27.5352 424.407 84.8027 453.042 176.167 502.208C267.531 551.374 265.296 549.172 257.26 618.579C249.224 687.986 298.206 656.924 352.722 691.654C407.238 726.383 292.429 662.754 223.943 711.097C155.457 759.441 197.05 773.353 102.905 721.267C8.75973 669.182 10.8665 692.933 5.80909 718.119C0.751691 743.306 29.5286 745.641 24.6337 768.821C19.7387 792.002 8.01603 780.274 -30.5227 764.354C-69.0615 748.433 -67.941 751.89 -76.073 725.634Z" fill="#120ECF"/>
</g>
<mask id="mask3_33_2208" style="mask-type:alpha" maskUnits="userSpaceOnUse" x="-225" y="294" width="501" height="735">
<path d="M198.53 295.3L-214.822 434.788C-220.79 436.802 -224.66 442.575 -224.256 448.861L-202.33 789.442C-202.26 790.539 -202.059 791.623 -201.733 792.673L-167.389 903.287C-166.237 906.996 -163.586 910.055 -160.079 911.724L82.1034 1026.92C85.579 1028.57 89.5843 1028.71 93.1663 1027.3L267.081 958.949C272.711 956.737 276.266 951.139 275.874 945.102L252.518 585.383L216.775 306.711C215.658 298.001 206.85 292.493 198.53 295.3Z" fill="url(#paint12_linear_33_2208)"/>
</mask>
<g mask="url(#mask3_33_2208)">
<mask id="mask4_33_2208" style="mask-type:alpha" maskUnits="userSpaceOnUse" x="-217" y="329" width="487" height="688">
<path d="M256.038 989.862C78.5074 1001.15 -108.99 1013.01 -162.659 1016.85C-170.699 1017.43 -177.845 1011.19 -178.333 1003.15L-216.68 371.238C-217.144 363.593 -211.34 357.011 -203.696 356.515L215.843 329.275C223.532 328.776 230.162 334.622 230.629 342.313L269.031 975.138C269.495 982.79 263.689 989.375 256.038 989.862Z" fill="url(#paint13_linear_33_2208)"/>
</mask>
<g mask="url(#mask4_33_2208)">
<path d="M-147.793 748.216C-152.49 675.875 -81.6256 610.195 -14.5534 605.84C52.5187 601.485 142.44 625.054 147.48 702.67C149.977 741.132 197.845 784.922 167.412 832.787C136.431 881.512 44.2665 876.874 10.4319 879.071C-56.6403 883.426 -143.096 820.557 -147.793 748.216Z" fill="#02D1FE"/>
<g filter="url(#filter8_f_33_2208)">
<path d="M-141.993 748.709C-147.03 671.125 -92.5526 611.829 -40.48 608.448C11.5926 605.067 81.829 629.902 86.8664 707.486C89.3627 745.933 128.557 790.266 105.592 837.628C82.214 885.84 10.5069 879.878 -15.7612 881.584C-67.8337 884.965 -136.956 826.293 -141.993 748.709Z" fill="#02D1FE"/>
</g>
<g filter="url(#filter9_f_33_2208)">
<path d="M-142.145 746.361C-147.791 659.404 -80.1115 592.515 -15.813 588.34C48.4856 584.165 134.996 611.495 140.642 698.451C143.44 741.543 197.481 790.575 168.786 843.85C139.575 898.082 45.6716 892.279 13.2361 894.385C-51.0624 898.56 -136.499 833.317 -142.145 746.361Z" fill="#02D1FE"/>
</g>
<g filter="url(#filter10_f_33_2208)">
<path d="M-121.797 734.927C-111.333 626.435 -24.9171 531.52 58.2717 526.119C141.461 520.718 234.93 569.37 241.701 673.657C245.057 725.336 340.037 785.884 302.597 849.973C264.485 915.214 112.146 918.887 70.1814 921.612C-13.0075 927.013 -133.92 860.61 -121.797 734.927Z" fill="#02D1FE"/>
</g>
<g filter="url(#filter11_f_33_2208)">
<path d="M-102.539 705.437C-109.83 593.147 -9.44639 481.498 71.8879 476.218C153.222 470.937 244.958 523.9 252.249 636.19C255.862 691.836 291.289 757.384 255.079 826.125C218.218 896.101 51.7026 939.868 10.6734 942.532C-70.6609 947.813 -95.2484 817.727 -102.539 705.437Z" fill="#02D1FE"/>
</g>
<g filter="url(#filter12_f_33_2208)">
<path d="M-73.4318 651.605C-80.9661 535.564 22.1723 428.547 105.361 423.146C188.55 417.745 282.418 472.538 289.953 588.58C293.686 646.084 186.718 739.252 149.728 810.261C112.073 882.547 -2.41314 874.099 -44.3778 876.824C-127.567 882.225 -65.8975 767.647 -73.4318 651.605Z" fill="#02D1FE"/>
</g>
<g filter="url(#filter13_f_33_2208)">
<path d="M-80.9943 739.744C-87.5868 638.208 16.3624 543.678 99.5513 538.277C182.74 532.876 276.116 580.09 282.709 681.626C285.976 731.943 312.071 791.599 274.526 854.069C236.307 917.66 121.949 911.19 79.9845 913.915C-3.20438 919.316 -74.4017 841.28 -80.9943 739.744Z" fill="#02D1FE"/>
</g>
</g>
</g>
<mask id="mask5_33_2208" style="mask-type:alpha" maskUnits="userSpaceOnUse" x="-330" y="209" width="971" height="841">
<path d="M467.518 219.82C521.277 401.818 618.077 728.922 640.159 801.333C642.535 809.123 637.934 817.597 630.126 819.917L-138.807 1048.48C-146.171 1050.67 -153.915 1046.47 -156.104 1039.11L-329.207 456.744C-331.396 449.38 -327.2 441.636 -319.836 439.447L450.249 210.545C457.622 208.354 465.339 212.443 467.518 219.82Z" fill="url(#paint14_linear_33_2208)"/>
</mask>
<g mask="url(#mask5_33_2208)">
<path d="M301.717 887.264C213.042 893.716 115.122 865.207 96.141 801.349C77.1598 737.492 88.6285 642.877 185.047 614.218C232.827 600.016 218.623 557.779 284.842 572.705C352.25 587.899 364.999 678.899 374.574 711.112C393.555 774.969 390.391 880.812 301.717 887.264Z" fill="#438EFF"/>
<g filter="url(#filter14_f_33_2208)">
<path d="M290.188 886.611C140.992 881.764 117.615 869.398 101.3 814.508C84.984 759.618 99.9359 676.777 196.315 648.129C244.075 633.932 230.061 596.61 294.929 607.077C360.963 617.733 370.545 698.06 378.775 725.75C395.09 780.639 364.965 892.668 290.188 886.611Z" fill="#438EFF"/>
</g>
<g filter="url(#filter15_f_33_2208)">
<path d="M299.63 881.924C298.737 882.196 297.761 882.383 296.831 882.463C125.583 897.104 31.1634 825.111 11.1036 757.625C-9.01142 689.952 64.6093 625.678 172.631 593.569C226.162 577.657 174.572 534.981 248.187 549.777C323.125 564.838 351.47 672.09 361.617 706.227C381.646 773.609 406.06 849.577 299.63 881.924Z" fill="#438EFF"/>
</g>
<g filter="url(#filter16_f_33_2208)">
<path d="M283.399 878.033C131.849 893.735 -38.243 841.197 -61.7851 761.996C-85.3271 682.794 3.69223 581.996 133.243 543.488C197.442 524.406 153.571 443.498 241.568 460.267C331.146 477.338 345.599 590.607 357.475 630.56C381.017 709.762 434.95 862.331 283.399 878.033Z" fill="#438EFF"/>
</g>
<g filter="url(#filter17_f_33_2208)">
<path d="M169.468 869.582C-62.3293 850.806 -66.4713 845.65 -89.4886 768.214C-112.506 690.778 -59.0059 574.199 80.4868 532.736C149.612 512.189 170.668 520.991 264.256 535.141C359.527 549.545 373.606 681.772 385.217 720.835C408.234 798.271 303.892 880.47 169.468 869.582Z" fill="#438EFF"/>
</g>
<g filter="url(#filter18_f_33_2208)">
<path d="M165.458 844.562C21.3053 887.41 -133.818 819.927 -157.36 740.725C-180.902 661.524 -131.031 553.514 13.1217 510.665C84.5564 489.432 204.73 450.489 301.324 464.703C399.653 479.172 326.082 666.477 337.958 706.43C361.5 785.632 309.611 801.713 165.458 844.562Z" fill="#438EFF"/>
</g>
<g filter="url(#filter19_f_33_2208)">
<path d="M277.624 824.925C151.49 862.417 11.8794 790.323 -11.6626 711.121C-35.2047 631.92 5.25104 526.708 131.385 489.216C193.89 470.637 144.462 462.4 230.448 479.767C317.977 497.446 332.896 610.576 344.772 650.53C368.314 729.731 403.757 787.432 277.624 824.925Z" fill="#438EFF"/>
</g>
</g>
<g opacity="0.6" filter="url(#filter20_f_33_2208)">
<path d="M128.407 529.119C130.807 523.415 136.578 519.612 142.708 520.459C246.347 534.78 354.186 635.914 349.933 688.42C345.553 742.501 414.332 871.764 162.359 744.168C160.741 743.349 158.891 742.793 157.081 742.676C51.1076 735.847 -80.8053 827.349 -36.7201 658.385C-36.5124 657.589 -36.3582 656.656 -36.2639 655.838C-30.4148 605.119 70.2224 667.46 128.407 529.119Z" fill="url(#paint15_linear_33_2208)"/>
</g>
<g filter="url(#filter21_f_33_2208)">
<ellipse cx="121.165" cy="184.225" rx="121.165" ry="184.225" transform="matrix(0.998071 -0.0620851 -0.0620851 -0.998071 255.082 320.016)" fill="#0285FE"/>
</g>
<mask id="mask6_33_2208" style="mask-type:alpha" maskUnits="userSpaceOnUse" x="239" y="-155" width="362" height="640">
<path d="M256.805 -154.315L570.608 -75.0369C576.466 -73.5569 580.699 -68.4639 581.083 -62.4335L600.799 247.527C600.858 248.451 600.824 249.379 600.699 250.296L586.798 351.932C586.286 355.671 584.277 359.042 581.231 361.271L415.991 482.213C412.423 484.825 407.827 485.584 403.608 484.26L271.686 442.833C266.191 441.107 262.328 436.174 261.97 430.425L241.929 108.256L239.489 -140.692C239.399 -149.811 247.963 -156.548 256.805 -154.315Z" fill="url(#paint16_linear_33_2208)"/>
</mask>
<g mask="url(#mask6_33_2208)">
</g>
<mask id="mask7_33_2208" style="mask-type:alpha" maskUnits="userSpaceOnUse" x="221" y="-125" width="399" height="597">
<path d="M278.562 471.32C407.62 463.082 557.823 453.494 605.26 450.825C613.355 450.37 619.742 443.193 619.239 435.101L585.252 -111.266C584.775 -118.934 578.173 -124.763 570.505 -124.286L235.028 -103.418C227.36 -102.941 221.531 -96.3383 222.008 -88.6707L256.063 458.795C256.541 466.472 263.151 472.304 270.826 471.814L278.562 471.32Z" fill="url(#paint17_linear_33_2208)"/>
</mask>
<g mask="url(#mask7_33_2208)">
<path d="M555.482 211.438C551.446 146.556 492.111 95.4859 441.957 98.6057C391.804 101.726 327.62 132.084 331.95 201.696C334.096 236.192 303.175 280.162 330.7 319.593C358.719 359.732 426.532 345.99 451.832 344.417C501.986 341.297 559.518 276.319 555.482 211.438Z" fill="#0285FE"/>
<g filter="url(#filter22_f_33_2208)">
<path d="M551.236 212.483C546.907 142.899 495.723 96.0911 452.613 98.7728C409.502 101.454 354.561 131.227 358.889 200.811C361.034 235.293 333.699 279.023 357.716 318.655C382.164 358.999 440.371 345.859 462.118 344.506C505.228 341.824 555.564 282.066 551.236 212.483Z" fill="#0285FE"/>
</g>
<g filter="url(#filter23_f_33_2208)">
<path d="M551.104 210.375C546.253 132.385 483.496 80.2575 430.347 83.5636C377.197 86.8698 309.278 120.634 314.129 198.623C316.533 237.271 277.589 286.8 306.913 331.071C336.764 376.136 413.088 360.719 439.899 359.051C493.049 355.745 555.956 288.364 551.104 210.375Z" fill="#0285FE"/>
</g>
<g filter="url(#filter24_f_33_2208)">
<path d="M544.249 201.765C525.222 106.287 451.326 30.8163 389.121 34.6858C326.916 38.5553 262.709 91.6103 268.527 185.143C271.411 231.494 207.32 295.295 241.723 348.436C276.743 402.531 360.79 384.507 392.169 382.555C454.374 378.686 566.291 312.371 544.249 201.765Z" fill="#0285FE"/>
</g>
<g filter="url(#filter25_f_33_2208)">
<path d="M517.057 170.889C510.793 70.1788 425.254 -11.5367 364.436 -7.75354C303.618 -3.97034 241.143 52.7418 247.408 153.452C250.513 203.36 231.072 265.4 265.046 322.81C299.631 381.251 381.726 362.366 412.406 360.458C473.224 356.675 523.322 271.6 517.057 170.889Z" fill="#0285FE"/>
</g>
<g filter="url(#filter26_f_33_2208)">
<path d="M490.342 133.202C483.868 29.1271 396.323 -55.3712 334.118 -51.5017C271.913 -47.6322 208.049 10.9311 214.523 115.006C217.731 166.581 197.886 230.678 232.675 290.026C268.088 350.44 352.045 330.979 383.425 329.027C445.63 325.158 496.816 237.278 490.342 133.202Z" fill="#0285FE"/>
</g>
<g filter="url(#filter27_f_33_2208)">
<path d="M505.104 210.866C499.439 119.8 412.59 46.5013 350.385 50.3708C288.18 54.2402 223.893 106.006 229.558 197.072C232.365 242.199 219.227 298.022 253.539 349.71C288.467 402.327 372.535 384.639 403.914 382.687C466.119 378.818 510.769 301.932 505.104 210.866Z" fill="#0285FE"/>
</g>
</g>
<g filter="url(#filter28_f_33_2208)">
<path d="M301.349 289.336C320.586 295.691 364.031 282.585 409.979 265.185C411.289 264.689 412.66 264.39 414.059 264.303L473.584 260.6C527.193 257.265 507.359 172.893 471.885 103.911C436.41 34.9294 438.025 36.6312 386.031 41.6677C334.038 46.7042 357.941 10.5243 332.743 -30.7114C307.545 -71.9471 353.502 14.7616 316.408 65.2789C279.315 115.796 269.497 84.5109 307.114 155.612C344.732 226.713 327.008 224.806 308.11 228.235C289.213 231.663 287.87 210.12 270.474 213.455C253.078 216.789 261.68 225.716 273.042 254.746C284.404 283.776 281.835 282.89 301.349 289.336Z" fill="#FF50ED"/>
</g>
<mask id="mask8_33_2208" style="mask-type:alpha" maskUnits="userSpaceOnUse" x="77" y="23" width="550" height="381">
<path d="M625.414 94.1198L517.725 394.578C515.599 400.508 509.754 404.269 503.477 403.747L252.303 382.855C251.208 382.764 250.127 382.543 249.084 382.198L168.737 355.594C165.049 354.373 162.04 351.666 160.438 348.127L78.9802 168.275C77.3923 164.769 77.328 160.762 78.8025 157.206L130.761 31.935C133.079 26.3471 138.742 22.8978 144.77 23.4026L410.779 45.6757L614.347 75.6648C623.034 76.9445 628.377 85.8539 625.414 94.1198Z" fill="url(#paint18_linear_33_2208)"/>
</mask>
<g mask="url(#mask8_33_2208)">
<mask id="mask9_33_2208" style="mask-type:alpha" maskUnits="userSpaceOnUse" x="82" y="28" width="520" height="372">
<path d="M108.194 40.8841C97.687 168.468 86.7152 302.064 82.795 346.179C82.0817 354.207 88.1936 361.555 96.228 362.194L560.808 399.116C568.443 399.723 575.133 394.043 575.772 386.41L601.412 80.1833C602.055 72.5047 596.334 65.7666 588.653 65.1561L123.159 28.1613C115.517 27.5539 108.824 33.2433 108.194 40.8841Z" fill="url(#paint19_linear_33_2208)"/>
</mask>
<g mask="url(#mask9_33_2208)">
<path d="M283.466 342.631C337.475 347.153 387.561 295.1 391.754 245.025C395.947 194.949 379.586 127.404 321.639 122.552C292.924 120.148 260.86 83.7542 224.656 105.834C187.801 128.31 189.979 197.268 187.864 222.529C183.671 272.604 229.457 338.108 283.466 342.631Z" fill="#0285FE"/>
<g filter="url(#filter29_f_33_2208)">
<path d="M283.178 338.288C341.102 343.138 386.187 303.244 389.442 264.368C392.697 225.491 375.115 172.642 317.192 167.792C288.488 165.389 255.897 135.472 220.173 151.976C183.808 168.777 187.262 222.461 185.62 242.072C182.364 280.949 225.255 333.438 283.178 338.288Z" fill="#0285FE"/>
</g>
<g filter="url(#filter30_f_33_2208)">
<path d="M284.932 338.434C349.852 343.87 400.798 294.215 404.818 246.21C408.837 198.206 389.618 133.158 324.697 127.722C292.525 125.028 256.629 83.947 216.405 104.652C175.458 125.729 178.484 196.002 176.456 220.218C172.437 268.223 220.011 332.998 284.932 338.434Z" fill="#0285FE"/>
</g>
<g filter="url(#filter31_f_33_2208)">
<path d="M293.763 323.384C375.007 317.078 447.163 253.81 452.364 191.702C457.564 129.594 422.503 59.0459 344.644 52.5267C306.06 49.2961 262.129 -22.5477 213.699 4.54248C164.399 32.1193 159.524 145.941 156.901 177.271C151.701 239.379 199.646 330.689 293.763 323.384Z" fill="#0285FE"/>
</g>
<g filter="url(#filter32_f_33_2208)">
<path d="M316.076 309.401C399.91 316.42 484.77 242.945 489.855 182.222C494.939 121.498 456.631 52.1854 372.797 45.1658C331.253 41.6873 282.751 14.2895 230.861 40.3956C178.039 66.9707 142.996 190.829 140.431 221.461C135.346 282.184 232.241 302.381 316.076 309.401Z" fill="#0285FE"/>
</g>
<g filter="url(#filter33_f_33_2208)">
<path d="M356.721 288.396C443.357 295.65 524.793 220.05 529.993 157.942C535.194 95.8346 495.548 24.9024 408.913 17.6484C365.981 14.0536 294.843 92.7095 241.246 119.367C186.687 146.503 191.401 232.199 188.778 263.53C183.577 325.638 270.086 281.142 356.721 288.396Z" fill="#0285FE"/>
</g>
<g filter="url(#filter34_f_33_2208)">
<path d="M290.733 292.816C366.539 299.164 438.652 222.783 443.853 160.676C449.053 98.5677 415.065 28.1093 339.26 21.762C301.694 18.6166 257.466 -1.72337 210.245 25.468C162.176 53.1479 165.415 138.72 162.791 170.051C157.591 232.158 214.927 286.469 290.733 292.816Z" fill="#0285FE"/>
</g>
</g>
</g>
<mask id="mask10_33_2208" style="mask-type:alpha" maskUnits="userSpaceOnUse" x="60" y="-247" width="635" height="730">
<path d="M684.603 -110.858C551.568 -152.876 319.272 -226.373 259.411 -245.769C251.662 -248.279 243.03 -243.839 240.564 -236.076L61.1871 328.517C58.8609 335.839 62.9107 343.66 70.2324 345.986L496.435 481.395C503.757 483.721 511.578 479.671 513.904 472.349L693.644 -93.3892C695.974 -100.72 691.938 -108.541 684.603 -110.858Z" fill="url(#paint20_linear_33_2208)"/>
</mask>
<g mask="url(#mask10_33_2208)">
<path d="M185.825 4.68546C179.762 70.8792 199.704 144.473 247.172 159.554C294.64 174.634 365.524 167.384 388.295 95.7126C399.579 60.1957 430.952 71.4034 420.72 21.6964C410.305 -28.9036 342.462 -39.7048 318.516 -47.3124C271.048 -62.3934 191.887 -61.5083 185.825 4.68546Z" fill="#30DAFF"/>
<g filter="url(#filter35_f_33_2208)">
<path d="M186.151 13.3128C187.689 124.904 196.606 142.551 237.408 155.514C278.21 168.477 340.343 158.459 363.104 86.8164C374.383 51.314 402.086 62.3117 395.168 13.6766C388.126 -35.8323 328.216 -44.1175 307.633 -50.6568C266.831 -63.6199 182.669 -42.6673 186.151 13.3128Z" fill="#30DAFF"/>
</g>
<g filter="url(#filter36_f_33_2208)">
<path d="M189.899 5.97668C189.609 6.86364 189.405 7.83356 189.308 8.76173C176.105 136.341 228.548 207.807 278.667 223.73C328.971 239.712 378.045 185.58 403.556 105.282C416.198 65.491 447.377 104.651 437.347 49.4166C427.137 -6.80969 347.362 -29.4968 321.987 -37.5589C271.971 -53.4492 215.618 -72.7278 189.899 5.97668Z" fill="#30DAFF"/>
</g>
<g filter="url(#filter37_f_33_2208)">
<path d="M192.469 18.5069C178.613 131.571 215.507 259.448 274.381 278.153C333.255 296.858 409.845 231.725 440.44 135.424C455.602 87.7027 515.467 121.628 504.162 55.6156C492.654 -11.5822 408.188 -23.9694 378.489 -33.4051C319.615 -52.1098 206.325 -94.5572 192.469 18.5069Z" fill="#30DAFF"/>
</g>
<g filter="url(#filter38_f_33_2208)">
<path d="M197.193 103.789C207.988 277.319 211.784 280.487 269.345 298.775C326.907 317.062 414.797 278.701 447.741 175.011C464.066 123.627 457.78 107.765 448.511 37.6098C439.076 -33.8056 340.434 -46.1781 311.397 -55.4034C253.835 -73.6912 190.934 3.15519 197.193 103.789Z" fill="#30DAFF"/>
</g>
<g filter="url(#filter39_f_33_2208)">
<path d="M215.84 107.136C181.796 214.29 230.071 331.187 288.945 349.892C347.819 368.597 429.253 332.829 463.297 225.674C480.168 172.574 510.957 83.2889 501.683 10.8866C492.242 -62.8163 351.203 -10.4408 321.504 -19.8764C262.631 -38.5812 249.884 -0.0191001 215.84 107.136Z" fill="#30DAFF"/>
</g>
<g filter="url(#filter40_f_33_2208)">
<path d="M232.086 23.5665C202.298 117.327 254.236 222.693 313.11 241.398C371.984 260.103 451.194 231.333 480.983 137.572C495.745 91.1096 501.211 128.172 489.431 63.6554C477.44 -2.0199 393.084 -14.7533 363.385 -24.189C304.511 -42.8937 261.875 -70.1939 232.086 23.5665Z" fill="#30DAFF"/>
</g>
</g>
<g opacity="0.6" filter="url(#filter41_f_33_2208)">
<path d="M448.716 140.202C454.436 137.841 458.282 132.189 457.439 126.059C446.865 49.1724 373.988 -30.9996 335.12 -28.5818C294.68 -26.0662 199.188 -79.1622 290.515 110.205C291.303 111.838 291.825 113.695 291.898 115.507C295.083 194.624 225.735 291.201 351.849 260.936C352.649 260.744 353.577 260.611 354.395 260.522C391.528 256.496 347.856 181.845 448.716 140.202Z" fill="#02FFF0"/>
</g>
</g>
<path d="M16.9897 247V215H28.7084C30.9793 215 32.8595 215.375 34.3491 216.125C35.8386 216.865 36.9532 217.87 37.6928 219.141C38.4324 220.401 38.8022 221.823 38.8022 223.406C38.8022 224.74 38.5574 225.865 38.0678 226.781C37.5782 227.687 36.922 228.417 36.0991 228.969C35.2866 229.51 34.3907 229.906 33.4116 230.156V230.469C34.4741 230.521 35.5105 230.865 36.5209 231.5C37.5418 232.125 38.3855 233.016 39.0522 234.172C39.7189 235.328 40.0522 236.734 40.0522 238.391C40.0522 240.026 39.6668 241.495 38.8959 242.797C38.1355 244.089 36.9584 245.115 35.3647 245.875C33.7709 246.625 31.7345 247 29.2553 247H16.9897ZM21.8178 242.859H28.7866C31.0991 242.859 32.7553 242.411 33.7553 241.516C34.7553 240.62 35.2553 239.5 35.2553 238.156C35.2553 237.146 35.0001 236.219 34.4897 235.375C33.9793 234.531 33.2501 233.859 32.3022 233.359C31.3647 232.859 30.2501 232.609 28.9584 232.609H21.8178V242.859ZM21.8178 228.844H28.2866C29.3699 228.844 30.3439 228.635 31.2084 228.219C32.0834 227.802 32.7761 227.219 33.2866 226.469C33.8074 225.708 34.0678 224.812 34.0678 223.781C34.0678 222.458 33.6043 221.349 32.6772 220.453C31.7501 219.557 30.3282 219.109 28.4116 219.109H21.8178V228.844ZM52.6331 247.484C50.3831 247.484 48.4196 246.969 46.7425 245.937C45.0654 244.906 43.7633 243.464 42.8362 241.609C41.9092 239.755 41.4456 237.589 41.4456 235.109C41.4456 232.62 41.9092 230.443 42.8362 228.578C43.7633 226.714 45.0654 225.266 46.7425 224.234C48.4196 223.203 50.3831 222.688 52.6331 222.688C54.8831 222.688 56.8467 223.203 58.5237 224.234C60.2008 225.266 61.5029 226.714 62.43 228.578C63.3571 230.443 63.8206 232.62 63.8206 235.109C63.8206 237.589 63.3571 239.755 62.43 241.609C61.5029 243.464 60.2008 244.906 58.5237 245.937C56.8467 246.969 54.8831 247.484 52.6331 247.484ZM52.6487 243.562C54.1071 243.562 55.3154 243.177 56.2737 242.406C57.2321 241.635 57.9404 240.609 58.3987 239.328C58.8675 238.047 59.1019 236.635 59.1019 235.094C59.1019 233.562 58.8675 232.156 58.3987 230.875C57.9404 229.583 57.2321 228.547 56.2737 227.766C55.3154 226.984 54.1071 226.594 52.6487 226.594C51.18 226.594 49.9612 226.984 48.9925 227.766C48.0342 228.547 47.3206 229.583 46.8519 230.875C46.3935 232.156 46.1644 233.562 46.1644 235.094C46.1644 236.635 46.3935 238.047 46.8519 239.328C47.3206 240.609 48.0342 241.635 48.9925 242.406C49.9612 243.177 51.18 243.562 52.6487 243.562ZM66.1555 247V223H85.7336V247H81.1555V227.031H70.7023V247H66.1555ZM87.2091 247L87.1934 242.953H88.0528C88.7195 242.953 89.2768 242.812 89.7247 242.531C90.183 242.24 90.558 241.75 90.8497 241.062C91.1414 240.375 91.3653 239.427 91.5216 238.219C91.6778 237 91.7924 235.469 91.8653 233.625L92.2872 223H109.037V247H104.459V227.031H96.6153L96.2403 235.188C96.1466 237.167 95.9434 238.896 95.6309 240.375C95.3289 241.854 94.8861 243.089 94.3028 244.078C93.7195 245.057 92.9695 245.792 92.0528 246.281C91.1361 246.76 90.0216 247 88.7091 247H87.2091ZM122.497 247.484C120.247 247.484 118.283 246.969 116.606 245.937C114.929 244.906 113.627 243.464 112.7 241.609C111.773 239.755 111.31 237.589 111.31 235.109C111.31 232.62 111.773 230.443 112.7 228.578C113.627 226.714 114.929 225.266 116.606 224.234C118.283 223.203 120.247 222.688 122.497 222.688C124.747 222.688 126.711 223.203 128.388 224.234C130.065 225.266 131.367 226.714 132.294 228.578C133.221 230.443 133.685 232.62 133.685 235.109C133.685 237.589 133.221 239.755 132.294 241.609C131.367 243.464 130.065 244.906 128.388 245.937C126.711 246.969 124.747 247.484 122.497 247.484ZM122.513 243.562C123.971 243.562 125.179 243.177 126.138 242.406C127.096 241.635 127.804 240.609 128.263 239.328C128.731 238.047 128.966 236.635 128.966 235.094C128.966 233.562 128.731 232.156 128.263 230.875C127.804 229.583 127.096 228.547 126.138 227.766C125.179 226.984 123.971 226.594 122.513 226.594C121.044 226.594 119.825 226.984 118.856 227.766C117.898 228.547 117.185 229.583 116.716 230.875C116.257 232.156 116.028 233.562 116.028 235.094C116.028 236.635 116.257 238.047 116.716 239.328C117.185 240.609 117.898 241.635 118.856 242.406C119.825 243.177 121.044 243.562 122.513 243.562ZM133.129 227.031V223H153.379V227.031H145.551V247H140.988V227.031H133.129ZM160.018 240.453L170.596 223H175.628V247H171.05V229.531L160.518 247H155.44V223H160.018V240.453ZM197.903 247.484C195.58 247.484 193.58 246.958 191.903 245.906C190.236 244.844 188.955 243.38 188.059 241.516C187.163 239.651 186.715 237.516 186.715 235.109C186.715 232.672 187.174 230.521 188.09 228.656C189.007 226.781 190.299 225.318 191.965 224.266C193.632 223.214 195.596 222.688 197.856 222.688C199.679 222.688 201.304 223.026 202.731 223.703C204.158 224.37 205.309 225.307 206.184 226.516C207.069 227.724 207.596 229.135 207.762 230.75H203.215C202.965 229.625 202.392 228.656 201.497 227.844C200.611 227.031 199.424 226.625 197.934 226.625C196.632 226.625 195.491 226.969 194.512 227.656C193.543 228.333 192.788 229.302 192.247 230.562C191.705 231.812 191.434 233.292 191.434 235C191.434 236.75 191.7 238.26 192.231 239.531C192.762 240.802 193.512 241.786 194.481 242.484C195.46 243.182 196.611 243.531 197.934 243.531C198.819 243.531 199.622 243.37 200.34 243.047C201.069 242.714 201.679 242.24 202.168 241.625C202.668 241.01 203.017 240.271 203.215 239.406H207.762C207.596 240.958 207.09 242.344 206.247 243.562C205.403 244.781 204.273 245.74 202.856 246.437C201.45 247.135 199.799 247.484 197.903 247.484ZM209.878 247V223H219.831C222.54 223 224.686 223.578 226.269 224.734C227.852 225.88 228.644 227.437 228.644 229.406C228.644 230.812 228.196 231.927 227.3 232.75C226.404 233.573 225.217 234.125 223.738 234.406C224.811 234.531 225.795 234.854 226.691 235.375C227.587 235.885 228.305 236.573 228.847 237.437C229.399 238.302 229.675 239.333 229.675 240.531C229.675 241.802 229.347 242.927 228.691 243.906C228.035 244.875 227.081 245.635 225.831 246.187C224.592 246.729 223.097 247 221.347 247H209.878ZM214.269 243.094H221.347C222.503 243.094 223.41 242.818 224.066 242.266C224.722 241.714 225.05 240.964 225.05 240.016C225.05 238.901 224.722 238.026 224.066 237.391C223.41 236.745 222.503 236.422 221.347 236.422H214.269V243.094ZM214.269 233H219.878C220.753 233 221.503 232.875 222.128 232.625C222.764 232.375 223.248 232.021 223.581 231.562C223.925 231.094 224.097 230.542 224.097 229.906C224.097 228.979 223.717 228.255 222.956 227.734C222.196 227.214 221.154 226.953 219.831 226.953H214.269V233ZM242.03 247.484C239.78 247.484 237.816 246.969 236.139 245.937C234.462 244.906 233.16 243.464 232.233 241.609C231.306 239.755 230.842 237.589 230.842 235.109C230.842 232.62 231.306 230.443 232.233 228.578C233.16 226.714 234.462 225.266 236.139 224.234C237.816 223.203 239.78 222.688 242.03 222.688C244.28 222.688 246.243 223.203 247.92 224.234C249.597 225.266 250.899 226.714 251.826 228.578C252.753 230.443 253.217 232.62 253.217 235.109C253.217 237.589 252.753 239.755 251.826 241.609C250.899 243.464 249.597 244.906 247.92 245.937C246.243 246.969 244.28 247.484 242.03 247.484ZM242.045 243.562C243.503 243.562 244.712 243.177 245.67 242.406C246.628 241.635 247.337 240.609 247.795 239.328C248.264 238.047 248.498 236.635 248.498 235.094C248.498 233.562 248.264 232.156 247.795 230.875C247.337 229.583 246.628 228.547 245.67 227.766C244.712 226.984 243.503 226.594 242.045 226.594C240.576 226.594 239.358 226.984 238.389 227.766C237.431 228.547 236.717 229.583 236.248 230.875C235.79 232.156 235.561 233.562 235.561 235.094C235.561 236.635 235.79 238.047 236.248 239.328C236.717 240.609 237.431 241.635 238.389 242.406C239.358 243.177 240.576 243.562 242.045 243.562ZM260.13 240.453L270.708 223H275.739V247H271.161V229.531L260.63 247H255.552V223H260.13V240.453ZM268.708 214.875H272.552C272.552 216.635 271.927 218.068 270.677 219.172C269.437 220.266 267.76 220.812 265.646 220.812C263.541 220.812 261.87 220.266 260.63 219.172C259.39 218.068 258.771 216.635 258.771 214.875H262.599C262.599 215.656 262.828 216.349 263.286 216.953C263.745 217.547 264.531 217.844 265.646 217.844C266.739 217.844 267.521 217.547 267.989 216.953C268.469 216.359 268.708 215.667 268.708 214.875ZM160.505 267.062L162.443 270.016C161.724 270.672 160.907 271.141 159.99 271.422C159.084 271.693 158.037 271.865 156.849 271.937C155.662 272 154.302 272.057 152.771 272.109C151.042 272.161 149.62 272.536 148.505 273.234C147.391 273.922 146.532 274.943 145.927 276.297C145.334 277.641 144.948 279.328 144.771 281.359H145.068C145.849 279.87 146.933 278.755 148.318 278.016C149.714 277.276 151.282 276.906 153.021 276.906C154.959 276.906 156.683 277.349 158.193 278.234C159.703 279.12 160.891 280.417 161.755 282.125C162.63 283.823 163.068 285.901 163.068 288.359C163.068 290.849 162.61 293 161.693 294.812C160.787 296.625 159.505 298.026 157.849 299.016C156.203 299.995 154.261 300.484 152.021 300.484C149.782 300.484 147.828 299.979 146.162 298.969C144.505 297.948 143.219 296.438 142.302 294.438C141.396 292.437 140.943 289.969 140.943 287.031V284.656C140.943 279.167 141.922 275.036 143.88 272.266C145.839 269.495 148.766 268.073 152.662 268C153.922 267.969 155.047 267.964 156.037 267.984C157.026 267.995 157.891 267.948 158.63 267.844C159.38 267.729 160.005 267.469 160.505 267.062ZM152.037 296.562C153.339 296.562 154.459 296.234 155.396 295.578C156.344 294.911 157.073 293.969 157.584 292.75C158.094 291.531 158.349 290.094 158.349 288.437C158.349 286.813 158.094 285.432 157.584 284.297C157.073 283.161 156.344 282.297 155.396 281.703C154.448 281.099 153.313 280.797 151.99 280.797C151.011 280.797 150.136 280.969 149.365 281.312C148.594 281.646 147.933 282.141 147.38 282.797C146.839 283.453 146.417 284.255 146.115 285.203C145.823 286.141 145.667 287.219 145.646 288.437C145.646 290.917 146.214 292.891 147.349 294.359C148.495 295.828 150.058 296.562 152.037 296.562ZM169.985 293.453L180.563 276H185.594V300H181.016V282.531L170.485 300H165.407V276H169.985V293.453ZM187.574 293.656H192.355C192.417 294.635 192.86 295.391 193.683 295.922C194.516 296.453 195.594 296.719 196.917 296.719C198.261 296.719 199.407 296.432 200.355 295.859C201.303 295.276 201.777 294.375 201.777 293.156C201.777 292.427 201.594 291.792 201.23 291.25C200.876 290.698 200.37 290.271 199.714 289.969C199.068 289.667 198.303 289.516 197.417 289.516H193.511V285.844H197.417C198.74 285.844 199.73 285.542 200.386 284.937C201.042 284.333 201.37 283.578 201.37 282.672C201.37 281.693 201.016 280.906 200.308 280.312C199.61 279.708 198.636 279.406 197.386 279.406C196.115 279.406 195.058 279.693 194.214 280.266C193.37 280.828 192.928 281.557 192.886 282.453H188.167C188.199 281.109 188.605 279.932 189.386 278.922C190.178 277.901 191.24 277.109 192.574 276.547C193.917 275.974 195.443 275.688 197.152 275.688C198.933 275.688 200.475 275.974 201.777 276.547C203.079 277.12 204.084 277.911 204.792 278.922C205.511 279.932 205.87 281.094 205.87 282.406C205.87 283.729 205.475 284.812 204.683 285.656C203.902 286.49 202.881 287.089 201.62 287.453V287.703C202.548 287.766 203.37 288.047 204.089 288.547C204.808 289.047 205.37 289.708 205.777 290.531C206.183 291.354 206.386 292.286 206.386 293.328C206.386 294.797 205.98 296.068 205.167 297.141C204.365 298.214 203.251 299.042 201.824 299.625C200.407 300.198 198.787 300.484 196.964 300.484C195.193 300.484 193.605 300.208 192.199 299.656C190.803 299.094 189.693 298.302 188.87 297.281C188.058 296.26 187.626 295.052 187.574 293.656ZM224.596 285.984V290.031H211.596V285.984H224.596ZM212.908 276V300H208.33V276H212.908ZM227.862 276V300H223.299V276H227.862ZM241.575 300.484C239.211 300.484 237.174 299.979 235.466 298.969C233.768 297.948 232.456 296.516 231.528 294.672C230.612 292.818 230.153 290.646 230.153 288.156C230.153 285.698 230.612 283.531 231.528 281.656C232.456 279.781 233.747 278.318 235.403 277.266C237.07 276.214 239.018 275.688 241.247 275.688C242.601 275.688 243.914 275.911 245.185 276.359C246.456 276.807 247.596 277.51 248.607 278.469C249.617 279.427 250.414 280.672 250.997 282.203C251.581 283.724 251.872 285.573 251.872 287.75V289.406H232.794V285.906H247.294C247.294 284.677 247.044 283.589 246.544 282.641C246.044 281.682 245.341 280.927 244.435 280.375C243.539 279.823 242.487 279.547 241.278 279.547C239.966 279.547 238.82 279.87 237.841 280.516C236.872 281.151 236.122 281.984 235.591 283.016C235.07 284.036 234.81 285.146 234.81 286.344V289.078C234.81 290.682 235.091 292.047 235.653 293.172C236.226 294.297 237.023 295.156 238.044 295.75C239.065 296.333 240.258 296.625 241.622 296.625C242.508 296.625 243.315 296.5 244.044 296.25C244.773 295.99 245.403 295.604 245.935 295.094C246.466 294.583 246.872 293.953 247.153 293.203L251.575 294C251.221 295.302 250.586 296.443 249.669 297.422C248.763 298.391 247.622 299.146 246.247 299.687C244.883 300.219 243.325 300.484 241.575 300.484ZM264.285 300.484C261.962 300.484 259.962 299.958 258.285 298.906C256.618 297.844 255.337 296.38 254.441 294.516C253.546 292.651 253.098 290.516 253.098 288.109C253.098 285.672 253.556 283.521 254.473 281.656C255.389 279.781 256.681 278.318 258.348 277.266C260.014 276.214 261.978 275.688 264.238 275.688C266.061 275.688 267.686 276.026 269.113 276.703C270.54 277.37 271.691 278.307 272.566 279.516C273.452 280.724 273.978 282.135 274.145 283.75H269.598C269.348 282.625 268.775 281.656 267.879 280.844C266.993 280.031 265.806 279.625 264.316 279.625C263.014 279.625 261.874 279.969 260.895 280.656C259.926 281.333 259.171 282.302 258.629 283.562C258.087 284.812 257.816 286.292 257.816 288C257.816 289.75 258.082 291.26 258.613 292.531C259.145 293.802 259.895 294.786 260.863 295.484C261.842 296.182 262.993 296.531 264.316 296.531C265.202 296.531 266.004 296.37 266.723 296.047C267.452 295.714 268.061 295.24 268.551 294.625C269.051 294.01 269.4 293.271 269.598 292.406H274.145C273.978 293.958 273.473 295.344 272.629 296.562C271.785 297.781 270.655 298.74 269.238 299.437C267.832 300.135 266.181 300.484 264.285 300.484Z" fill="#0040C1"/>
<path d="M74.6906 358V334H84.6438C87.3521 334 89.4979 334.578 91.0813 335.734C92.6646 336.88 93.4563 338.437 93.4563 340.406C93.4563 341.812 93.0083 342.927 92.1125 343.75C91.2167 344.573 90.0292 345.125 88.55 345.406C89.6229 345.531 90.6073 345.854 91.5031 346.375C92.399 346.885 93.1177 347.573 93.6594 348.437C94.2115 349.302 94.4875 350.333 94.4875 351.531C94.4875 352.802 94.1594 353.927 93.5031 354.906C92.8469 355.875 91.8938 356.635 90.6438 357.187C89.4042 357.729 87.9094 358 86.1594 358H74.6906ZM79.0813 354.094H86.1594C87.3156 354.094 88.2219 353.818 88.8781 353.266C89.5344 352.714 89.8625 351.964 89.8625 351.016C89.8625 349.901 89.5344 349.026 88.8781 348.391C88.2219 347.745 87.3156 347.422 86.1594 347.422H79.0813V354.094ZM79.0813 344H84.6906C85.5656 344 86.3156 343.875 86.9406 343.625C87.576 343.375 88.0604 343.021 88.3938 342.562C88.7375 342.094 88.9094 341.542 88.9094 340.906C88.9094 339.979 88.5292 339.255 87.7688 338.734C87.0083 338.214 85.9667 337.953 84.6438 337.953H79.0813V344ZM125.075 334V354.172H128.591V365.734H123.981V358H105.497V334H110.075V353.969H120.513V334H125.075ZM135.469 351.453L146.047 334H151.078V358H146.5V340.531L135.969 358H130.89V334H135.469V351.453ZM164.807 366.172V326H169.479V366.172H164.807ZM164.807 358.484C163.109 358.484 161.563 358.193 160.167 357.609C158.771 357.016 157.568 356.172 156.557 355.078C155.547 353.984 154.766 352.677 154.214 351.156C153.672 349.635 153.401 347.953 153.401 346.109C153.401 344.245 153.672 342.552 154.214 341.031C154.766 339.51 155.547 338.203 156.557 337.109C157.568 336.016 158.771 335.172 160.167 334.578C161.563 333.984 163.109 333.688 164.807 333.688H165.964V358.484H164.807ZM164.807 354.547H165.464V337.625H164.807C163.682 337.625 162.703 337.854 161.87 338.312C161.037 338.76 160.344 339.38 159.792 340.172C159.24 340.953 158.823 341.854 158.542 342.875C158.271 343.896 158.135 344.974 158.135 346.109C158.135 347.63 158.38 349.031 158.87 350.312C159.359 351.583 160.099 352.609 161.089 353.391C162.078 354.161 163.318 354.547 164.807 354.547ZM169.479 358.484H168.307V333.688H169.479C171.177 333.688 172.724 333.984 174.12 334.578C175.516 335.172 176.714 336.016 177.714 337.109C178.724 338.203 179.5 339.51 180.042 341.031C180.594 342.552 180.87 344.245 180.87 346.109C180.87 347.953 180.594 349.635 180.042 351.156C179.5 352.677 178.724 353.984 177.714 355.078C176.714 356.172 175.516 357.016 174.12 357.609C172.724 358.193 171.177 358.484 169.479 358.484ZM169.479 354.547C170.604 354.547 171.583 354.328 172.417 353.891C173.25 353.443 173.943 352.828 174.495 352.047C175.047 351.255 175.458 350.354 175.729 349.344C176 348.323 176.135 347.245 176.135 346.109C176.135 344.599 175.891 343.203 175.401 341.922C174.922 340.63 174.188 339.594 173.198 338.812C172.208 338.021 170.969 337.625 169.479 337.625H168.807V354.547H169.479ZM183.181 367V334H187.744V337.891H188.134C188.405 337.391 188.796 336.812 189.306 336.156C189.817 335.5 190.525 334.927 191.431 334.437C192.337 333.938 193.535 333.688 195.025 333.688C196.962 333.688 198.692 334.177 200.212 335.156C201.733 336.135 202.926 337.547 203.791 339.391C204.666 341.234 205.103 343.453 205.103 346.047C205.103 348.641 204.671 350.865 203.806 352.719C202.942 354.562 201.754 355.984 200.244 356.984C198.733 357.974 197.009 358.469 195.072 358.469C193.614 358.469 192.421 358.224 191.494 357.734C190.577 357.245 189.858 356.672 189.337 356.016C188.817 355.359 188.416 354.776 188.134 354.266H187.853V367H183.181ZM187.759 346C187.759 347.687 188.004 349.167 188.494 350.438C188.983 351.708 189.692 352.703 190.619 353.422C191.546 354.13 192.681 354.484 194.025 354.484C195.421 354.484 196.587 354.115 197.525 353.375C198.462 352.625 199.171 351.609 199.65 350.328C200.14 349.047 200.384 347.604 200.384 346C200.384 344.417 200.145 342.995 199.666 341.734C199.197 340.474 198.489 339.479 197.541 338.75C196.603 338.021 195.431 337.656 194.025 337.656C192.671 337.656 191.525 338.005 190.587 338.703C189.66 339.401 188.957 340.375 188.478 341.625C187.999 342.875 187.759 344.333 187.759 346ZM217.567 358.484C215.317 358.484 213.353 357.969 211.676 356.937C209.999 355.906 208.697 354.464 207.77 352.609C206.843 350.755 206.379 348.589 206.379 346.109C206.379 343.62 206.843 341.443 207.77 339.578C208.697 337.714 209.999 336.266 211.676 335.234C213.353 334.203 215.317 333.688 217.567 333.688C219.817 333.688 221.78 334.203 223.458 335.234C225.135 336.266 226.437 337.714 227.364 339.578C228.291 341.443 228.754 343.62 228.754 346.109C228.754 348.589 228.291 350.755 227.364 352.609C226.437 354.464 225.135 355.906 223.458 356.937C221.78 357.969 219.817 358.484 217.567 358.484ZM217.583 354.562C219.041 354.562 220.249 354.177 221.208 353.406C222.166 352.635 222.874 351.609 223.333 350.328C223.801 349.047 224.036 347.635 224.036 346.094C224.036 344.562 223.801 343.156 223.333 341.875C222.874 340.583 222.166 339.547 221.208 338.766C220.249 337.984 219.041 337.594 217.583 337.594C216.114 337.594 214.895 337.984 213.926 338.766C212.968 339.547 212.254 340.583 211.786 341.875C211.327 343.156 211.098 344.562 211.098 346.094C211.098 347.635 211.327 349.047 211.786 350.328C212.254 351.609 212.968 352.635 213.926 353.406C214.895 354.177 216.114 354.562 217.583 354.562ZM231.089 358V334H241.042C243.751 334 245.897 334.578 247.48 335.734C249.063 336.88 249.855 338.437 249.855 340.406C249.855 341.812 249.407 342.927 248.511 343.75C247.615 344.573 246.428 345.125 244.949 345.406C246.022 345.531 247.006 345.854 247.902 346.375C248.798 346.885 249.516 347.573 250.058 348.437C250.61 349.302 250.886 350.333 250.886 351.531C250.886 352.802 250.558 353.927 249.902 354.906C249.245 355.875 248.292 356.635 247.042 357.187C245.803 357.729 244.308 358 242.558 358H231.089ZM235.48 354.094H242.558C243.714 354.094 244.62 353.818 245.277 353.266C245.933 352.714 246.261 351.964 246.261 351.016C246.261 349.901 245.933 349.026 245.277 348.391C244.62 347.745 243.714 347.422 242.558 347.422H235.48V354.094ZM235.48 344H241.089C241.964 344 242.714 343.875 243.339 343.625C243.975 343.375 244.459 343.021 244.792 342.562C245.136 342.094 245.308 341.542 245.308 340.906C245.308 339.979 244.928 339.255 244.167 338.734C243.407 338.214 242.365 337.953 241.042 337.953H235.48V344ZM263.24 358.484C260.99 358.484 259.027 357.969 257.35 356.937C255.673 355.906 254.371 354.464 253.444 352.609C252.517 350.755 252.053 348.589 252.053 346.109C252.053 343.62 252.517 341.443 253.444 339.578C254.371 337.714 255.673 336.266 257.35 335.234C259.027 334.203 260.99 333.688 263.24 333.688C265.49 333.688 267.454 334.203 269.131 335.234C270.808 336.266 272.11 337.714 273.037 339.578C273.964 341.443 274.428 343.62 274.428 346.109C274.428 348.589 273.964 350.755 273.037 352.609C272.11 354.464 270.808 355.906 269.131 356.937C267.454 357.969 265.49 358.484 263.24 358.484ZM263.256 354.562C264.714 354.562 265.923 354.177 266.881 353.406C267.839 352.635 268.548 351.609 269.006 350.328C269.475 349.047 269.709 347.635 269.709 346.094C269.709 344.562 269.475 343.156 269.006 341.875C268.548 340.583 267.839 339.547 266.881 338.766C265.923 337.984 264.714 337.594 263.256 337.594C261.787 337.594 260.569 337.984 259.6 338.766C258.642 339.547 257.928 340.583 257.459 341.875C257.001 343.156 256.772 344.562 256.772 346.094C256.772 347.635 257.001 349.047 257.459 350.328C257.928 351.609 258.642 352.635 259.6 353.406C260.569 354.177 261.787 354.562 263.256 354.562ZM290.232 352.219L297.982 334H302.013L291.966 358H288.497L278.653 334H282.638L290.232 352.219ZM281.341 334V358H276.763V334H281.341ZM299.247 358V334H303.794V358H299.247ZM33.9144 411V387H53.4925V411H48.9144V391.031H38.4612V411H33.9144ZM56.8586 420V387H61.4211V390.891H61.8117C62.0825 390.391 62.4732 389.812 62.9836 389.156C63.494 388.5 64.2023 387.927 65.1086 387.437C66.0148 386.938 67.2128 386.688 68.7023 386.688C70.6398 386.688 72.369 387.177 73.8898 388.156C75.4107 389.135 76.6034 390.547 77.468 392.391C78.343 394.234 78.7805 396.453 78.7805 399.047C78.7805 401.641 78.3482 403.865 77.4836 405.719C76.619 407.562 75.4315 408.984 73.9211 409.984C72.4107 410.974 70.6867 411.469 68.7492 411.469C67.2909 411.469 66.0982 411.224 65.1711 410.734C64.2544 410.245 63.5357 409.672 63.0148 409.016C62.494 408.359 62.093 407.776 61.8117 407.266H61.5305V420H56.8586ZM61.4367 399C61.4367 400.687 61.6815 402.167 62.1711 403.438C62.6607 404.708 63.369 405.703 64.2961 406.422C65.2232 407.13 66.3586 407.484 67.7023 407.484C69.0982 407.484 70.2648 407.115 71.2023 406.375C72.1398 405.625 72.8482 404.609 73.3273 403.328C73.8169 402.047 74.0617 400.604 74.0617 399C74.0617 397.417 73.8221 395.995 73.343 394.734C72.8742 393.474 72.1659 392.479 71.218 391.75C70.2805 391.021 69.1086 390.656 67.7023 390.656C66.3482 390.656 65.2023 391.005 64.2648 391.703C63.3378 392.401 62.6346 393.375 62.1555 394.625C61.6763 395.875 61.4367 397.333 61.4367 399ZM91.2442 411.484C88.9942 411.484 87.0307 410.969 85.3536 409.937C83.6765 408.906 82.3744 407.464 81.4473 405.609C80.5203 403.755 80.0567 401.589 80.0567 399.109C80.0567 396.62 80.5203 394.443 81.4473 392.578C82.3744 390.714 83.6765 389.266 85.3536 388.234C87.0307 387.203 88.9942 386.688 91.2442 386.688C93.4942 386.688 95.4578 387.203 97.1348 388.234C98.8119 389.266 100.114 390.714 101.041 392.578C101.968 394.443 102.432 396.62 102.432 399.109C102.432 401.589 101.968 403.755 101.041 405.609C100.114 407.464 98.8119 408.906 97.1348 409.937C95.4578 410.969 93.4942 411.484 91.2442 411.484ZM91.2598 407.562C92.7182 407.562 93.9265 407.177 94.8848 406.406C95.8432 405.635 96.5515 404.609 97.0098 403.328C97.4786 402.047 97.713 400.635 97.713 399.094C97.713 397.562 97.4786 396.156 97.0098 394.875C96.5515 393.583 95.8432 392.547 94.8848 391.766C93.9265 390.984 92.7182 390.594 91.2598 390.594C89.7911 390.594 88.5723 390.984 87.6036 391.766C86.6453 392.547 85.9317 393.583 85.463 394.875C85.0046 396.156 84.7755 397.562 84.7755 399.094C84.7755 400.635 85.0046 402.047 85.463 403.328C85.9317 404.609 86.6453 405.635 87.6036 406.406C88.5723 407.177 89.7911 407.562 91.2598 407.562ZM114.876 411.484C112.553 411.484 110.553 410.958 108.876 409.906C107.209 408.844 105.928 407.38 105.032 405.516C104.136 403.651 103.688 401.516 103.688 399.109C103.688 396.672 104.147 394.521 105.063 392.656C105.98 390.781 107.272 389.318 108.938 388.266C110.605 387.214 112.569 386.688 114.829 386.688C116.652 386.688 118.277 387.026 119.704 387.703C121.131 388.37 122.282 389.307 123.157 390.516C124.043 391.724 124.569 393.135 124.735 394.75H120.188C119.938 393.625 119.366 392.656 118.47 391.844C117.584 391.031 116.397 390.625 114.907 390.625C113.605 390.625 112.464 390.969 111.485 391.656C110.517 392.333 109.761 393.302 109.22 394.562C108.678 395.812 108.407 397.292 108.407 399C108.407 400.75 108.673 402.26 109.204 403.531C109.735 404.802 110.485 405.786 111.454 406.484C112.433 407.182 113.584 407.531 114.907 407.531C115.793 407.531 116.595 407.37 117.313 407.047C118.043 406.714 118.652 406.24 119.142 405.625C119.642 405.01 119.991 404.271 120.188 403.406H124.735C124.569 404.958 124.063 406.344 123.22 407.562C122.376 408.781 121.246 409.74 119.829 410.437C118.423 411.135 116.772 411.484 114.876 411.484ZM125.035 391.031V387H145.285V391.031H137.457V411H132.894V391.031H125.035ZM147.346 420V387H151.909V390.891H152.3C152.57 390.391 152.961 389.812 153.471 389.156C153.982 388.5 154.69 387.927 155.596 387.437C156.503 386.938 157.701 386.688 159.19 386.688C161.128 386.688 162.857 387.177 164.378 388.156C165.898 389.135 167.091 390.547 167.956 392.391C168.831 394.234 169.268 396.453 169.268 399.047C169.268 401.641 168.836 403.865 167.971 405.719C167.107 407.562 165.919 408.984 164.409 409.984C162.898 410.974 161.175 411.469 159.237 411.469C157.779 411.469 156.586 411.224 155.659 410.734C154.742 410.245 154.023 409.672 153.503 409.016C152.982 408.359 152.581 407.776 152.3 407.266H152.018V420H147.346ZM151.925 399C151.925 400.687 152.169 402.167 152.659 403.438C153.148 404.708 153.857 405.703 154.784 406.422C155.711 407.13 156.846 407.484 158.19 407.484C159.586 407.484 160.753 407.115 161.69 406.375C162.628 405.625 163.336 404.609 163.815 403.328C164.305 402.047 164.55 400.604 164.55 399C164.55 397.417 164.31 395.995 163.831 394.734C163.362 393.474 162.654 392.479 161.706 391.75C160.768 391.021 159.596 390.656 158.19 390.656C156.836 390.656 155.69 391.005 154.753 391.703C153.826 392.401 153.122 393.375 152.643 394.625C152.164 395.875 151.925 397.333 151.925 399ZM178.607 411.531C177.086 411.531 175.711 411.25 174.482 410.687C173.253 410.115 172.279 409.286 171.56 408.203C170.852 407.12 170.498 405.792 170.498 404.219C170.498 402.865 170.758 401.75 171.279 400.875C171.8 400 172.503 399.307 173.388 398.797C174.274 398.286 175.263 397.901 176.357 397.641C177.451 397.38 178.565 397.182 179.701 397.047C181.138 396.88 182.305 396.745 183.201 396.641C184.097 396.526 184.748 396.344 185.154 396.094C185.56 395.844 185.763 395.437 185.763 394.875V394.766C185.763 393.401 185.378 392.344 184.607 391.594C183.847 390.844 182.711 390.469 181.201 390.469C179.628 390.469 178.388 390.818 177.482 391.516C176.586 392.203 175.966 392.969 175.623 393.812L171.232 392.812C171.753 391.354 172.513 390.177 173.513 389.281C174.524 388.375 175.685 387.719 176.998 387.312C178.31 386.896 179.69 386.688 181.138 386.688C182.097 386.688 183.112 386.802 184.185 387.031C185.268 387.25 186.279 387.656 187.216 388.25C188.164 388.844 188.94 389.693 189.545 390.797C190.149 391.891 190.451 393.313 190.451 395.063V411H185.888V407.719H185.701C185.399 408.323 184.946 408.917 184.341 409.5C183.737 410.083 182.961 410.568 182.013 410.953C181.065 411.339 179.93 411.531 178.607 411.531ZM179.623 407.781C180.914 407.781 182.018 407.526 182.935 407.016C183.862 406.505 184.565 405.839 185.045 405.016C185.534 404.182 185.779 403.292 185.779 402.344V399.25C185.612 399.417 185.289 399.573 184.81 399.719C184.341 399.854 183.805 399.974 183.201 400.078C182.597 400.172 182.008 400.26 181.435 400.344C180.862 400.417 180.383 400.479 179.998 400.531C179.091 400.646 178.263 400.839 177.513 401.109C176.774 401.38 176.18 401.771 175.732 402.281C175.295 402.781 175.076 403.448 175.076 404.281C175.076 405.437 175.503 406.312 176.357 406.906C177.211 407.49 178.3 407.781 179.623 407.781ZM210.059 396.984V401.031H197.059V396.984H210.059ZM198.372 387V411H193.793V387H198.372ZM213.325 387V411H208.762V387H213.325ZM226.804 411.484C224.481 411.484 222.481 410.958 220.804 409.906C219.137 408.844 217.856 407.38 216.96 405.516C216.064 403.651 215.617 401.516 215.617 399.109C215.617 396.672 216.075 394.521 216.992 392.656C217.908 390.781 219.2 389.318 220.867 388.266C222.533 387.214 224.497 386.688 226.757 386.688C228.58 386.688 230.205 387.026 231.632 387.703C233.059 388.37 234.21 389.307 235.085 390.516C235.971 391.724 236.497 393.135 236.663 394.75H232.117C231.867 393.625 231.294 392.656 230.398 391.844C229.512 391.031 228.325 390.625 226.835 390.625C225.533 390.625 224.393 390.969 223.413 391.656C222.445 392.333 221.689 393.302 221.148 394.562C220.606 395.812 220.335 397.292 220.335 399C220.335 400.75 220.601 402.26 221.132 403.531C221.663 404.802 222.413 405.786 223.382 406.484C224.361 407.182 225.512 407.531 226.835 407.531C227.721 407.531 228.523 407.37 229.242 407.047C229.971 406.714 230.58 406.24 231.07 405.625C231.57 405.01 231.919 404.271 232.117 403.406H236.663C236.497 404.958 235.992 406.344 235.148 407.562C234.304 408.781 233.174 409.74 231.757 410.437C230.351 411.135 228.7 411.484 226.804 411.484ZM236.963 391.031V387H257.213V391.031H249.385V411H244.822V391.031H236.963ZM259.275 411V387H269.228C271.936 387 274.082 387.578 275.665 388.734C277.248 389.88 278.04 391.437 278.04 393.406C278.04 394.812 277.592 395.927 276.696 396.75C275.801 397.573 274.613 398.125 273.134 398.406C274.207 398.531 275.191 398.854 276.087 399.375C276.983 399.885 277.702 400.573 278.243 401.437C278.795 402.302 279.071 403.333 279.071 404.531C279.071 405.802 278.743 406.927 278.087 407.906C277.431 408.875 276.478 409.635 275.228 410.187C273.988 410.729 272.493 411 270.743 411H259.275ZM263.665 407.094H270.743C271.9 407.094 272.806 406.818 273.462 406.266C274.118 405.714 274.446 404.964 274.446 404.016C274.446 402.901 274.118 402.026 273.462 401.391C272.806 400.745 271.9 400.422 270.743 400.422H263.665V407.094ZM263.665 397H269.275C270.15 397 270.9 396.875 271.525 396.625C272.16 396.375 272.644 396.021 272.978 395.562C273.321 395.094 273.493 394.542 273.493 393.906C273.493 392.979 273.113 392.255 272.353 391.734C271.592 391.214 270.551 390.953 269.228 390.953H263.665V397ZM291.66 411.484C289.296 411.484 287.259 410.979 285.551 409.969C283.853 408.948 282.54 407.516 281.613 405.672C280.697 403.818 280.238 401.646 280.238 399.156C280.238 396.698 280.697 394.531 281.613 392.656C282.54 390.781 283.832 389.318 285.488 388.266C287.155 387.214 289.103 386.688 291.332 386.688C292.686 386.688 293.999 386.911 295.27 387.359C296.54 387.807 297.681 388.51 298.691 389.469C299.702 390.427 300.499 391.672 301.082 393.203C301.665 394.724 301.957 396.573 301.957 398.75V400.406H282.879V396.906H297.379C297.379 395.677 297.129 394.589 296.629 393.641C296.129 392.682 295.426 391.927 294.52 391.375C293.624 390.823 292.572 390.547 291.363 390.547C290.051 390.547 288.905 390.87 287.926 391.516C286.957 392.151 286.207 392.984 285.676 394.016C285.155 395.036 284.895 396.146 284.895 397.344V400.078C284.895 401.682 285.176 403.047 285.738 404.172C286.311 405.297 287.108 406.156 288.129 406.75C289.15 407.333 290.342 407.625 291.707 407.625C292.592 407.625 293.4 407.5 294.129 407.25C294.858 406.99 295.488 406.604 296.02 406.094C296.551 405.583 296.957 404.953 297.238 404.203L301.66 405C301.306 406.302 300.671 407.443 299.754 408.422C298.848 409.391 297.707 410.146 296.332 410.687C294.967 411.219 293.41 411.484 291.66 411.484Z" fill="#040C42"/>
<path d="M21.1186 174.818H22.6399V182.295H22.7344L27.9148 174.818H29.3366V185H27.8004V177.533H27.706L22.5355 185H21.1186V174.818ZM36.6337 180.54V181.828H32.4973V180.54H36.6337ZM32.915 177.364V185H31.4583V177.364H32.915ZM37.6728 177.364V185H36.2211V177.364H37.6728ZM38.7143 178.646V177.364H45.1575V178.646H42.6667V185H41.215V178.646H38.7143ZM49.6655 185.154C48.9131 185.154 48.2652 184.993 47.7216 184.672C47.1813 184.347 46.7637 183.891 46.4688 183.305C46.1771 182.715 46.0312 182.024 46.0312 181.232C46.0312 180.449 46.1771 179.76 46.4688 179.163C46.7637 178.567 47.1747 178.101 47.7017 177.766C48.232 177.432 48.8518 177.264 49.5611 177.264C49.992 177.264 50.4096 177.335 50.8139 177.478C51.2183 177.621 51.5812 177.844 51.9027 178.149C52.2242 178.454 52.4777 178.85 52.6634 179.337C52.849 179.821 52.9418 180.41 52.9418 181.102V181.629H46.8714V180.516H51.4851C51.4851 180.125 51.4055 179.778 51.2464 179.477C51.0874 179.172 50.8636 178.931 50.5753 178.756C50.2902 178.58 49.9555 178.492 49.571 178.492C49.1534 178.492 48.7888 178.595 48.4773 178.8C48.169 179.003 47.9304 179.268 47.7614 179.596C47.5956 179.921 47.5128 180.274 47.5128 180.655V181.525C47.5128 182.035 47.6023 182.469 47.7812 182.827C47.9635 183.185 48.2171 183.459 48.5419 183.648C48.8667 183.833 49.2462 183.926 49.6804 183.926C49.9621 183.926 50.219 183.886 50.451 183.807C50.683 183.724 50.8835 183.601 51.0526 183.439C51.2216 183.277 51.3509 183.076 51.4403 182.837L52.8473 183.091C52.7346 183.505 52.5324 183.868 52.2408 184.18C51.9524 184.488 51.5895 184.728 51.152 184.901C50.7178 185.07 50.2223 185.154 49.6655 185.154ZM59.4732 177.364V178.646H56.0577V185H54.5911V177.364H59.4732ZM61.0442 187.864V177.364H62.4959V178.602H62.6202C62.7064 178.442 62.8307 178.259 62.9931 178.05C63.1555 177.841 63.3809 177.659 63.6692 177.503C63.9576 177.344 64.3387 177.264 64.8127 177.264C65.4292 177.264 65.9793 177.42 66.4632 177.732C66.9471 178.043 67.3266 178.492 67.6017 179.079C67.8801 179.665 68.0194 180.371 68.0194 181.197C68.0194 182.022 67.8818 182.73 67.6067 183.32C67.3316 183.906 66.9538 184.359 66.4732 184.677C65.9926 184.992 65.4441 185.149 64.8276 185.149C64.3636 185.149 63.9841 185.071 63.6891 184.915C63.3974 184.76 63.1687 184.577 63.003 184.369C62.8373 184.16 62.7097 183.974 62.6202 183.812H62.5307V187.864H61.0442ZM62.5009 181.182C62.5009 181.719 62.5788 182.189 62.7346 182.594C62.8903 182.998 63.1157 183.315 63.4107 183.543C63.7057 183.769 64.0669 183.881 64.4945 183.881C64.9386 183.881 65.3098 183.764 65.6081 183.528C65.9064 183.29 66.1318 182.967 66.2843 182.559C66.44 182.151 66.5179 181.692 66.5179 181.182C66.5179 180.678 66.4417 180.226 66.2892 179.825C66.1401 179.424 65.9147 179.107 65.6131 178.875C65.3148 178.643 64.9419 178.527 64.4945 178.527C64.0636 178.527 63.699 178.638 63.4007 178.86C63.1058 179.082 62.882 179.392 62.7296 179.79C62.5771 180.187 62.5009 180.652 62.5009 181.182ZM71.9071 185.169C71.4232 185.169 70.9857 185.08 70.5946 184.901C70.2035 184.718 69.8936 184.455 69.665 184.11C69.4396 183.765 69.3269 183.343 69.3269 182.842C69.3269 182.411 69.4097 182.057 69.5755 181.778C69.7412 181.5 69.9649 181.28 70.2466 181.117C70.5283 180.955 70.8432 180.832 71.1912 180.749C71.5392 180.666 71.8939 180.603 72.2551 180.56C72.7125 180.507 73.0837 180.464 73.3688 180.431C73.6538 180.395 73.861 180.337 73.9902 180.257C74.1195 180.178 74.1841 180.048 74.1841 179.869V179.835C74.1841 179.4 74.0615 179.064 73.8162 178.825C73.5743 178.587 73.213 178.467 72.7324 178.467C72.2319 178.467 71.8375 178.578 71.5492 178.8C71.2641 179.019 71.0669 179.263 70.9576 179.531L69.5605 179.213C69.7263 178.749 69.9682 178.375 70.2864 178.089C70.6079 177.801 70.9775 177.592 71.3951 177.463C71.8127 177.33 72.2518 177.264 72.7125 177.264C73.0175 177.264 73.3406 177.301 73.682 177.374C74.0267 177.443 74.3482 177.572 74.6465 177.761C74.9481 177.95 75.195 178.22 75.3873 178.572C75.5795 178.92 75.6756 179.372 75.6756 179.929V185H74.2239V183.956H74.1642C74.0681 184.148 73.9239 184.337 73.7317 184.523C73.5395 184.708 73.2926 184.862 72.9909 184.985C72.6893 185.108 72.3281 185.169 71.9071 185.169ZM72.2303 183.976C72.6413 183.976 72.9926 183.895 73.2843 183.732C73.5792 183.57 73.803 183.358 73.9554 183.096C74.1112 182.831 74.1891 182.547 74.1891 182.246V181.261C74.1361 181.314 74.0333 181.364 73.8809 181.411C73.7317 181.454 73.561 181.492 73.3688 181.525C73.1766 181.555 72.9893 181.583 72.807 181.609C72.6247 181.633 72.4722 181.652 72.3496 181.669C72.0613 181.705 71.7978 181.767 71.5591 181.853C71.3238 181.939 71.1349 182.063 70.9924 182.226C70.8532 182.385 70.7836 182.597 70.7836 182.862C70.7836 183.23 70.9194 183.509 71.1912 183.697C71.463 183.883 71.8094 183.976 72.2303 183.976ZM76.7085 178.646V177.364H83.1516V178.646H80.6609V185H79.2092V178.646H76.7085ZM87.585 185.154C86.8691 185.154 86.2444 184.99 85.7108 184.662C85.1771 184.334 84.7628 183.875 84.4679 183.285C84.1729 182.695 84.0254 182.005 84.0254 181.217C84.0254 180.424 84.1729 179.732 84.4679 179.138C84.7628 178.545 85.1771 178.085 85.7108 177.756C86.2444 177.428 86.8691 177.264 87.585 177.264C88.301 177.264 88.9257 177.428 89.4593 177.756C89.993 178.085 90.4073 178.545 90.7022 179.138C90.9972 179.732 91.1447 180.424 91.1447 181.217C91.1447 182.005 90.9972 182.695 90.7022 183.285C90.4073 183.875 89.993 184.334 89.4593 184.662C88.9257 184.99 88.301 185.154 87.585 185.154ZM87.59 183.906C88.054 183.906 88.4385 183.784 88.7434 183.538C89.0484 183.293 89.2737 182.967 89.4196 182.559C89.5687 182.151 89.6433 181.702 89.6433 181.212C89.6433 180.724 89.5687 180.277 89.4196 179.869C89.2737 179.458 89.0484 179.129 88.7434 178.88C88.4385 178.631 88.054 178.507 87.59 178.507C87.1227 178.507 86.7349 178.631 86.4267 178.88C86.1217 179.129 85.8947 179.458 85.7456 179.869C85.5997 180.277 85.5268 180.724 85.5268 181.212C85.5268 181.702 85.5997 182.151 85.7456 182.559C85.8947 182.967 86.1217 183.293 86.4267 183.538C86.7349 183.784 87.1227 183.906 87.59 183.906ZM92.804 187.864V177.364H94.2557V178.602H94.38C94.4661 178.442 94.5904 178.259 94.7528 178.05C94.9152 177.841 95.1406 177.659 95.429 177.503C95.7173 177.344 96.0985 177.264 96.5724 177.264C97.1889 177.264 97.7391 177.42 98.223 177.732C98.7069 178.043 99.0864 178.492 99.3615 179.079C99.6399 179.665 99.7791 180.371 99.7791 181.197C99.7791 182.022 99.6416 182.73 99.3665 183.32C99.0914 183.906 98.7135 184.359 98.233 184.677C97.7524 184.992 97.2038 185.149 96.5874 185.149C96.1233 185.149 95.7438 185.071 95.4489 184.915C95.1572 184.76 94.9285 184.577 94.7628 184.369C94.5971 184.16 94.4695 183.974 94.38 183.812H94.2905V187.864H92.804ZM94.2607 181.182C94.2607 181.719 94.3385 182.189 94.4943 182.594C94.6501 182.998 94.8755 183.315 95.1705 183.543C95.4654 183.769 95.8267 183.881 96.2543 183.881C96.6984 183.881 97.0696 183.764 97.3679 183.528C97.6662 183.29 97.8916 182.967 98.044 182.559C98.1998 182.151 98.2777 181.692 98.2777 181.182C98.2777 180.678 98.2015 180.226 98.049 179.825C97.8999 179.424 97.6745 179.107 97.3729 178.875C97.0746 178.643 96.7017 178.527 96.2543 178.527C95.8234 178.527 95.4588 178.638 95.1605 178.86C94.8655 179.082 94.6418 179.392 94.4893 179.79C94.3369 180.187 94.2607 180.652 94.2607 181.182ZM102.563 179.989H104.781C105.715 179.989 106.434 180.221 106.938 180.685C107.442 181.149 107.694 181.747 107.694 182.479C107.694 182.957 107.581 183.386 107.356 183.767C107.13 184.148 106.801 184.45 106.366 184.672C105.932 184.891 105.404 185 104.781 185H101.445V177.364H102.901V183.717H104.781C105.208 183.717 105.559 183.606 105.835 183.384C106.11 183.159 106.247 182.872 106.247 182.524C106.247 182.156 106.11 181.856 105.835 181.624C105.559 181.389 105.208 181.271 104.781 181.271H102.563V179.989ZM108.778 185V177.364H110.264V185H108.778ZM118.823 185.149C118.206 185.149 117.656 184.992 117.172 184.677C116.692 184.359 116.314 183.906 116.039 183.32C115.767 182.73 115.631 182.022 115.631 181.197C115.631 180.371 115.769 179.665 116.044 179.079C116.322 178.492 116.703 178.043 117.187 177.732C117.671 177.42 118.22 177.264 118.833 177.264C119.307 177.264 119.688 177.344 119.976 177.503C120.268 177.659 120.493 177.841 120.652 178.05C120.815 178.259 120.941 178.442 121.03 178.602H121.12V174.818H122.606V185H121.154V183.812H121.03C120.941 183.974 120.811 184.16 120.642 184.369C120.477 184.577 120.248 184.76 119.956 184.915C119.665 185.071 119.287 185.149 118.823 185.149ZM119.151 183.881C119.578 183.881 119.94 183.769 120.235 183.543C120.533 183.315 120.758 182.998 120.911 182.594C121.067 182.189 121.145 181.719 121.145 181.182C121.145 180.652 121.068 180.187 120.916 179.79C120.763 179.392 120.54 179.082 120.245 178.86C119.95 178.638 119.585 178.527 119.151 178.527C118.703 178.527 118.331 178.643 118.032 178.875C117.734 179.107 117.509 179.424 117.356 179.825C117.207 180.226 117.132 180.678 117.132 181.182C117.132 181.692 117.209 182.151 117.361 182.559C117.514 182.967 117.739 183.29 118.037 183.528C118.339 183.764 118.71 183.881 119.151 183.881ZM124.728 185V177.364H126.214V185H124.728ZM125.479 176.185C125.22 176.185 124.998 176.099 124.812 175.927C124.63 175.751 124.539 175.542 124.539 175.3C124.539 175.055 124.63 174.846 124.812 174.674C124.998 174.498 125.22 174.411 125.479 174.411C125.737 174.411 125.957 174.498 126.14 174.674C126.325 174.846 126.418 175.055 126.418 175.3C126.418 175.542 126.325 175.751 126.14 175.927C125.957 176.099 125.737 176.185 125.479 176.185ZM131.848 177.364V178.557H127.533V177.364H131.848ZM128.716 185V176.479C128.716 176.001 128.821 175.605 129.029 175.29C129.238 174.972 129.515 174.735 129.86 174.58C130.204 174.42 130.579 174.341 130.983 174.341C131.282 174.341 131.537 174.366 131.749 174.415C131.961 174.462 132.118 174.505 132.221 174.545L131.873 175.748C131.804 175.728 131.714 175.705 131.605 175.678C131.495 175.648 131.363 175.634 131.207 175.634C130.846 175.634 130.587 175.723 130.431 175.902C130.279 176.081 130.203 176.339 130.203 176.678V185H128.716ZM133.382 185V177.364H134.869V185H133.382ZM134.133 176.185C133.874 176.185 133.652 176.099 133.467 175.927C133.284 175.751 133.193 175.542 133.193 175.3C133.193 175.055 133.284 174.846 133.467 174.674C133.652 174.498 133.874 174.411 134.133 174.411C134.391 174.411 134.612 174.498 134.794 174.674C134.98 174.846 135.072 175.055 135.072 175.3C135.072 175.542 134.98 175.751 134.794 175.927C134.612 176.099 134.391 176.185 134.133 176.185ZM140.433 177.364V178.557H136.262V177.364H140.433ZM137.381 175.534H138.867V182.758C138.867 183.046 138.91 183.263 138.996 183.409C139.082 183.552 139.193 183.649 139.329 183.702C139.469 183.752 139.619 183.777 139.782 183.777C139.901 183.777 140.006 183.769 140.095 183.752C140.184 183.736 140.254 183.722 140.304 183.712L140.572 184.94C140.486 184.973 140.363 185.007 140.204 185.04C140.045 185.076 139.846 185.096 139.608 185.099C139.217 185.106 138.852 185.036 138.514 184.891C138.176 184.745 137.903 184.519 137.694 184.214C137.485 183.91 137.381 183.527 137.381 183.066V175.534ZM144.3 185.169C143.816 185.169 143.378 185.08 142.987 184.901C142.596 184.718 142.286 184.455 142.058 184.11C141.832 183.765 141.719 183.343 141.719 182.842C141.719 182.411 141.802 182.057 141.968 181.778C142.134 181.5 142.357 181.28 142.639 181.117C142.921 180.955 143.236 180.832 143.584 180.749C143.932 180.666 144.286 180.603 144.648 180.56C145.105 180.507 145.476 180.464 145.761 180.431C146.046 180.395 146.254 180.337 146.383 180.257C146.512 180.178 146.577 180.048 146.577 179.869V179.835C146.577 179.4 146.454 179.064 146.209 178.825C145.967 178.587 145.606 178.467 145.125 178.467C144.625 178.467 144.23 178.578 143.942 178.8C143.657 179.019 143.46 179.263 143.35 179.531L141.953 179.213C142.119 178.749 142.361 178.375 142.679 178.089C143 177.801 143.37 177.592 143.788 177.463C144.205 177.33 144.644 177.264 145.105 177.264C145.41 177.264 145.733 177.301 146.075 177.374C146.419 177.443 146.741 177.572 147.039 177.761C147.341 177.95 147.588 178.22 147.78 178.572C147.972 178.92 148.068 179.372 148.068 179.929V185H146.616V183.956H146.557C146.461 184.148 146.317 184.337 146.124 184.523C145.932 184.708 145.685 184.862 145.384 184.985C145.082 185.108 144.721 185.169 144.3 185.169ZM144.623 183.976C145.034 183.976 145.385 183.895 145.677 183.732C145.972 183.57 146.196 183.358 146.348 183.096C146.504 182.831 146.582 182.547 146.582 182.246V181.261C146.529 181.314 146.426 181.364 146.273 181.411C146.124 181.454 145.954 181.492 145.761 181.525C145.569 181.555 145.382 181.583 145.2 181.609C145.017 181.633 144.865 181.652 144.742 181.669C144.454 181.705 144.19 181.767 143.952 181.853C143.716 181.939 143.527 182.063 143.385 182.226C143.246 182.385 143.176 182.597 143.176 182.862C143.176 183.23 143.312 183.509 143.584 183.697C143.856 183.883 144.202 183.976 144.623 183.976ZM151.535 174.818V185H150.048V174.818H151.535ZM158.034 180.053V181.341H153.52V180.053H158.034ZM160.015 187.864V177.364H161.467V178.602H161.591C161.677 178.442 161.801 178.259 161.964 178.05C162.126 177.841 162.352 177.659 162.64 177.503C162.928 177.344 163.309 177.264 163.783 177.264C164.4 177.264 164.95 177.42 165.434 177.732C165.918 178.043 166.297 178.492 166.572 179.079C166.851 179.665 166.99 180.371 166.99 181.197C166.99 182.022 166.853 182.73 166.577 183.32C166.302 183.906 165.924 184.359 165.444 184.677C164.963 184.992 164.415 185.149 163.798 185.149C163.334 185.149 162.955 185.071 162.66 184.915C162.368 184.76 162.139 184.577 161.974 184.369C161.808 184.16 161.68 183.974 161.591 183.812H161.501V187.864H160.015ZM161.472 181.182C161.472 181.719 161.549 182.189 161.705 182.594C161.861 182.998 162.086 183.315 162.381 183.543C162.676 183.769 163.038 183.881 163.465 183.881C163.909 183.881 164.281 183.764 164.579 183.528C164.877 183.29 165.103 182.967 165.255 182.559C165.411 182.151 165.489 181.692 165.489 181.182C165.489 180.678 165.412 180.226 165.26 179.825C165.111 179.424 164.885 179.107 164.584 178.875C164.286 178.643 163.913 178.527 163.465 178.527C163.034 178.527 162.67 178.638 162.371 178.86C162.076 179.082 161.853 179.392 161.7 179.79C161.548 180.187 161.472 180.652 161.472 181.182ZM171.947 185.154C171.194 185.154 170.546 184.993 170.003 184.672C169.463 184.347 169.045 183.891 168.75 183.305C168.458 182.715 168.312 182.024 168.312 181.232C168.312 180.449 168.458 179.76 168.75 179.163C169.045 178.567 169.456 178.101 169.983 177.766C170.513 177.432 171.133 177.264 171.842 177.264C172.273 177.264 172.691 177.335 173.095 177.478C173.5 177.621 173.862 177.844 174.184 178.149C174.505 178.454 174.759 178.85 174.945 179.337C175.13 179.821 175.223 180.41 175.223 181.102V181.629H169.153V180.516H173.766C173.766 180.125 173.687 179.778 173.528 179.477C173.369 179.172 173.145 178.931 172.857 178.756C172.571 178.58 172.237 178.492 171.852 178.492C171.435 178.492 171.07 178.595 170.759 178.8C170.45 179.003 170.212 179.268 170.043 179.596C169.877 179.921 169.794 180.274 169.794 180.655V181.525C169.794 182.035 169.884 182.469 170.062 182.827C170.245 183.185 170.498 183.459 170.823 183.648C171.148 183.833 171.527 183.926 171.962 183.926C172.243 183.926 172.5 183.886 172.732 183.807C172.964 183.724 173.165 183.601 173.334 183.439C173.503 183.277 173.632 183.076 173.722 182.837L175.129 183.091C175.016 183.505 174.814 183.868 174.522 184.18C174.234 184.488 173.871 184.728 173.433 184.901C172.999 185.07 172.504 185.154 171.947 185.154ZM176.872 177.364H178.329V183.712H180.969V177.364H182.426V183.712H185.066V177.364H186.522V185H176.872V177.364ZM191.798 185.154C191.046 185.154 190.398 184.993 189.854 184.672C189.314 184.347 188.897 183.891 188.602 183.305C188.31 182.715 188.164 182.024 188.164 181.232C188.164 180.449 188.31 179.76 188.602 179.163C188.897 178.567 189.308 178.101 189.835 177.766C190.365 177.432 190.985 177.264 191.694 177.264C192.125 177.264 192.542 177.335 192.947 177.478C193.351 177.621 193.714 177.844 194.036 178.149C194.357 178.454 194.611 178.85 194.796 179.337C194.982 179.821 195.075 180.41 195.075 181.102V181.629H189.004V180.516H193.618C193.618 180.125 193.538 179.778 193.379 179.477C193.22 179.172 192.996 178.931 192.708 178.756C192.423 178.58 192.088 178.492 191.704 178.492C191.286 178.492 190.922 178.595 190.61 178.8C190.302 179.003 190.063 179.268 189.894 179.596C189.728 179.921 189.646 180.274 189.646 180.655V181.525C189.646 182.035 189.735 182.469 189.914 182.827C190.096 183.185 190.35 183.459 190.675 183.648C191 183.833 191.379 183.926 191.813 183.926C192.095 183.926 192.352 183.886 192.584 183.807C192.816 183.724 193.016 183.601 193.185 183.439C193.354 183.277 193.484 183.076 193.573 182.837L194.98 183.091C194.867 183.505 194.665 183.868 194.374 184.18C194.085 184.488 193.722 184.728 193.285 184.901C192.851 185.07 192.355 185.154 191.798 185.154ZM201.899 180.54V181.828H197.763V180.54H201.899ZM198.181 177.364V185H196.724V177.364H198.181ZM202.938 177.364V185H201.487V177.364H202.938ZM206.384 182.917L209.749 177.364H211.35V185H209.894V179.442L206.543 185H204.927V177.364H206.384V182.917ZM214.806 182.917L218.171 177.364H219.772V185H218.316V179.442L214.965 185H213.349V177.364H214.806V182.917ZM217.535 174.778H218.758C218.758 175.339 218.559 175.794 218.161 176.146C217.767 176.494 217.233 176.668 216.561 176.668C215.891 176.668 215.359 176.494 214.965 176.146C214.57 175.794 214.373 175.339 214.373 174.778H215.591C215.591 175.027 215.664 175.247 215.81 175.44C215.956 175.629 216.206 175.723 216.561 175.723C216.909 175.723 217.157 175.629 217.306 175.44C217.459 175.251 217.535 175.03 217.535 174.778Z" fill="black"/>
<defs>
<filter id="filter0_f_33_2208" x="-160.947" y="426.904" width="602.764" height="436.386" filterUnits="userSpaceOnUse" color-interpolation-filters="sRGB">
<feFlood flood-opacity="0" result="BackgroundImageFix"/>
<feBlend mode="normal" in="SourceGraphic" in2="BackgroundImageFix" result="shape"/>
<feGaussianBlur stdDeviation="27.7091" result="effect1_foregroundBlur_33_2208"/>
</filter>
<filter id="filter1_f_33_2208" x="-153.257" y="390.565" width="338.279" height="275.422" filterUnits="userSpaceOnUse" color-interpolation-filters="sRGB">
<feFlood flood-opacity="0" result="BackgroundImageFix"/>
<feBlend mode="normal" in="SourceGraphic" in2="BackgroundImageFix" result="shape"/>
<feGaussianBlur stdDeviation="1.10836" result="effect1_foregroundBlur_33_2208"/>
</filter>
<filter id="filter2_f_33_2208" x="-180.173" y="385.245" width="390.608" height="355.308" filterUnits="userSpaceOnUse" color-interpolation-filters="sRGB">
<feFlood flood-opacity="0" result="BackgroundImageFix"/>
<feBlend mode="normal" in="SourceGraphic" in2="BackgroundImageFix" result="shape"/>
<feGaussianBlur stdDeviation="3.87927" result="effect1_foregroundBlur_33_2208"/>
</filter>
<filter id="filter3_f_33_2208" x="-217.017" y="387.381" width="495.099" height="442.101" filterUnits="userSpaceOnUse" color-interpolation-filters="sRGB">
<feFlood flood-opacity="0" result="BackgroundImageFix"/>
<feBlend mode="normal" in="SourceGraphic" in2="BackgroundImageFix" result="shape"/>
<feGaussianBlur stdDeviation="5.54182" result="effect1_foregroundBlur_33_2208"/>
</filter>
<filter id="filter4_f_33_2208" x="-205.7" y="408.998" width="558.726" height="423.763" filterUnits="userSpaceOnUse" color-interpolation-filters="sRGB">
<feFlood flood-opacity="0" result="BackgroundImageFix"/>
<feBlend mode="normal" in="SourceGraphic" in2="BackgroundImageFix" result="shape"/>
<feGaussianBlur stdDeviation="14.9629" result="effect1_foregroundBlur_33_2208"/>
</filter>
<filter id="filter5_f_33_2208" x="-208.902" y="401.279" width="664.014" height="520.706" filterUnits="userSpaceOnUse" color-interpolation-filters="sRGB">
<feFlood flood-opacity="0" result="BackgroundImageFix"/>
<feBlend mode="normal" in="SourceGraphic" in2="BackgroundImageFix" result="shape"/>
<feGaussianBlur stdDeviation="37.1302" result="effect1_foregroundBlur_33_2208"/>
</filter>
<filter id="filter6_f_33_2208" x="-240.162" y="419.654" width="519.585" height="439.438" filterUnits="userSpaceOnUse" color-interpolation-filters="sRGB">
<feFlood flood-opacity="0" result="BackgroundImageFix"/>
<feBlend mode="normal" in="SourceGraphic" in2="BackgroundImageFix" result="shape"/>
<feGaussianBlur stdDeviation="17.1796" result="effect1_foregroundBlur_33_2208"/>
</filter>
<filter id="filter7_f_33_2208" x="-115.646" y="415.224" width="520.292" height="404.309" filterUnits="userSpaceOnUse" color-interpolation-filters="sRGB">
<feFlood flood-opacity="0" result="BackgroundImageFix"/>
<feBlend mode="normal" in="SourceGraphic" in2="BackgroundImageFix" result="shape"/>
<feGaussianBlur stdDeviation="18.8422" result="effect1_foregroundBlur_33_2208"/>
</filter>
<filter id="filter8_f_33_2208" x="-144.534" y="605.932" width="259.53" height="278.007" filterUnits="userSpaceOnUse" color-interpolation-filters="sRGB">
<feFlood flood-opacity="0" result="BackgroundImageFix"/>
<feBlend mode="normal" in="SourceGraphic" in2="BackgroundImageFix" result="shape"/>
<feGaussianBlur stdDeviation="1.10836" result="effect1_foregroundBlur_33_2208"/>
</filter>
<filter id="filter9_f_33_2208" x="-150.234" y="580.174" width="335.151" height="322.159" filterUnits="userSpaceOnUse" color-interpolation-filters="sRGB">
<feFlood flood-opacity="0" result="BackgroundImageFix"/>
<feBlend mode="normal" in="SourceGraphic" in2="BackgroundImageFix" result="shape"/>
<feGaussianBlur stdDeviation="3.87927" result="effect1_foregroundBlur_33_2208"/>
</filter>
<filter id="filter10_f_33_2208" x="-133.726" y="514.631" width="456.131" height="418.37" filterUnits="userSpaceOnUse" color-interpolation-filters="sRGB">
<feFlood flood-opacity="0" result="BackgroundImageFix"/>
<feBlend mode="normal" in="SourceGraphic" in2="BackgroundImageFix" result="shape"/>
<feGaussianBlur stdDeviation="5.54182" result="effect1_foregroundBlur_33_2208"/>
</filter>
<filter id="filter11_f_33_2208" x="-132.84" y="445.933" width="434.008" height="526.681" filterUnits="userSpaceOnUse" color-interpolation-filters="sRGB">
<feFlood flood-opacity="0" result="BackgroundImageFix"/>
<feBlend mode="normal" in="SourceGraphic" in2="BackgroundImageFix" result="shape"/>
<feGaussianBlur stdDeviation="14.9629" result="effect1_foregroundBlur_33_2208"/>
</filter>
<filter id="filter12_f_33_2208" x="-162.664" y="348.522" width="526.972" height="602.746" filterUnits="userSpaceOnUse" color-interpolation-filters="sRGB">
<feFlood flood-opacity="0" result="BackgroundImageFix"/>
<feBlend mode="normal" in="SourceGraphic" in2="BackgroundImageFix" result="shape"/>
<feGaussianBlur stdDeviation="37.1302" result="effect1_foregroundBlur_33_2208"/>
</filter>
<filter id="filter13_f_33_2208" x="-115.652" y="503.502" width="444.584" height="445.036" filterUnits="userSpaceOnUse" color-interpolation-filters="sRGB">
<feFlood flood-opacity="0" result="BackgroundImageFix"/>
<feBlend mode="normal" in="SourceGraphic" in2="BackgroundImageFix" result="shape"/>
<feGaussianBlur stdDeviation="17.1796" result="effect1_foregroundBlur_33_2208"/>
</filter>
<filter id="filter14_f_33_2208" x="93.3885" y="603.034" width="291.912" height="286.03" filterUnits="userSpaceOnUse" color-interpolation-filters="sRGB">
<feFlood flood-opacity="0" result="BackgroundImageFix"/>
<feBlend mode="normal" in="SourceGraphic" in2="BackgroundImageFix" result="shape"/>
<feGaussianBlur stdDeviation="1.10836" result="effect1_foregroundBlur_33_2208"/>
</filter>
<filter id="filter15_f_33_2208" x="0.0302711" y="538.95" width="386.884" height="353.186" filterUnits="userSpaceOnUse" color-interpolation-filters="sRGB">
<feFlood flood-opacity="0" result="BackgroundImageFix"/>
<feBlend mode="normal" in="SourceGraphic" in2="BackgroundImageFix" result="shape"/>
<feGaussianBlur stdDeviation="3.87927" result="effect1_foregroundBlur_33_2208"/>
</filter>
<filter id="filter16_f_33_2208" x="-76.6483" y="446.911" width="474.052" height="444.982" filterUnits="userSpaceOnUse" color-interpolation-filters="sRGB">
<feFlood flood-opacity="0" result="BackgroundImageFix"/>
<feBlend mode="normal" in="SourceGraphic" in2="BackgroundImageFix" result="shape"/>
<feGaussianBlur stdDeviation="5.54182" result="effect1_foregroundBlur_33_2208"/>
</filter>
<filter id="filter17_f_33_2208" x="-124.575" y="490.674" width="542.914" height="409.81" filterUnits="userSpaceOnUse" color-interpolation-filters="sRGB">
<feFlood flood-opacity="0" result="BackgroundImageFix"/>
<feBlend mode="normal" in="SourceGraphic" in2="BackgroundImageFix" result="shape"/>
<feGaussianBlur stdDeviation="14.9629" result="effect1_foregroundBlur_33_2208"/>
</filter>
<filter id="filter18_f_33_2208" x="-237.199" y="387.395" width="664.78" height="544.744" filterUnits="userSpaceOnUse" color-interpolation-filters="sRGB">
<feFlood flood-opacity="0" result="BackgroundImageFix"/>
<feBlend mode="normal" in="SourceGraphic" in2="BackgroundImageFix" result="shape"/>
<feGaussianBlur stdDeviation="37.1302" result="effect1_foregroundBlur_33_2208"/>
</filter>
<filter id="filter19_f_33_2208" x="-52.3881" y="435.863" width="454.732" height="433.628" filterUnits="userSpaceOnUse" color-interpolation-filters="sRGB">
<feFlood flood-opacity="0" result="BackgroundImageFix"/>
<feBlend mode="normal" in="SourceGraphic" in2="BackgroundImageFix" result="shape"/>
<feGaussianBlur stdDeviation="17.1796" result="effect1_foregroundBlur_33_2208"/>
</filter>
<filter id="filter20_f_33_2208" x="-92.0003" y="473.79" width="493.907" height="371.433" filterUnits="userSpaceOnUse" color-interpolation-filters="sRGB">
<feFlood flood-opacity="0" result="BackgroundImageFix"/>
<feBlend mode="normal" in="SourceGraphic" in2="BackgroundImageFix" result="shape"/>
<feGaussianBlur stdDeviation="23.2756" result="effect1_foregroundBlur_33_2208"/>
</filter>
<filter id="filter21_f_33_2208" x="177.927" y="-120.572" width="373.297" height="498.391" filterUnits="userSpaceOnUse" color-interpolation-filters="sRGB">
<feFlood flood-opacity="0" result="BackgroundImageFix"/>
<feBlend mode="normal" in="SourceGraphic" in2="BackgroundImageFix" result="shape"/>
<feGaussianBlur stdDeviation="32.5845" result="effect1_foregroundBlur_33_2208"/>
</filter>
<filter id="filter22_f_33_2208" x="345.17" y="96.0564" width="208.933" height="254.166" filterUnits="userSpaceOnUse" color-interpolation-filters="sRGB">
<feFlood flood-opacity="0" result="BackgroundImageFix"/>
<feBlend mode="normal" in="SourceGraphic" in2="BackgroundImageFix" result="shape"/>
<feGaussianBlur stdDeviation="1.30338" result="effect1_foregroundBlur_33_2208"/>
</filter>
<filter id="filter23_f_33_2208" x="286.806" y="74.2913" width="273.687" height="297.762" filterUnits="userSpaceOnUse" color-interpolation-filters="sRGB">
<feFlood flood-opacity="0" result="BackgroundImageFix"/>
<feBlend mode="normal" in="SourceGraphic" in2="BackgroundImageFix" result="shape"/>
<feGaussianBlur stdDeviation="4.56183" result="effect1_foregroundBlur_33_2208"/>
</filter>
<filter id="filter24_f_33_2208" x="218.512" y="21.5095" width="341.603" height="378.511" filterUnits="userSpaceOnUse" color-interpolation-filters="sRGB">
<feFlood flood-opacity="0" result="BackgroundImageFix"/>
<feBlend mode="normal" in="SourceGraphic" in2="BackgroundImageFix" result="shape"/>
<feGaussianBlur stdDeviation="6.5169" result="effect1_foregroundBlur_33_2208"/>
</filter>
<filter id="filter25_f_33_2208" x="209.45" y="-43.071" width="343.329" height="443.129" filterUnits="userSpaceOnUse" color-interpolation-filters="sRGB">
<feFlood flood-opacity="0" result="BackgroundImageFix"/>
<feBlend mode="normal" in="SourceGraphic" in2="BackgroundImageFix" result="shape"/>
<feGaussianBlur stdDeviation="17.5956" result="effect1_foregroundBlur_33_2208"/>
</filter>
<filter id="filter26_f_33_2208" x="124.421" y="-138.956" width="453.801" height="559.828" filterUnits="userSpaceOnUse" color-interpolation-filters="sRGB">
<feFlood flood-opacity="0" result="BackgroundImageFix"/>
<feBlend mode="normal" in="SourceGraphic" in2="BackgroundImageFix" result="shape"/>
<feGaussianBlur stdDeviation="43.6632" result="effect1_foregroundBlur_33_2208"/>
</filter>
<filter id="filter27_f_33_2208" x="188.804" y="9.81947" width="357.189" height="417.685" filterUnits="userSpaceOnUse" color-interpolation-filters="sRGB">
<feFlood flood-opacity="0" result="BackgroundImageFix"/>
<feBlend mode="normal" in="SourceGraphic" in2="BackgroundImageFix" result="shape"/>
<feGaussianBlur stdDeviation="20.2024" result="effect1_foregroundBlur_33_2208"/>
</filter>
<filter id="filter28_f_33_2208" x="216.272" y="-85.8165" width="334.66" height="421.097" filterUnits="userSpaceOnUse" color-interpolation-filters="sRGB">
<feFlood flood-opacity="0" result="BackgroundImageFix"/>
<feBlend mode="normal" in="SourceGraphic" in2="BackgroundImageFix" result="shape"/>
<feGaussianBlur stdDeviation="22.1575" result="effect1_foregroundBlur_33_2208"/>
</filter>
<filter id="filter29_f_33_2208" x="182.839" y="144.427" width="209.582" height="196.87" filterUnits="userSpaceOnUse" color-interpolation-filters="sRGB">
<feFlood flood-opacity="0" result="BackgroundImageFix"/>
<feBlend mode="normal" in="SourceGraphic" in2="BackgroundImageFix" result="shape"/>
<feGaussianBlur stdDeviation="1.30338" result="effect1_foregroundBlur_33_2208"/>
</filter>
<filter id="filter30_f_33_2208" x="167.096" y="89.7181" width="247.353" height="258.249" filterUnits="userSpaceOnUse" color-interpolation-filters="sRGB">
<feFlood flood-opacity="0" result="BackgroundImageFix"/>
<feBlend mode="normal" in="SourceGraphic" in2="BackgroundImageFix" result="shape"/>
<feGaussianBlur stdDeviation="4.56183" result="effect1_foregroundBlur_33_2208"/>
</filter>
<filter id="filter31_f_33_2208" x="143.485" y="-14.5836" width="322.416" height="351.414" filterUnits="userSpaceOnUse" color-interpolation-filters="sRGB">
<feFlood flood-opacity="0" result="BackgroundImageFix"/>
<feBlend mode="normal" in="SourceGraphic" in2="BackgroundImageFix" result="shape"/>
<feGaussianBlur stdDeviation="6.5169" result="effect1_foregroundBlur_33_2208"/>
</filter>
<filter id="filter32_f_33_2208" x="105.048" y="-5.9592" width="420.445" height="351.018" filterUnits="userSpaceOnUse" color-interpolation-filters="sRGB">
<feFlood flood-opacity="0" result="BackgroundImageFix"/>
<feBlend mode="normal" in="SourceGraphic" in2="BackgroundImageFix" result="shape"/>
<feGaussianBlur stdDeviation="17.5956" result="effect1_foregroundBlur_33_2208"/>
</filter>
<filter id="filter33_f_33_2208" x="101.228" y="-69.7974" width="516.544" height="454.232" filterUnits="userSpaceOnUse" color-interpolation-filters="sRGB">
<feFlood flood-opacity="0" result="BackgroundImageFix"/>
<feBlend mode="normal" in="SourceGraphic" in2="BackgroundImageFix" result="shape"/>
<feGaussianBlur stdDeviation="43.6632" result="effect1_foregroundBlur_33_2208"/>
</filter>
<filter id="filter34_f_33_2208" x="122.059" y="-28.9016" width="362.715" height="362.494" filterUnits="userSpaceOnUse" color-interpolation-filters="sRGB">
<feFlood flood-opacity="0" result="BackgroundImageFix"/>
<feBlend mode="normal" in="SourceGraphic" in2="BackgroundImageFix" result="shape"/>
<feGaussianBlur stdDeviation="20.2024" result="effect1_foregroundBlur_33_2208"/>
</filter>
<filter id="filter35_f_33_2208" x="183.44" y="-56.9719" width="215.429" height="219.923" filterUnits="userSpaceOnUse" color-interpolation-filters="sRGB">
<feFlood flood-opacity="0" result="BackgroundImageFix"/>
<feBlend mode="normal" in="SourceGraphic" in2="BackgroundImageFix" result="shape"/>
<feGaussianBlur stdDeviation="1.30338" result="effect1_foregroundBlur_33_2208"/>
</filter>
<filter id="filter36_f_33_2208" x="178.118" y="-61.0009" width="270.309" height="296.656" filterUnits="userSpaceOnUse" color-interpolation-filters="sRGB">
<feFlood flood-opacity="0" result="BackgroundImageFix"/>
<feBlend mode="normal" in="SourceGraphic" in2="BackgroundImageFix" result="shape"/>
<feGaussianBlur stdDeviation="4.56183" result="effect1_foregroundBlur_33_2208"/>
</filter>
<filter id="filter37_f_33_2208" x="176.52" y="-69.961" width="342.087" height="364.355" filterUnits="userSpaceOnUse" color-interpolation-filters="sRGB">
<feFlood flood-opacity="0" result="BackgroundImageFix"/>
<feBlend mode="normal" in="SourceGraphic" in2="BackgroundImageFix" result="shape"/>
<feGaussianBlur stdDeviation="6.5169" result="effect1_foregroundBlur_33_2208"/>
</filter>
<filter id="filter38_f_33_2208" x="161.57" y="-93.2983" width="331.453" height="431.656" filterUnits="userSpaceOnUse" color-interpolation-filters="sRGB">
<feFlood flood-opacity="0" result="BackgroundImageFix"/>
<feBlend mode="normal" in="SourceGraphic" in2="BackgroundImageFix" result="shape"/>
<feGaussianBlur stdDeviation="17.5956" result="effect1_foregroundBlur_33_2208"/>
</filter>
<filter id="filter39_f_33_2208" x="117.215" y="-116.519" width="473.5" height="558.473" filterUnits="userSpaceOnUse" color-interpolation-filters="sRGB">
<feFlood flood-opacity="0" result="BackgroundImageFix"/>
<feBlend mode="normal" in="SourceGraphic" in2="BackgroundImageFix" result="shape"/>
<feGaussianBlur stdDeviation="43.6632" result="effect1_foregroundBlur_33_2208"/>
</filter>
<filter id="filter40_f_33_2208" x="183.017" y="-83.2524" width="353.215" height="370.455" filterUnits="userSpaceOnUse" color-interpolation-filters="sRGB">
<feFlood flood-opacity="0" result="BackgroundImageFix"/>
<feBlend mode="normal" in="SourceGraphic" in2="BackgroundImageFix" result="shape"/>
<feGaussianBlur stdDeviation="20.2024" result="effect1_foregroundBlur_33_2208"/>
</filter>
<filter id="filter41_f_33_2208" x="197.483" y="-88.3398" width="314.814" height="409.708" filterUnits="userSpaceOnUse" color-interpolation-filters="sRGB">
<feFlood flood-opacity="0" result="BackgroundImageFix"/>
<feBlend mode="normal" in="SourceGraphic" in2="BackgroundImageFix" result="shape"/>
<feGaussianBlur stdDeviation="27.371" result="effect1_foregroundBlur_33_2208"/>
</filter>
<linearGradient id="paint0_linear_33_2208" x1="558" y1="20" x2="12" y2="20" gradientUnits="userSpaceOnUse">
<stop stop-color="#6A11CB"/>
<stop offset="1" stop-color="#2575FC"/>
</linearGradient>
<linearGradient id="paint1_linear_33_2208" x1="558" y1="20" x2="12" y2="20" gradientUnits="userSpaceOnUse">
<stop stop-color="#6A11CB"/>
<stop offset="1" stop-color="#2575FC"/>
</linearGradient>
<linearGradient id="paint2_linear_33_2208" x1="140.434" y1="398.684" x2="140.434" y2="891.511" gradientUnits="userSpaceOnUse">
<stop stop-color="#0239FE"/>
<stop offset="1" stop-color="#0285FE"/>
</linearGradient>
<linearGradient id="paint3_linear_33_2208" x1="18.2576" y1="563.847" x2="-183.041" y2="703.327" gradientUnits="userSpaceOnUse">
<stop stop-color="#C4C4C4"/>
<stop offset="1" stop-color="#C4C4C4" stop-opacity="0"/>
</linearGradient>
<linearGradient id="paint4_linear_33_2208" x1="31.9486" y1="398.128" x2="15.0557" y2="742.691" gradientUnits="userSpaceOnUse">
<stop stop-color="#C4C4C4"/>
<stop offset="1" stop-color="#C4C4C4" stop-opacity="0"/>
</linearGradient>
<linearGradient id="paint5_linear_33_2208" x1="-148.122" y1="534.184" x2="181.016" y2="560.845" gradientUnits="userSpaceOnUse">
<stop stop-color="#0239FE"/>
<stop offset="1" stop-color="#0285FE"/>
</linearGradient>
<linearGradient id="paint6_linear_33_2208" x1="-147.784" y1="517.963" x2="181.22" y2="544.612" gradientUnits="userSpaceOnUse">
<stop stop-color="#0239FE"/>
<stop offset="1" stop-color="#0285FE"/>
</linearGradient>
<linearGradient id="paint7_linear_33_2208" x1="-168.284" y1="551.528" x2="200.466" y2="581.397" gradientUnits="userSpaceOnUse">
<stop stop-color="#0239FE"/>
<stop offset="1" stop-color="#0285FE"/>
</linearGradient>
<linearGradient id="paint8_linear_33_2208" x1="-199.688" y1="596.242" x2="265.113" y2="633.891" gradientUnits="userSpaceOnUse">
<stop stop-color="#0239FE"/>
<stop offset="1" stop-color="#0285FE"/>
</linearGradient>
<linearGradient id="paint9_linear_33_2208" x1="-172.582" y1="604.603" x2="323.132" y2="644.756" gradientUnits="userSpaceOnUse">
<stop stop-color="#0239FE"/>
<stop offset="1" stop-color="#0285FE"/>
</linearGradient>
<linearGradient id="paint10_linear_33_2208" x1="-131.388" y1="644.811" x2="380.887" y2="686.306" gradientUnits="userSpaceOnUse">
<stop stop-color="#0239FE"/>
<stop offset="1" stop-color="#0285FE"/>
</linearGradient>
<linearGradient id="paint11_linear_33_2208" x1="-202.953" y1="622.837" x2="245.288" y2="659.145" gradientUnits="userSpaceOnUse">
<stop stop-color="#0239FE"/>
<stop offset="1" stop-color="#0285FE"/>
</linearGradient>
<linearGradient id="paint12_linear_33_2208" x1="-47.6883" y1="624.419" x2="-12.8197" y2="860.227" gradientUnits="userSpaceOnUse">
<stop stop-color="#C4C4C4"/>
<stop offset="0.943414" stop-color="#C4C4C4" stop-opacity="0"/>
</linearGradient>
<linearGradient id="paint13_linear_33_2208" x1="-69.4752" y1="744.146" x2="206.668" y2="755.126" gradientUnits="userSpaceOnUse">
<stop stop-color="#C4C4C4"/>
<stop offset="1" stop-color="#C4C4C4" stop-opacity="0"/>
</linearGradient>
<linearGradient id="paint14_linear_33_2208" x1="300.611" y1="877.993" x2="-26.4341" y2="527.832" gradientUnits="userSpaceOnUse">
<stop stop-color="#C4C4C4"/>
<stop offset="1" stop-color="#C4C4C4" stop-opacity="0"/>
</linearGradient>
<linearGradient id="paint15_linear_33_2208" x1="-36.3903" y1="657.134" x2="349.933" y2="688.427" gradientUnits="userSpaceOnUse">
<stop offset="0.213542" stop-color="#0073FB"/>
<stop offset="0.567708" stop-color="#65FFED"/>
<stop offset="0.9375" stop-color="#DE58FF"/>
</linearGradient>
<linearGradient id="paint16_linear_33_2208" x1="423.601" y1="221.086" x2="316.526" y2="369.606" gradientUnits="userSpaceOnUse">
<stop stop-color="#C4C4C4"/>
<stop offset="1" stop-color="#C4C4C4" stop-opacity="0"/>
</linearGradient>
<linearGradient id="paint17_linear_33_2208" x1="547.668" y1="213.169" x2="289.872" y2="220.98" gradientUnits="userSpaceOnUse">
<stop stop-color="#C4C4C4"/>
<stop offset="1" stop-color="#C4C4C4" stop-opacity="0"/>
</linearGradient>
<linearGradient id="paint18_linear_33_2208" x1="377.403" y1="269.533" x2="201.624" y2="240.173" gradientUnits="userSpaceOnUse">
<stop stop-color="#C4C4C4"/>
<stop offset="0.943414" stop-color="#C4C4C4" stop-opacity="0"/>
</linearGradient>
<linearGradient id="paint19_linear_33_2208" x1="287.603" y1="284.145" x2="283.256" y2="77.5755" gradientUnits="userSpaceOnUse">
<stop stop-color="#C4C4C4"/>
<stop offset="1" stop-color="#C4C4C4" stop-opacity="0"/>
</linearGradient>
<linearGradient id="paint20_linear_33_2208" x1="193.703" y1="5.78236" x2="450.875" y2="255.143" gradientUnits="userSpaceOnUse">
<stop stop-color="#C4C4C4"/>
<stop offset="1" stop-color="#C4C4C4" stop-opacity="0"/>
</linearGradient>
</defs>
</svg>
