<svg width="1288" height="962" viewBox="0 0 1288 962" fill="none" xmlns="http://www.w3.org/2000/svg">
<g clip-path="url(#clip0_23_90)">
<mask id="mask0_23_90" style="mask-type:alpha" maskUnits="userSpaceOnUse" x="0" y="-737" width="1440" height="1818">
<rect y="-737" width="1440" height="1818" fill="#1A00BC"/>
</mask>
<g mask="url(#mask0_23_90)">
<g opacity="0.6" filter="url(#filter0_f_23_90)">
<ellipse cx="664.5" cy="689.387" rx="578.5" ry="367.792" fill="#308FFF" fill-opacity="0.9"/>
</g>
<g filter="url(#filter1_f_23_90)">
<ellipse cx="278.741" cy="444.51" rx="278.741" ry="444.51" transform="matrix(0.0847047 -0.996406 0.997035 0.0769507 23.4019 1155.44)" fill="url(#paint0_linear_23_90)"/>
</g>
<mask id="mask1_23_90" style="mask-type:alpha" maskUnits="userSpaceOnUse" x="-372" y="363" width="1550" height="850">
<path d="M1177.99 1212.29L985.419 424.215L210.583 363.374L-52.8022 392.931L-371.023 791.349L-265.724 1133.08L533.821 1194.79L1177.99 1212.29Z" fill="url(#paint1_linear_23_90)"/>
</mask>
<g mask="url(#mask1_23_90)">
</g>
<mask id="mask2_23_90" style="mask-type:alpha" maskUnits="userSpaceOnUse" x="-345" y="310" width="1458" height="942">
<path d="M-344.968 1144.63C-313.864 785.933 -274.109 328.36 -274.048 310.382L1112.52 417.396L1041.6 1251.64L-344.968 1144.63Z" fill="url(#paint2_linear_23_90)"/>
</mask>
<g mask="url(#mask2_23_90)">
<path d="M298.977 469.387C455.364 481.457 575.928 620.086 566.136 735.272C556.344 850.457 480.188 996.732 312.398 983.782C229.25 977.365 121.747 1046.57 27.8367 981.587C-67.761 915.435 -31.5398 760.101 -26.6002 701.996C-16.8082 586.81 142.59 457.317 298.977 469.387Z" fill="url(#paint3_linear_23_90)"/>
<g filter="url(#filter2_f_23_90)">
<path d="M296.264 479.107C463.985 492.052 574.631 611.754 566.214 710.764C557.797 809.774 483.471 934.823 315.75 921.878C232.636 915.463 125.875 976.435 31.3195 919.509C-64.9342 861.561 -30.5978 728.287 -26.3519 678.342C-17.935 579.332 128.543 466.163 296.264 479.107Z" fill="url(#paint4_linear_23_90)"/>
</g>
<g filter="url(#filter3_f_23_90)">
<path d="M301.345 479.501C489.328 494.01 612.288 640.55 601.911 762.617C591.534 884.684 506.992 1039.4 319.009 1024.89C225.854 1017.7 104.574 1105.12 -0.934349 1035.79C-108.338 965.215 -99.6892 790.383 -94.4545 728.806C-84.0776 606.739 113.362 464.993 301.345 479.501Z" fill="url(#paint5_linear_23_90)"/>
</g>
<g filter="url(#filter4_f_23_90)">
<path d="M321.811 495.632C551.357 543.487 730.145 716.646 718 859.509C705.856 1002.37 574.928 1147.72 349.48 1130.32C237.759 1121.7 80.904 1266.32 -45.7814 1184.94C-174.743 1102.09 -242.626 920.101 -236.5 848.033C-224.355 705.169 55.8956 440.195 321.811 495.632Z" fill="url(#paint6_linear_23_90)"/>
</g>
<g filter="url(#filter5_f_23_90)">
<path d="M395.092 559.485C637.84 578.22 831.173 778.415 819.299 918.094C807.425 1057.77 667.75 1198.98 425.001 1180.25C304.707 1170.96 154.117 1213 17.1109 1132.41C-122.356 1050.38 -419.49 781.762 -413.5 711.301C-403.687 595.87 -71.6528 477.965 197 506.659C253.433 512.687 352.952 556.233 395.092 559.485Z" fill="url(#paint7_linear_23_90)"/>
</g>
<g filter="url(#filter6_f_23_90)">
<path d="M484.833 622.531C735.691 641.892 935.648 846.823 923.503 989.687C911.359 1132.55 767.154 1276.88 516.295 1257.52C391.983 1247.92 236.409 1290.79 94.7635 1208.25C-49.4269 1124.23 1.32384 932.018 7.45033 859.95C19.5952 717.087 233.974 603.17 484.833 622.531Z" fill="url(#paint8_linear_23_90)"/>
</g>
<g filter="url(#filter7_f_23_90)">
<path d="M298.084 585.251C517.585 602.191 690.547 805.039 678.402 947.902C666.258 1090.77 538.437 1236.36 318.936 1219.42C210.163 1211.02 74.8607 1238.83 -48.3234 1157.71C-173.72 1075.14 -127.243 882.599 -121.117 810.532C-108.972 667.668 78.5831 568.31 298.084 585.251Z" fill="url(#paint9_linear_23_90)"/>
</g>
</g>
<g filter="url(#filter8_f_23_90)">
<path d="M99.5256 1050.38C84.8517 1005.24 119.619 903.68 164.612 797.122L176.644 655.588C187.11 532.467 389.82 581.701 554.683 666.234C719.546 750.767 715.512 746.981 701.012 866.315C686.511 985.65 774.898 932.244 873.27 991.956C971.641 1051.67 764.473 942.268 640.892 1025.39C517.312 1108.51 592.365 1132.43 422.484 1042.87C252.603 953.319 256.405 994.155 247.279 1037.46C238.153 1080.76 290.08 1084.78 281.247 1124.63C272.414 1164.49 251.261 1144.33 181.719 1116.95C112.178 1089.58 114.199 1095.52 99.5256 1050.38Z" fill="#120ECF"/>
</g>
<mask id="mask3_23_90" style="mask-type:alpha" maskUnits="userSpaceOnUse" x="-170" y="301" width="906" height="1272">
<path d="M624.061 301.155L-169.102 556.186L-128.109 1162.93L-61.9892 1365.83L394.78 1572.84L735.787 1445.14L692.455 809.24L624.061 301.155Z" fill="url(#paint10_linear_23_90)"/>
</mask>
<g mask="url(#mask3_23_90)">
<mask id="mask4_23_90" style="mask-type:alpha" maskUnits="userSpaceOnUse" x="-156" y="367" width="880" height="1187">
<path d="M723.768 1503.17C346.792 1526 -64.6771 1550.78 -83.3708 1553.1L-155.708 417.279L651.43 367.345L723.768 1503.17Z" fill="url(#paint11_linear_23_90)"/>
</mask>
<g mask="url(#mask4_23_90)">
<path d="M-29.8913 1089.21C-38.3668 964.826 89.506 851.9 210.535 844.412C331.564 836.925 493.824 877.448 502.917 1010.9C507.424 1077.03 593.8 1152.32 538.884 1234.61C482.981 1318.39 316.673 1310.41 255.62 1314.19C134.591 1321.68 -21.4158 1213.58 -29.8913 1089.21Z" fill="#02EFFE"/>
<g filter="url(#filter9_f_23_90)">
<path d="M-19.4236 1090.05C-28.5133 956.66 69.7898 854.709 163.753 848.896C257.716 843.083 384.455 885.783 393.544 1019.18C398.049 1085.28 468.774 1161.5 427.334 1242.94C385.149 1325.83 255.757 1315.58 208.357 1318.51C114.394 1324.32 -10.3338 1223.45 -19.4236 1090.05Z" fill="#02EFFE"/>
</g>
<g filter="url(#filter10_f_23_90)">
<path d="M-19.698 1086.02C-29.8859 936.508 92.239 821.502 208.263 814.324C324.287 807.146 480.392 854.135 490.58 1003.64C495.629 1077.73 593.144 1162.04 541.364 1253.63C488.655 1346.88 319.21 1336.9 260.681 1340.52C144.657 1347.7 -9.51018 1235.52 -19.698 1086.02Z" fill="#02EFFE"/>
</g>
<g filter="url(#filter11_f_23_90)">
<path d="M17.019 1066.36C35.9017 879.823 191.835 716.631 341.946 707.345C492.057 698.058 660.72 781.708 672.938 961.013C678.993 1049.87 850.381 1153.97 782.822 1264.16C714.05 1376.33 439.16 1382.65 363.437 1387.33C213.326 1396.62 -4.85558 1282.45 17.019 1066.36Z" fill="#02EFFE"/>
</g>
<g filter="url(#filter12_f_23_90)">
<path d="M51.7692 1015.65C38.6133 822.589 219.752 630.626 366.516 621.547C513.281 612.467 678.815 703.53 691.971 896.595C698.491 992.269 762.417 1104.97 697.077 1223.16C630.563 1343.47 330.093 1418.72 256.057 1423.3C109.292 1432.38 64.9251 1208.72 51.7692 1015.65Z" fill="#02EFFE"/>
</g>
<g filter="url(#filter13_f_23_90)">
<path d="M104.292 923.099C90.6966 723.584 276.806 539.585 426.917 530.298C577.028 521.012 746.41 615.221 760.005 814.736C766.743 913.606 573.723 1073.79 506.975 1195.88C439.028 1320.17 232.442 1305.64 156.719 1310.33C6.60772 1319.61 117.887 1122.61 104.292 923.099Z" fill="#02EFFE"/>
</g>
<g filter="url(#filter14_f_23_90)">
<path d="M90.6467 1074.64C78.7507 900.064 266.323 737.535 416.434 728.248C566.545 718.962 735.039 800.14 746.935 974.716C752.83 1061.23 799.918 1163.8 732.17 1271.2C663.204 1380.54 456.85 1369.41 381.127 1374.1C231.016 1383.39 102.543 1249.22 90.6467 1074.64Z" fill="#02EFFE"/>
</g>
</g>
</g>
<mask id="mask5_23_90" style="mask-type:alpha" maskUnits="userSpaceOnUse" x="-365" y="155" width="1765" height="1456">
<path d="M1073.06 155.719C1179.1 497.846 1392.9 1186.25 1399.72 1202.85L-38.0321 1610.05L-364.692 562.921L1073.06 155.719Z" fill="url(#paint12_linear_23_90)"/>
</mask>
<g mask="url(#mask5_23_90)">
<path d="M781.233 1328.28C621.223 1339.37 444.53 1290.36 410.28 1180.56C376.029 1070.77 396.724 908.094 570.707 858.819C656.924 834.4 631.294 761.781 750.783 787.444C872.419 813.568 895.423 970.028 912.701 1025.41C946.951 1135.21 941.243 1317.19 781.233 1328.28Z" fill="#308FFF"/>
<g filter="url(#filter15_f_23_90)">
<path d="M760.429 1327.16C491.211 1318.82 449.027 1297.56 419.587 1203.19C390.146 1108.81 417.126 966.379 591.038 917.123C677.22 892.715 651.931 828.545 768.984 846.542C888.139 864.862 905.429 1002.97 920.28 1050.58C949.721 1144.95 895.361 1337.57 760.429 1327.16Z" fill="#308FFF"/>
</g>
<g filter="url(#filter16_f_23_90)">
<path d="M774.974 1319.81C464.346 1345.88 293.129 1221.74 256.832 1105.38C220.535 989.033 353.381 878.522 548.303 823.316C644.896 795.959 551.805 722.584 684.641 748.022C819.863 773.917 871.011 958.32 889.321 1017.01C925.618 1133.37 969.896 1264.61 774.974 1319.81Z" fill="#308FFF"/>
</g>
<g filter="url(#filter17_f_23_90)">
<path d="M748.18 1312.41C474.712 1339.41 167.789 1249.08 125.308 1112.9C82.8272 976.725 243.459 803.419 477.229 737.211C593.073 704.401 513.909 565.293 672.696 594.125C834.336 623.475 860.417 818.223 881.846 886.917C924.327 1023.09 1021.65 1285.41 748.18 1312.41Z" fill="#308FFF"/>
</g>
<g filter="url(#filter18_f_23_90)">
<path d="M542.594 1297.88C124.325 1265.6 116.851 1256.73 75.317 1123.59C33.7833 990.452 130.322 790.012 382.031 718.723C506.765 683.395 544.759 698.53 713.636 722.859C885.548 747.624 910.953 974.968 931.905 1042.13C973.438 1175.27 785.157 1316.6 542.594 1297.88Z" fill="#308FFF"/>
</g>
<g filter="url(#filter19_f_23_90)">
<path d="M535.359 1254.86C275.241 1328.53 -4.67263 1212.5 -47.1534 1076.33C-89.6341 940.154 0.355711 754.447 260.474 680.777C389.375 644.269 606.223 577.312 780.523 601.751C957.954 626.628 825.199 948.67 846.628 1017.36C889.109 1153.54 795.477 1181.19 535.359 1254.86Z" fill="#308FFF"/>
</g>
<g filter="url(#filter20_f_23_90)">
<path d="M737.758 1221.1C510.155 1285.56 258.233 1161.6 215.752 1025.43C173.271 889.254 246.272 708.36 473.876 643.898C586.664 611.954 497.474 597.791 652.631 627.651C810.575 658.047 837.496 852.558 858.925 921.252C901.406 1057.43 965.362 1156.63 737.758 1221.1Z" fill="#308FFF"/>
</g>
</g>
<g opacity="0.6" filter="url(#filter21_f_23_90)">
<path d="M475.576 695.653C668.077 710.51 876.169 893.101 868.237 986.397C860.306 1079.69 985.278 1303.12 525.166 1080.02C332.665 1065.16 89.1121 1228.56 171.132 932.594C179.063 839.299 371.054 957.47 475.576 695.653Z" fill="url(#paint13_linear_23_90)"/>
</g>
<mask id="mask6_23_90" style="mask-type:alpha" maskUnits="userSpaceOnUse" x="156" y="-414" width="1895" height="2037">
<path d="M2050.44 -2.99085L864.814 -413.904L232.757 562.385L156.798 876.158L705.472 1543.54L1264.27 1622.17L1721.19 757.078L2050.44 -2.99085Z" fill="url(#paint14_linear_23_90)"/>
</mask>
<g mask="url(#mask6_23_90)">
<mask id="mask7_23_90" style="mask-type:alpha" maskUnits="userSpaceOnUse" x="309" y="-490" width="2039" height="2156">
<path d="M1486.69 1665.77C964.755 1423.68 336.333 1062.57 309.489 1052.13L1132.38 -489.411L2347.36 -35.0056L1486.69 1665.77Z" fill="url(#paint15_linear_23_90)"/>
</mask>
<g mask="url(#mask7_23_90)">
<path d="M815.302 579.108C904.673 409.9 1166.87 354.102 1334.56 431.622C1502.26 509.141 1686.15 679.368 1590.26 860.913C1542.74 950.877 1597.15 1111.93 1457.19 1180.21C1314.71 1249.72 1099.06 1119.25 1014.47 1080.15C846.771 1002.63 725.93 748.315 815.302 579.108Z" fill="#308FFF"/>
<g filter="url(#filter22_f_23_90)">
<path d="M828.594 587.774C924.443 406.302 1138.26 343.558 1268.45 403.742C1398.65 463.925 1533.34 611.373 1437.49 792.845C1389.99 882.772 1422.74 1033.76 1301.47 1110.63C1178.03 1188.88 1013.52 1082.07 947.848 1051.71C817.655 991.525 732.746 769.245 828.594 587.774Z" fill="#308FFF"/>
</g>
<g filter="url(#filter23_f_23_90)">
<path d="M831.496 582.281C938.924 378.887 1195.12 316.215 1355.88 390.529C1516.65 464.843 1687.08 639.106 1579.66 842.5C1526.42 943.291 1588.4 1124.2 1445.1 1206.95C1299.22 1291.17 1081.01 1155.81 999.909 1118.33C839.148 1044.01 724.068 785.675 831.496 582.281Z" fill="#308FFF"/>
</g>
<g filter="url(#filter24_f_23_90)">
<path d="M896.446 583.001C1072.67 352.034 1413.03 250.575 1621.02 346.722C1829.01 442.869 1986.54 674.264 1857.71 918.195C1793.86 1039.07 1938.47 1299.26 1759.04 1394.99C1576.39 1492.45 1204.16 1302.36 1099.24 1253.86C891.253 1157.71 692.297 850.563 896.446 583.001Z" fill="#308FFF"/>
</g>
<g filter="url(#filter25_f_23_90)">
<path d="M983.902 541.592C1122.63 278.943 1519.94 157.947 1723.29 251.95C1926.65 345.954 2074 584.813 1935.27 847.462C1866.53 977.618 1860.67 1171.53 1677.73 1279.35C1491.5 1389.11 1029.3 1270.96 926.719 1223.54C723.365 1129.53 845.176 804.242 983.902 541.592Z" fill="#308FFF"/>
</g>
<g filter="url(#filter26_f_23_90)">
<path d="M1128.97 458.131C1272.33 186.708 1669.84 79.7416 1877.83 175.888C2085.82 272.035 2235.76 517.796 2092.4 789.22C2021.36 923.724 1633.9 994.481 1445.92 1106.4C1254.57 1220.34 990.432 1052.22 885.51 1003.71C677.52 907.568 985.613 729.555 1128.97 458.131Z" fill="#308FFF"/>
</g>
</g>
</g>
<mask id="mask8_23_90" style="mask-type:alpha" maskUnits="userSpaceOnUse" x="481" y="-41" width="1188" height="1446">
<path d="M865.637 -40.7643C1210.59 64.8289 1650.62 199.596 1668.21 203.566L1284.02 1404.57L481.442 1160.24L865.637 -40.7643Z" fill="url(#paint16_linear_23_90)"/>
</mask>
<g mask="url(#mask8_23_90)">
<path d="M1348.45 719.899C1305.12 855.356 1145.08 931.616 1034.27 897.881C923.458 864.146 795.578 765.041 842.07 619.707C865.108 547.687 819.007 437.69 901.561 368.923C985.598 298.921 1130.4 364.737 1186.3 381.755C1297.11 415.49 1391.78 584.441 1348.45 719.899Z" fill="#02EFFE"/>
<g filter="url(#filter27_f_23_90)">
<path d="M1339.48 715.385C1293.01 860.66 1153.5 932.285 1058.25 903.288C963.001 874.29 855.535 781.425 902.008 636.15C925.038 564.159 886.85 456.611 961.644 385.52C1037.78 313.151 1161.36 372.498 1209.41 387.126C1304.66 416.124 1385.95 570.11 1339.48 715.385Z" fill="#02EFFE"/>
</g>
<g filter="url(#filter28_f_23_90)">
<path d="M1338.07 719.786C1285.98 882.611 1117.72 959.264 1000.29 923.514C882.854 887.763 748.397 779.415 800.484 616.59C826.295 535.902 765.141 409.774 854.286 331.713C945.033 252.25 1108.03 326.222 1167.27 344.256C1284.7 380.007 1390.16 556.961 1338.07 719.786Z" fill="#02EFFE"/>
</g>
<g filter="url(#filter29_f_23_90)">
<path d="M1318.15 734.344C1225.04 926.605 1019.46 1046.76 882.019 1004.91C744.579 963.073 628.64 815.807 691.108 620.53C722.064 523.762 612.064 353.761 717.284 259.628C824.394 163.803 1003.33 247.481 1072.66 268.588C1210.1 310.429 1426.02 511.621 1318.15 734.344Z" fill="#02EFFE"/>
</g>
<g filter="url(#filter30_f_23_90)">
<path d="M1240.86 785.142C1173.6 995.403 938.617 1122.51 804.242 1081.6C669.867 1040.69 559.744 886.603 627.006 676.341C660.337 572.146 649.525 430.022 756.041 326.602C864.471 221.323 1038.58 305.771 1106.36 326.408C1240.74 367.316 1308.12 574.88 1240.86 785.142Z" fill="#02EFFE"/>
</g>
<g filter="url(#filter31_f_23_90)">
<path d="M1161.04 850.648C1091.54 1067.93 850.582 1199.86 713.143 1158.01C575.704 1116.17 463.443 957.407 532.952 740.121C567.397 632.445 556.767 485.739 666.132 378.647C777.462 269.632 955.44 356.309 1024.77 377.416C1162.21 419.257 1230.55 633.362 1161.04 850.648Z" fill="#02EFFE"/>
</g>
<g filter="url(#filter32_f_23_90)">
<path d="M1235.18 693.873C1174.36 883.998 940.886 992.538 803.447 950.697C666.008 908.855 549.208 764.281 610.027 574.156C640.167 479.939 640.202 354.413 744.452 263.313C850.574 170.575 1029.74 253.552 1099.07 274.658C1236.51 316.5 1296 503.748 1235.18 693.873Z" fill="#02EFFE"/>
</g>
</g>
<mask id="mask9_23_90" style="mask-type:alpha" maskUnits="userSpaceOnUse" x="570" y="162" width="1419" height="1040">
<path d="M1988.86 415.883C1904.31 782.688 1811.87 1183.01 1808.95 1201.54L570.123 948.128L750.033 162.472L1988.86 415.883Z" fill="url(#paint17_linear_23_90)"/>
</mask>
<g mask="url(#mask9_23_90)">
<path d="M1293.12 996.761C1206.18 979.336 1152.34 880.567 1169.61 805.152C1186.88 729.738 1244.73 637.824 1338.02 656.519C1384.25 665.784 1451.92 626.62 1498.24 675.182C1545.39 724.616 1509.13 824.925 1500.42 862.967C1483.15 938.382 1380.06 1014.19 1293.12 996.761Z" fill="#308FFF"/>
<g filter="url(#filter33_f_23_90)">
<path d="M1295.64 990.511C1202.39 971.823 1150.62 893.141 1164.02 834.592C1177.43 776.043 1230.21 706.258 1323.45 724.946C1369.66 734.207 1435.08 704.79 1483.3 744.949C1532.39 785.829 1501.39 863.136 1494.63 892.672C1481.22 951.221 1388.89 1009.2 1295.64 990.511Z" fill="#308FFF"/>
</g>
<g filter="url(#filter34_f_23_90)">
<path d="M1292.82 989.945C1188.31 968.999 1131.98 873.368 1148.53 801.073C1165.09 728.777 1226.25 641.804 1330.76 662.75C1382.55 673.129 1458.47 628.789 1511.76 677.123C1566 726.325 1527.78 828.188 1519.43 864.657C1502.87 936.953 1397.33 1010.89 1292.82 989.945Z" fill="#308FFF"/>
</g>
<g filter="url(#filter35_f_23_90)">
<path d="M1286.12 963.905C1161.58 918.441 1078.43 793.365 1099.85 699.829C1121.27 606.293 1209.92 518.302 1335.26 543.422C1397.37 555.87 1500.56 469.929 1563.69 531.297C1627.95 593.768 1581.39 763.111 1570.58 810.295C1549.16 903.83 1430.4 1016.57 1286.12 963.905Z" fill="#308FFF"/>
</g>
<g filter="url(#filter36_f_23_90)">
<path d="M1257.75 933.425C1122.8 906.378 1024.57 760.649 1045.51 669.199C1066.45 577.748 1159.61 493.018 1294.57 520.066C1361.44 533.469 1450.64 514.843 1519.67 576.308C1589.94 638.877 1585.96 836.403 1575.39 882.536C1554.45 973.986 1392.71 960.473 1257.75 933.425Z" fill="#308FFF"/>
</g>
<g filter="url(#filter37_f_23_90)">
<path d="M1203.95 884.463C1064.48 856.512 972.641 709.189 994.06 615.654C1015.48 522.118 1111.51 435.606 1250.97 463.557C1320.09 477.408 1394.3 624.631 1465.75 687.666C1538.48 751.834 1490.26 875.595 1479.45 922.78C1458.03 1016.32 1343.41 912.415 1203.95 884.463Z" fill="#308FFF"/>
</g>
<g filter="url(#filter38_f_23_90)">
<path d="M1305.44 920.361C1183.41 895.903 1106.58 751.588 1127.99 658.053C1149.41 564.517 1236.33 476.179 1358.37 500.637C1418.84 512.757 1497.96 502.592 1559.14 563.57C1621.42 625.643 1575.58 749.881 1564.78 797.066C1543.36 890.601 1427.47 944.818 1305.44 920.361Z" fill="#308FFF"/>
</g>
</g>
</g>
</g>
<defs>
<filter id="filter0_f_23_90" x="-326" y="-90.4056" width="1981" height="1559.58" filterUnits="userSpaceOnUse" color-interpolation-filters="sRGB">
<feFlood flood-opacity="0" result="BackgroundImageFix"/>
<feBlend mode="normal" in="SourceGraphic" in2="BackgroundImageFix" result="shape"/>
<feGaussianBlur stdDeviation="206" result="effect1_foregroundBlur_23_90"/>
</filter>
<filter id="filter1_f_23_90" x="-53.6273" y="532.043" width="1087.66" height="759.732" filterUnits="userSpaceOnUse" color-interpolation-filters="sRGB">
<feFlood flood-opacity="0" result="BackgroundImageFix"/>
<feBlend mode="normal" in="SourceGraphic" in2="BackgroundImageFix" result="shape"/>
<feGaussianBlur stdDeviation="50" result="effect1_foregroundBlur_23_90"/>
</filter>
<filter id="filter2_f_23_90" x="-39.7483" y="474.091" width="610.411" height="473.923" filterUnits="userSpaceOnUse" color-interpolation-filters="sRGB">
<feFlood flood-opacity="0" result="BackgroundImageFix"/>
<feBlend mode="normal" in="SourceGraphic" in2="BackgroundImageFix" result="shape"/>
<feGaussianBlur stdDeviation="2" result="effect1_foregroundBlur_23_90"/>
</filter>
<filter id="filter3_f_23_90" x="-111.162" y="464.473" width="727.683" height="612.218" filterUnits="userSpaceOnUse" color-interpolation-filters="sRGB">
<feFlood flood-opacity="0" result="BackgroundImageFix"/>
<feBlend mode="normal" in="SourceGraphic" in2="BackgroundImageFix" result="shape"/>
<feGaussianBlur stdDeviation="7" result="effect1_foregroundBlur_23_90"/>
</filter>
<filter id="filter4_f_23_90" x="-256.881" y="468.123" width="995.465" height="761.751" filterUnits="userSpaceOnUse" color-interpolation-filters="sRGB">
<feFlood flood-opacity="0" result="BackgroundImageFix"/>
<feBlend mode="normal" in="SourceGraphic" in2="BackgroundImageFix" result="shape"/>
<feGaussianBlur stdDeviation="10" result="effect1_foregroundBlur_23_90"/>
</filter>
<filter id="filter5_f_23_90" x="-467.589" y="448.296" width="1341.41" height="788.818" filterUnits="userSpaceOnUse" color-interpolation-filters="sRGB">
<feFlood flood-opacity="0" result="BackgroundImageFix"/>
<feBlend mode="normal" in="SourceGraphic" in2="BackgroundImageFix" result="shape"/>
<feGaussianBlur stdDeviation="27" result="effect1_foregroundBlur_23_90"/>
</filter>
<filter id="filter6_f_23_90" x="-140.159" y="486.38" width="1198.19" height="907.914" filterUnits="userSpaceOnUse" color-interpolation-filters="sRGB">
<feFlood flood-opacity="0" result="BackgroundImageFix"/>
<feBlend mode="normal" in="SourceGraphic" in2="BackgroundImageFix" result="shape"/>
<feGaussianBlur stdDeviation="67" result="effect1_foregroundBlur_23_90"/>
</filter>
<filter id="filter7_f_23_90" x="-196.565" y="521.371" width="937.57" height="761.395" filterUnits="userSpaceOnUse" color-interpolation-filters="sRGB">
<feFlood flood-opacity="0" result="BackgroundImageFix"/>
<feBlend mode="normal" in="SourceGraphic" in2="BackgroundImageFix" result="shape"/>
<feGaussianBlur stdDeviation="31" result="effect1_foregroundBlur_23_90"/>
</filter>
<filter id="filter8_f_23_90" x="28.1182" y="513.47" width="938.846" height="701.563" filterUnits="userSpaceOnUse" color-interpolation-filters="sRGB">
<feFlood flood-opacity="0" result="BackgroundImageFix"/>
<feBlend mode="normal" in="SourceGraphic" in2="BackgroundImageFix" result="shape"/>
<feGaussianBlur stdDeviation="34" result="effect1_foregroundBlur_23_90"/>
</filter>
<filter id="filter9_f_23_90" x="-24.0093" y="844.383" width="468.312" height="478.368" filterUnits="userSpaceOnUse" color-interpolation-filters="sRGB">
<feFlood flood-opacity="0" result="BackgroundImageFix"/>
<feBlend mode="normal" in="SourceGraphic" in2="BackgroundImageFix" result="shape"/>
<feGaussianBlur stdDeviation="2" result="effect1_foregroundBlur_23_90"/>
</filter>
<filter id="filter10_f_23_90" x="-34.2946" y="799.624" width="604.768" height="555.223" filterUnits="userSpaceOnUse" color-interpolation-filters="sRGB">
<feFlood flood-opacity="0" result="BackgroundImageFix"/>
<feBlend mode="normal" in="SourceGraphic" in2="BackgroundImageFix" result="shape"/>
<feGaussianBlur stdDeviation="7" result="effect1_foregroundBlur_23_90"/>
</filter>
<filter id="filter11_f_23_90" x="-4.50647" y="686.649" width="823.071" height="721.209" filterUnits="userSpaceOnUse" color-interpolation-filters="sRGB">
<feFlood flood-opacity="0" result="BackgroundImageFix"/>
<feBlend mode="normal" in="SourceGraphic" in2="BackgroundImageFix" result="shape"/>
<feGaussianBlur stdDeviation="10" result="effect1_foregroundBlur_23_90"/>
</filter>
<filter id="filter12_f_23_90" x="-2.90808" y="566.929" width="783.15" height="910.64" filterUnits="userSpaceOnUse" color-interpolation-filters="sRGB">
<feFlood flood-opacity="0" result="BackgroundImageFix"/>
<feBlend mode="normal" in="SourceGraphic" in2="BackgroundImageFix" result="shape"/>
<feGaussianBlur stdDeviation="27" result="effect1_foregroundBlur_23_90"/>
</filter>
<filter id="filter13_f_23_90" x="-56.7239" y="395.673" width="950.901" height="1048.97" filterUnits="userSpaceOnUse" color-interpolation-filters="sRGB">
<feFlood flood-opacity="0" result="BackgroundImageFix"/>
<feBlend mode="normal" in="SourceGraphic" in2="BackgroundImageFix" result="shape"/>
<feGaussianBlur stdDeviation="67" result="effect1_foregroundBlur_23_90"/>
</filter>
<filter id="filter14_f_23_90" x="28.1082" y="665.534" width="802.234" height="771.02" filterUnits="userSpaceOnUse" color-interpolation-filters="sRGB">
<feFlood flood-opacity="0" result="BackgroundImageFix"/>
<feBlend mode="normal" in="SourceGraphic" in2="BackgroundImageFix" result="shape"/>
<feGaussianBlur stdDeviation="31" result="effect1_foregroundBlur_23_90"/>
</filter>
<filter id="filter15_f_23_90" x="405.311" y="839.402" width="526.744" height="492.161" filterUnits="userSpaceOnUse" color-interpolation-filters="sRGB">
<feFlood flood-opacity="0" result="BackgroundImageFix"/>
<feBlend mode="normal" in="SourceGraphic" in2="BackgroundImageFix" result="shape"/>
<feGaussianBlur stdDeviation="2" result="effect1_foregroundBlur_23_90"/>
</filter>
<filter id="filter16_f_23_90" x="236.851" y="728.747" width="698.117" height="608.569" filterUnits="userSpaceOnUse" color-interpolation-filters="sRGB">
<feFlood flood-opacity="0" result="BackgroundImageFix"/>
<feBlend mode="normal" in="SourceGraphic" in2="BackgroundImageFix" result="shape"/>
<feGaussianBlur stdDeviation="7" result="effect1_foregroundBlur_23_90"/>
</filter>
<filter id="filter17_f_23_90" x="98.4877" y="570.218" width="855.409" height="766.964" filterUnits="userSpaceOnUse" color-interpolation-filters="sRGB">
<feFlood flood-opacity="0" result="BackgroundImageFix"/>
<feBlend mode="normal" in="SourceGraphic" in2="BackgroundImageFix" result="shape"/>
<feGaussianBlur stdDeviation="10" result="effect1_foregroundBlur_23_90"/>
</filter>
<filter id="filter18_f_23_90" x="12.004" y="643.856" width="979.667" height="709.698" filterUnits="userSpaceOnUse" color-interpolation-filters="sRGB">
<feFlood flood-opacity="0" result="BackgroundImageFix"/>
<feBlend mode="normal" in="SourceGraphic" in2="BackgroundImageFix" result="shape"/>
<feGaussianBlur stdDeviation="27" result="effect1_foregroundBlur_23_90"/>
</filter>
<filter id="filter19_f_23_90" x="-191.22" y="462.511" width="1199.57" height="949.245" filterUnits="userSpaceOnUse" color-interpolation-filters="sRGB">
<feFlood flood-opacity="0" result="BackgroundImageFix"/>
<feBlend mode="normal" in="SourceGraphic" in2="BackgroundImageFix" result="shape"/>
<feGaussianBlur stdDeviation="67" result="effect1_foregroundBlur_23_90"/>
</filter>
<filter id="filter20_f_23_90" x="142.265" y="549.24" width="820.546" height="751.406" filterUnits="userSpaceOnUse" color-interpolation-filters="sRGB">
<feFlood flood-opacity="0" result="BackgroundImageFix"/>
<feBlend mode="normal" in="SourceGraphic" in2="BackgroundImageFix" result="shape"/>
<feGaussianBlur stdDeviation="31" result="effect1_foregroundBlur_23_90"/>
</filter>
<filter id="filter21_f_23_90" x="70.7852" y="611.653" width="891.236" height="648.305" filterUnits="userSpaceOnUse" color-interpolation-filters="sRGB">
<feFlood flood-opacity="0" result="BackgroundImageFix"/>
<feBlend mode="normal" in="SourceGraphic" in2="BackgroundImageFix" result="shape"/>
<feGaussianBlur stdDeviation="42" result="effect1_foregroundBlur_23_90"/>
</filter>
<filter id="filter22_f_23_90" x="774.307" y="368.411" width="708.783" height="783.49" filterUnits="userSpaceOnUse" color-interpolation-filters="sRGB">
<feFlood flood-opacity="0" result="BackgroundImageFix"/>
<feBlend mode="normal" in="SourceGraphic" in2="BackgroundImageFix" result="shape"/>
<feGaussianBlur stdDeviation="6.58483" result="effect1_foregroundBlur_23_90"/>
</filter>
<filter id="filter23_f_23_90" x="743.568" y="314.273" width="915.803" height="965.898" filterUnits="userSpaceOnUse" color-interpolation-filters="sRGB">
<feFlood flood-opacity="0" result="BackgroundImageFix"/>
<feBlend mode="normal" in="SourceGraphic" in2="BackgroundImageFix" result="shape"/>
<feGaussianBlur stdDeviation="23.0469" result="effect1_foregroundBlur_23_90"/>
</filter>
<filter id="filter24_f_23_90" x="745.049" y="244.74" width="1225.13" height="1243.5" filterUnits="userSpaceOnUse" color-interpolation-filters="sRGB">
<feFlood flood-opacity="0" result="BackgroundImageFix"/>
<feBlend mode="normal" in="SourceGraphic" in2="BackgroundImageFix" result="shape"/>
<feGaussianBlur stdDeviation="32.9241" result="effect1_foregroundBlur_23_90"/>
</filter>
<filter id="filter25_f_23_90" x="641.05" y="42.5219" width="1526.35" height="1459.93" filterUnits="userSpaceOnUse" color-interpolation-filters="sRGB">
<feFlood flood-opacity="0" result="BackgroundImageFix"/>
<feBlend mode="normal" in="SourceGraphic" in2="BackgroundImageFix" result="shape"/>
<feGaussianBlur stdDeviation="88.8952" result="effect1_foregroundBlur_23_90"/>
</filter>
<filter id="filter26_f_23_90" x="374.341" y="-299.96" width="2215.87" height="1886.4" filterUnits="userSpaceOnUse" color-interpolation-filters="sRGB">
<feFlood flood-opacity="0" result="BackgroundImageFix"/>
<feBlend mode="normal" in="SourceGraphic" in2="BackgroundImageFix" result="shape"/>
<feGaussianBlur stdDeviation="220.592" result="effect1_foregroundBlur_23_90"/>
</filter>
<filter id="filter27_f_23_90" x="880.512" y="340.021" width="482.747" height="579.936" filterUnits="userSpaceOnUse" color-interpolation-filters="sRGB">
<feFlood flood-opacity="0" result="BackgroundImageFix"/>
<feBlend mode="normal" in="SourceGraphic" in2="BackgroundImageFix" result="shape"/>
<feGaussianBlur stdDeviation="5.15916" result="effect1_foregroundBlur_23_90"/>
</filter>
<filter id="filter28_f_23_90" x="752.833" y="259.524" width="635.013" height="708.74" filterUnits="userSpaceOnUse" color-interpolation-filters="sRGB">
<feFlood flood-opacity="0" result="BackgroundImageFix"/>
<feBlend mode="normal" in="SourceGraphic" in2="BackgroundImageFix" result="shape"/>
<feGaussianBlur stdDeviation="18.0571" result="effect1_foregroundBlur_23_90"/>
</filter>
<filter id="filter29_f_23_90" x="619.007" y="163.009" width="779.913" height="901.807" filterUnits="userSpaceOnUse" color-interpolation-filters="sRGB">
<feFlood flood-opacity="0" result="BackgroundImageFix"/>
<feBlend mode="normal" in="SourceGraphic" in2="BackgroundImageFix" result="shape"/>
<feGaussianBlur stdDeviation="25.7958" result="effect1_foregroundBlur_23_90"/>
</filter>
<filter id="filter30_f_23_90" x="467.382" y="135.522" width="939.144" height="1093" filterUnits="userSpaceOnUse" color-interpolation-filters="sRGB">
<feFlood flood-opacity="0" result="BackgroundImageFix"/>
<feBlend mode="normal" in="SourceGraphic" in2="BackgroundImageFix" result="shape"/>
<feGaussianBlur stdDeviation="69.6486" result="effect1_foregroundBlur_23_90"/>
</filter>
<filter id="filter31_f_23_90" x="166.096" y="-20.8862" width="1368.12" height="1532.28" filterUnits="userSpaceOnUse" color-interpolation-filters="sRGB">
<feFlood flood-opacity="0" result="BackgroundImageFix"/>
<feBlend mode="normal" in="SourceGraphic" in2="BackgroundImageFix" result="shape"/>
<feGaussianBlur stdDeviation="172.832" result="effect1_foregroundBlur_23_90"/>
</filter>
<filter id="filter32_f_23_90" x="433.581" y="60.3822" width="985.327" height="1059.17" filterUnits="userSpaceOnUse" color-interpolation-filters="sRGB">
<feFlood flood-opacity="0" result="BackgroundImageFix"/>
<feBlend mode="normal" in="SourceGraphic" in2="BackgroundImageFix" result="shape"/>
<feGaussianBlur stdDeviation="79.9669" result="effect1_foregroundBlur_23_90"/>
</filter>
<filter id="filter33_f_23_90" x="1154.87" y="714.795" width="362.693" height="286.345" filterUnits="userSpaceOnUse" color-interpolation-filters="sRGB">
<feFlood flood-opacity="0" result="BackgroundImageFix"/>
<feBlend mode="normal" in="SourceGraphic" in2="BackgroundImageFix" result="shape"/>
<feGaussianBlur stdDeviation="3.53048" result="effect1_foregroundBlur_23_90"/>
</filter>
<filter id="filter34_f_23_90" x="1120.96" y="629.354" width="444.045" height="388.914" filterUnits="userSpaceOnUse" color-interpolation-filters="sRGB">
<feFlood flood-opacity="0" result="BackgroundImageFix"/>
<feBlend mode="normal" in="SourceGraphic" in2="BackgroundImageFix" result="shape"/>
<feGaussianBlur stdDeviation="12.3567" result="effect1_foregroundBlur_23_90"/>
</filter>
<filter id="filter35_f_23_90" x="1061.19" y="473.664" width="571.118" height="538.99" filterUnits="userSpaceOnUse" color-interpolation-filters="sRGB">
<feFlood flood-opacity="0" result="BackgroundImageFix"/>
<feBlend mode="normal" in="SourceGraphic" in2="BackgroundImageFix" result="shape"/>
<feGaussianBlur stdDeviation="17.6524" result="effect1_foregroundBlur_23_90"/>
</filter>
<filter id="filter36_f_23_90" x="947.369" y="419.63" width="729.256" height="629.265" filterUnits="userSpaceOnUse" color-interpolation-filters="sRGB">
<feFlood flood-opacity="0" result="BackgroundImageFix"/>
<feBlend mode="normal" in="SourceGraphic" in2="BackgroundImageFix" result="shape"/>
<feGaussianBlur stdDeviation="47.6614" result="effect1_foregroundBlur_23_90"/>
</filter>
<filter id="filter37_f_23_90" x="754.422" y="221.681" width="987.244" height="975.896" filterUnits="userSpaceOnUse" color-interpolation-filters="sRGB">
<feFlood flood-opacity="0" result="BackgroundImageFix"/>
<feBlend mode="normal" in="SourceGraphic" in2="BackgroundImageFix" result="shape"/>
<feGaussianBlur stdDeviation="118.271" result="effect1_foregroundBlur_23_90"/>
</filter>
<filter id="filter38_f_23_90" x="1014.98" y="387.066" width="685.637" height="648.599" filterUnits="userSpaceOnUse" color-interpolation-filters="sRGB">
<feFlood flood-opacity="0" result="BackgroundImageFix"/>
<feBlend mode="normal" in="SourceGraphic" in2="BackgroundImageFix" result="shape"/>
<feGaussianBlur stdDeviation="54.7224" result="effect1_foregroundBlur_23_90"/>
</filter>
<linearGradient id="paint0_linear_23_90" x1="278.741" y1="0" x2="278.741" y2="889.02" gradientUnits="userSpaceOnUse">
<stop stop-color="#0239FE"/>
<stop offset="1" stop-color="#0285FE"/>
</linearGradient>
<linearGradient id="paint1_linear_23_90" x1="269.741" y1="772.212" x2="-81.9197" y2="1027.94" gradientUnits="userSpaceOnUse">
<stop stop-color="#C4C4C4"/>
<stop offset="1" stop-color="#C4C4C4" stop-opacity="0"/>
</linearGradient>
<linearGradient id="paint2_linear_23_90" x1="294.446" y1="487.283" x2="266.766" y2="1079.84" gradientUnits="userSpaceOnUse">
<stop stop-color="#C4C4C4"/>
<stop offset="1" stop-color="#C4C4C4" stop-opacity="0"/>
</linearGradient>
<linearGradient id="paint3_linear_23_90" x1="-30.4829" y1="721.211" x2="563.042" y2="771.667" gradientUnits="userSpaceOnUse">
<stop stop-color="#0239FE"/>
<stop offset="1" stop-color="#0285FE"/>
</linearGradient>
<linearGradient id="paint4_linear_23_90" x1="-29.8735" y1="693.32" x2="563.409" y2="743.755" gradientUnits="userSpaceOnUse">
<stop stop-color="#0239FE"/>
<stop offset="1" stop-color="#0285FE"/>
</linearGradient>
<linearGradient id="paint5_linear_23_90" x1="-66.8638" y1="751.032" x2="598.09" y2="807.56" gradientUnits="userSpaceOnUse">
<stop stop-color="#0239FE"/>
<stop offset="1" stop-color="#0285FE"/>
</linearGradient>
<linearGradient id="paint6_linear_23_90" x1="-123.531" y1="827.91" x2="714.63" y2="899.162" gradientUnits="userSpaceOnUse">
<stop stop-color="#0239FE"/>
<stop offset="1" stop-color="#0285FE"/>
</linearGradient>
<linearGradient id="paint7_linear_23_90" x1="-74.6228" y1="842.286" x2="819.283" y2="918.277" gradientUnits="userSpaceOnUse">
<stop stop-color="#0239FE"/>
<stop offset="1" stop-color="#0285FE"/>
</linearGradient>
<linearGradient id="paint8_linear_23_90" x1="-0.287649" y1="911.417" x2="923.481" y2="989.947" gradientUnits="userSpaceOnUse">
<stop stop-color="#0239FE"/>
<stop offset="1" stop-color="#0285FE"/>
</linearGradient>
<linearGradient id="paint9_linear_23_90" x1="-129.423" y1="873.637" x2="678.874" y2="942.35" gradientUnits="userSpaceOnUse">
<stop stop-color="#0239FE"/>
<stop offset="1" stop-color="#0285FE"/>
</linearGradient>
<linearGradient id="paint10_linear_23_90" x1="150.745" y1="876.356" x2="207.981" y2="1282.59" gradientUnits="userSpaceOnUse">
<stop stop-color="#C4C4C4"/>
<stop offset="0.943414" stop-color="#C4C4C4" stop-opacity="0"/>
</linearGradient>
<linearGradient id="paint11_linear_23_90" x1="111.431" y1="1082.21" x2="609.641" y2="1103" gradientUnits="userSpaceOnUse">
<stop stop-color="#C4C4C4"/>
<stop offset="1" stop-color="#C4C4C4" stop-opacity="0"/>
</linearGradient>
<linearGradient id="paint12_linear_23_90" x1="778.942" y1="1310.12" x2="219.136" y2="681.075" gradientUnits="userSpaceOnUse">
<stop stop-color="#C4C4C4"/>
<stop offset="1" stop-color="#C4C4C4" stop-opacity="0"/>
</linearGradient>
<linearGradient id="paint13_linear_23_90" x1="171.131" y1="932.606" x2="867.777" y2="991.828" gradientUnits="userSpaceOnUse">
<stop offset="0.213542" stop-color="#0073FB"/>
<stop offset="0.567708" stop-color="#65FFED"/>
<stop offset="0.9375" stop-color="#070059"/>
</linearGradient>
<linearGradient id="paint14_linear_23_90" x1="943.401" y1="454.172" x2="726.007" y2="1041.13" gradientUnits="userSpaceOnUse">
<stop stop-color="#C4C4C4"/>
<stop offset="0.943414" stop-color="#C4C4C4" stop-opacity="0"/>
</linearGradient>
<linearGradient id="paint15_linear_23_90" x1="1009.7" y1="671.915" x2="1634.47" y2="1093.88" gradientUnits="userSpaceOnUse">
<stop stop-color="#C4C4C4"/>
<stop offset="1" stop-color="#C4C4C4" stop-opacity="0"/>
</linearGradient>
<linearGradient id="paint16_linear_23_90" x1="1380.44" y1="667.004" x2="808.241" y2="504.91" gradientUnits="userSpaceOnUse">
<stop stop-color="#C4C4C4"/>
<stop offset="1" stop-color="#C4C4C4" stop-opacity="0"/>
</linearGradient>
<linearGradient id="paint17_linear_23_90" x1="1360.37" y1="881.62" x2="1505.98" y2="404.977" gradientUnits="userSpaceOnUse">
<stop stop-color="#C4C4C4"/>
<stop offset="1" stop-color="#C4C4C4" stop-opacity="0"/>
</linearGradient>
<clipPath id="clip0_23_90">
<rect width="1288" height="962" fill="white"/>
</clipPath>
</defs>
</svg>
