<svg xmlns="http://www.w3.org/2000/svg" width="1026" height="1417" fill="none"><g clip-path="url(#a)"><g filter="url(#b)"><ellipse cx="303.628" cy="1041.62" fill="url(#c)" rx="302.924" ry="460.579" transform="rotate(-85.37 303.628 1041.62)"/></g><mask id="e" width="1596" height="923" x="-586" y="445" maskUnits="userSpaceOnUse" style="mask-type:alpha"><path fill="url(#d)" d="M1008.42 1335.32 820.889 529.895a26 26 0 0 0-23.188-20.017l-781.123-64.37a26 26 0 0 0-5.176.09l-259.277 30.536a26 26 0 0 0-17.649 10.076l-314.98 413.884a26 26 0 0 0-4.257 23.071l100.335 341.745a26 26 0 0 0 22.848 18.59l810.386 65.64 633.547 18.06c17.039.49 29.925-15.28 26.065-31.88"/></mask><mask id="g" width="1507" height="1020" x="-560" y="389" maskUnits="userSpaceOnUse" style="mask-type:alpha"><path fill="url(#f)" d="M-559.336 1268.72c27.85-337.033 61.437-743.151 69.513-853.053 1.111-15.112 14.713-26.937 29.817-25.713l1382.339 111.97c14.313 1.159 24.976 13.701 23.816 28.014l-69.263 855.092c-1.159 14.32-13.701 24.98-28.014 23.82l-1384.39-112.14c-14.329-1.16-25.001-13.67-23.818-27.99"/></mask><g mask="url(#g)"><path fill="url(#h)" d="M105.547 560.543C267.539 573.664 392.423 724.37 382.28 849.591c-10.142 125.22-89.028 284.239-262.831 270.159-86.128-6.98-197.483 68.26-294.76-2.39-99.023-71.91-61.504-240.777-56.387-303.944 10.143-125.221 175.254-265.995 337.245-252.873"/><g filter="url(#i)"><path fill="url(#j)" d="M102.737 571.11c173.732 14.072 288.343 144.203 279.624 251.838s-85.708 243.582-259.44 229.502c-86.092-6.97-196.68 59.31-294.624-2.57-99.703-62.998-64.136-207.882-59.738-262.179 8.719-107.635 160.446-230.663 334.178-216.591"/></g><g filter="url(#k)"><path fill="url(#l)" d="M108 571.538c194.72 15.772 322.087 175.078 311.338 307.78s-98.321 300.892-293.041 285.122c-96.494-7.81-222.12 87.22-331.41 11.85-111.253-76.72-69.147-266.787-63.725-333.728C-258.089 709.86-86.72 555.766 108 571.538"/></g><g filter="url(#m)"><path fill="url(#n)" d="M129.2 589.075c237.772 52.023 422.968 240.267 410.388 395.576s-148.2 313.329-381.728 294.409c-115.725-9.37-278.201 147.85-409.427 59.37-133.583-90.07-84.6-299.31-78.254-377.66 12.58-155.309 183.575-431.962 459.021-371.695"/></g><g filter="url(#o)"><path fill="url(#p)" d="M205.108 658.49c251.448 20.367 451.709 238.003 439.41 389.85-12.3 151.85-156.981 305.36-408.429 284.99-124.605-10.09-280.593 35.61-422.509-52-144.465-89.18-93.423-293.51-87.218-370.109 12.299-151.847 227.297-273.099 478.746-252.731"/></g><g filter="url(#q)"><path fill="url(#r)" d="M298.064 727.028c259.848 21.048 466.972 243.832 454.392 399.142s-161.954 312.21-421.802 291.16c-128.768-10.43-289.917 36.18-436.639-53.55-149.358-91.35-96.788-300.3-90.442-378.649 12.58-155.31 234.642-279.151 494.491-258.103"/></g><g filter="url(#s)"><path fill="url(#t)" d="M104.622 686.5c227.368 18.417 406.529 238.936 393.949 394.25-12.58 155.3-144.982 313.58-372.349 295.16-112.672-9.12-252.823 21.11-380.422-67.08-129.891-89.76-81.748-299.08-75.402-377.423 12.58-155.309 206.857-263.324 434.224-244.907"/></g></g><g filter="url(#u)"><path fill="#120ECF" d="M-101.052 1192.15c-15.039-48.56 20.058-157.15 65.944-271.648a26 26 0 0 0 1.793-7.598l12.145-149.94c10.842-133.846 220.816-80.324 391.588 11.573 170.771 91.898 166.593 87.782 151.573 217.512s76.534 71.671 178.431 136.591c101.897 64.91-112.696-54.02-240.705 36.34s-50.267 116.36-226.236 19.01c-175.97-97.36-172.031-52.96-181.484-5.89-9.453 47.08 44.334 51.44 35.185 94.77s-31.06 21.41-103.094-8.35-69.94-23.29-85.14-72.37"/></g><mask id="w" width="936" height="1372" x="-379" y="386" maskUnits="userSpaceOnUse" style="mask-type:alpha"><path fill="url(#v)" d="m412.216 387.8-772.608 260.72a26 26 0 0 0-17.633 26.305l40.982 636.595c.132 2.05.506 4.07 1.115 6.03l64.195 206.76a26.02 26.02 0 0 0 13.663 15.77l452.67 215.31a25.96 25.96 0 0 0 20.678.71l325.069-127.75a26.01 26.01 0 0 0 16.435-25.89l-43.655-672.357-66.809-520.875c-2.088-16.28-18.551-26.576-34.102-21.328"/></mask><g mask="url(#w)"><mask id="y" width="909" height="1286" x="-364" y="451" maskUnits="userSpaceOnUse" style="mask-type:alpha"><path fill="url(#x)" d="M519.706 1686.03c-331.828 21.09-682.286 43.27-782.6 50.44-15.027 1.08-28.384-10.57-29.297-25.61l-71.674-1181.123c-.867-14.29 9.981-26.592 24.268-27.52l784.174-50.915c14.372-.933 26.764 9.995 27.637 24.371L543.991 1658.5c.868 14.31-9.984 26.62-24.285 27.53"/></mask><g mask="url(#y)"><path fill="#02D1FE" d="M-235.107 1234.36c-8.779-135.22 123.676-257.981 249.043-266.121 125.366-8.14 293.441 35.911 302.861 180.991 4.667 71.89 94.139 153.74 37.255 243.2-57.906 91.08-230.174 82.41-293.415 86.51-125.367 8.14-286.965-109.37-295.744-244.58"/><g filter="url(#z)"><path fill="#02D1FE" d="M-224.264 1235.28c-9.416-145.01 92.41-255.847 189.74-262.167s228.612 40.097 238.028 185.117c4.666 71.86 77.925 154.73 35 243.25-43.696 90.12-177.726 78.97-226.824 82.16-97.33 6.32-226.529-103.34-235.944-248.36"/></g><g filter="url(#A)"><path fill="#02D1FE" d="M-224.549 1230.89C-235.102 1068.36-108.6 943.332 11.582 935.529c120.183-7.803 281.882 43.279 292.435 205.811 5.229 80.54 106.239 172.19 52.604 271.77-54.599 101.37-230.116 90.52-290.742 94.46-120.182 7.8-279.875-114.15-290.428-276.68"/></g><g filter="url(#B)"><path fill="#02D1FE" d="M-186.516 1209.52c19.56-202.79 181.082-380.194 336.572-390.29C305.547 809.134 480.254 900.071 492.91 1095c6.272 96.59 183.802 209.77 113.823 329.56-71.237 121.94-355.978 128.8-434.416 133.9-155.49 10.09-381.491-114.02-358.833-348.94"/></g><g filter="url(#C)"><path fill="#02D1FE" d="M-150.52 1154.4c-13.628-209.886 174.003-418.572 326.027-428.442s323.491 89.125 337.119 299.012c6.753 104.01 72.97 226.52 5.289 355.01-68.898 130.79-380.137 212.6-456.826 217.58-152.024 9.87-197.982-233.28-211.609-443.16"/></g><g filter="url(#D)"><path fill="#02D1FE" d="M-96.115 1053.78c-14.082-216.896 178.697-416.925 334.188-427.02 155.49-10.096 330.943 92.321 345.025 309.217C590.077 1043.46 390.139 1217.6 321 1350.33c-70.382 135.11-284.372 119.32-362.81 124.41-155.49 10.1-40.222-204.06-54.305-420.96"/></g><g filter="url(#E)"><path fill="#02D1FE" d="M-110.249 1218.52c-12.322-189.78 181.972-366.47 337.463-376.565 155.491-10.096 330.023 78.154 342.346 267.935 6.106 94.05 54.881 205.56-15.295 322.32-71.437 118.86-285.186 106.77-363.624 111.86-155.49 10.1-288.568-135.76-300.89-325.55"/></g></g></g><mask id="G" width="1815" height="1569" x="-576" y="228" maskUnits="userSpaceOnUse" style="mask-type:alpha"><path fill="url(#F)" d="M914.991 246.718C1015.47 586.896 1196.41 1198.29 1237.68 1333.64c4.44 14.56-4.16 30.4-18.75 34.74l-1437.24 427.2c-13.764 4.1-28.239-3.75-32.33-17.51L-574.192 689.559c-4.091-13.765 3.75-28.239 17.515-32.331l1439.39-427.847c13.781-4.096 28.205 3.548 32.278 17.337"/></mask><g mask="url(#G)"><path fill="#438EFF" d="M605.088 1494.26c-165.745 12.06-348.77-41.23-384.248-160.59s-14.042-296.2 166.177-349.772c89.307-26.546 62.758-105.492 186.53-77.593 125.995 28.401 149.823 198.495 167.72 258.705 35.478 119.35 29.565 317.19-136.179 329.25"/><g filter="url(#H)"><path fill="#438EFF" d="M583.538 1493.04c-278.866-9.06-322.562-32.18-353.058-134.77-30.495-102.6-2.548-257.44 177.597-310.99 89.27-26.53 63.075-96.293 184.322-76.728 123.426 19.916 141.335 170.058 156.719 221.818 30.496 102.59-25.813 311.99-165.58 300.67"/></g><g filter="url(#I)"><path fill="#438EFF" d="M601.186 1484.28c-1.669.5-3.494.85-5.232 1-320.084 27.37-496.567-107.19-534.061-233.34-37.598-126.48 100.009-246.62 301.917-306.638 100.055-29.74 3.627-109.507 141.224-81.853C645.102 891.6 698.083 1092.07 717.049 1155.88c37.436 125.94 83.07 267.93-115.863 328.4"/></g><g filter="url(#J)"><path fill="#438EFF" d="M570.85 1477c-283.268 29.35-601.192-68.85-645.195-216.89-44.003-148.03 122.386-336.438 364.534-408.414 119.996-35.668 37.994-186.895 202.472-155.551 167.433 31.906 194.448 243.621 216.646 318.295C753.31 1162.48 854.118 1447.65 570.85 1477"/></g><g filter="url(#K)"><path fill="#438EFF" d="M357.897 1461.21c-433.26-35.1-441.002-44.74-484.024-189.47-43.022-144.74 56.976-362.643 317.706-440.143 129.205-38.405 168.56-21.952 343.489 4.496 178.073 26.924 204.389 274.077 226.091 347.087 43.022 144.74-152.007 298.38-403.262 278.03"/></g><g filter="url(#L)"><path fill="#438EFF" d="M350.402 1414.44c-269.44 80.09-559.386-46.04-603.389-194.08s49.212-349.926 318.652-430.015c133.521-39.688 358.141-112.478 538.687-85.91 183.79 27.044 46.277 377.145 68.474 451.815 44.003 148.04-52.984 178.1-322.424 258.19"/></g><g filter="url(#M)"><path fill="#438EFF" d="M560.055 1377.74c-235.76 70.07-496.71-64.68-540.714-212.72-44.003-148.03 31.614-344.688 267.374-414.766 116.831-34.727 24.444-50.124 185.162-17.663 163.604 33.045 191.49 244.501 213.687 319.179 44.003 148.04 110.251 255.89-125.509 325.97"/></g></g><g filter="url(#N)" opacity=".6"><path fill="url(#O)" d="M281.149 824.838c4.484-10.662 15.272-17.769 26.73-16.186 193.714 26.766 395.28 215.798 387.331 313.938-8.188 101.09 120.37 342.7-350.602 104.2-3.024-1.53-6.482-2.57-9.865-2.79-198.078-12.76-444.64 158.27-362.24-157.55.39-1.49.677-3.23.854-4.76 10.933-94.798 199.036 21.72 307.792-236.852"/></g><g filter="url(#P)"><ellipse cx="226.474" cy="344.341" fill="#0285FE" rx="226.474" ry="344.341" transform="scale(1 -1)rotate(3.56 8855.593 9864.707)"/></g><mask id="R" width="676" height="1196" x="600" y="-357" maskUnits="userSpaceOnUse" style="mask-type:alpha"><path fill="url(#Q)" d="m632.758-355.815 586.542 148.18a26 26 0 0 1 19.58 23.557l36.85 579.358c.11 1.726.04 3.46-.19 5.174l-25.98 189.971a26 26 0 0 1-10.41 17.457L930.298 833.938a26 26 0 0 1-23.146 3.825l-246.58-77.432a26 26 0 0 1-18.16-23.192l-37.458-602.177-4.563-465.315c-.167-17.045 15.84-29.638 32.367-25.462"/></mask><mask id="T" width="744" height="1115" x="567" y="-300" maskUnits="userSpaceOnUse" style="mask-type:alpha"><path fill="url(#S)" d="M673.424 813.577c241.225-15.398 521.976-33.319 610.636-38.307 15.13-.851 27.07-14.267 26.13-29.391l-63.52-1021.232c-.89-14.332-13.23-25.227-27.57-24.336l-627.047 39.006c-14.332.892-25.228 13.232-24.336 27.564L631.37 790.166c.893 14.349 13.248 25.25 27.595 24.334z"/></mask><g mask="url(#T)"><path fill="#0285FE" d="M1191.02 327.823c-7.54-121.272-118.45-216.729-212.189-210.897-93.743 5.831-213.711 62.574-205.617 192.688 4.01 64.478-53.785 146.664-2.337 220.365C823.248 605.005 950 579.32 997.289 576.378c93.741-5.831 201.281-127.284 193.731-248.555"/><g filter="url(#U)"><path fill="#0285FE" d="M1183.09 329.776c-8.09-130.06-103.76-217.551-184.343-212.538-80.579 5.012-183.271 60.661-175.181 190.722 4.009 64.451-47.083 146.188-2.194 220.266 45.697 75.409 154.494 50.848 195.138 48.319 80.58-5.012 174.67-116.708 166.58-246.769"/></g><g filter="url(#V)"><path fill="#0285FE" d="M1182.84 325.836C1173.77 180.063 1056.47 82.63 957.129 88.81c-99.344 6.18-226.294 69.288-217.226 215.061 4.493 72.237-68.298 164.815-13.488 247.562 55.795 84.233 198.454 55.416 248.569 52.299 99.346-6.18 216.926-132.123 207.856-277.896"/></g><g filter="url(#W)"><path fill="#0285FE" d="M1170.03 309.744C1134.46 131.283 996.342-9.782 880.073-2.549 763.804 4.683 643.793 103.85 654.668 278.676c5.389 86.634-114.404 205.887-50.102 305.214 65.458 101.112 222.552 67.423 281.204 63.775 116.27-7.233 325.46-131.184 284.26-337.921"/></g><g filter="url(#X)"><path fill="#0285FE" d="M1119.2 252.033C1107.49 63.792 947.61-88.945 833.932-81.874S603.483 31.2 615.192 219.441c5.803 93.283-30.535 209.244 32.968 316.551 64.643 109.234 218.089 73.936 275.434 70.369 113.676-7.071 207.316-166.086 195.606-354.328"/></g><g filter="url(#Y)"><path fill="#0285FE" d="M1069.27 181.591c-12.1-194.53-175.737-352.469-292.006-345.236-116.269 7.232-235.64 116.695-223.539 311.225 5.997 96.399-31.095 216.206 33.929 327.134 66.192 112.922 223.119 76.547 281.772 72.899 116.269-7.233 211.944-171.492 199.844-366.022"/></g><g filter="url(#Z)"><path fill="#0285FE" d="M1096.86 326.754C1086.27 156.54 923.938 19.535 807.669 26.768 691.4 34 571.239 130.757 581.828 300.97c5.247 84.35-19.311 188.689 44.823 285.301 65.285 98.348 222.419 65.288 281.071 61.639 116.268-7.232 199.728-150.943 189.138-321.157"/></g></g><g filter="url(#aa)"><path fill="#FF50ED" d="M716.013 473.425c35.957 11.877 117.162-12.618 203.044-45.142a26.1 26.1 0 0 1 7.627-1.649l111.256-6.921c100.21-6.233 63.13-163.936-3.17-292.872C968.462-2.095 971.48 1.086 874.297 10.501c-97.183 9.413-52.506-58.212-99.604-135.287s38.802 84.995-30.531 179.419c-69.333 94.423-87.684 35.947-17.371 168.844 70.312 132.897 37.183 129.333 1.861 135.741s-37.832-33.859-70.348-27.626-16.436 22.919 4.801 77.18 16.436 52.605 52.908 64.653"/></g><mask id="ac" width="1026" height="712" x="298" y="-24" maskUnits="userSpaceOnUse" style="mask-type:alpha"><path fill="url(#ab)" d="m1321.73 108.54-201.28 561.596c-3.97 11.083-14.9 18.114-26.63 17.138l-469.478-39.05a26 26 0 0 1-6.018-1.229l-150.179-49.726a26 26 0 0 1-15.511-13.956L300.379 247.145a26 26 0 0 1-.333-20.688L397.163-7.691a26 26 0 0 1 26.186-15.949l497.204 41.632 380.497 56.053c16.24 2.392 26.22 19.045 20.68 34.495"/></mask><g mask="url(#ac)"><mask id="ae" width="970" height="694" x="307" y="-15" maskUnits="userSpaceOnUse" style="mask-type:alpha"><path fill="url(#ad)" d="M354.983 9.036c-19.64 238.471-40.147 488.178-47.475 570.635-1.333 15.006 10.091 28.74 25.108 29.934l868.364 69.012c14.27 1.135 26.77-9.482 27.97-23.749l47.92-572.377c1.2-14.352-9.49-26.947-23.85-28.088L382.954-14.745c-14.285-1.135-26.795 9.499-27.971 23.78"/></mask><g mask="url(#ae)"><path fill="#0285FE" d="M682.589 573.039c100.95 8.453 194.567-88.841 202.404-182.438 7.837-93.598-22.743-219.849-131.053-228.918-53.674-4.494-113.604-72.518-181.275-31.248-68.887 42.012-64.815 170.903-68.768 218.118-7.837 93.597 77.742 216.034 178.692 224.486"/><g filter="url(#af)"><path fill="#0285FE" d="M682.051 564.921c108.267 9.066 192.537-65.5 198.621-138.166s-26.779-171.446-135.045-180.512c-53.652-4.492-114.569-60.411-181.341-29.562-67.972 31.403-61.516 131.745-64.585 168.401-6.084 72.666 74.084 170.774 182.35 179.839"/></g><g filter="url(#ag)"><path fill="#0285FE" d="M685.329 565.195c121.345 10.161 216.569-82.651 224.082-172.378s-28.41-211.31-149.756-221.471c-60.133-5.035-127.228-81.82-202.411-43.12-76.535 39.395-70.88 170.745-74.67 216.008-7.513 89.727 81.409 210.801 202.755 220.961"/></g><g filter="url(#ah)"><path fill="#0285FE" d="M701.834 537.064C853.69 525.279 988.56 407.022 998.28 290.934S942.467 42.982 796.937 30.797c-72.117-6.038-154.231-140.324-244.752-89.689C460.037-7.347 450.925 205.4 446.021 263.96c-9.72 116.088 79.898 286.758 255.813 273.104"/></g><g filter="url(#ai)"><path fill="#0285FE" d="M743.541 510.928c156.697 13.121 315.309-124.215 324.819-237.714 9.5-113.5-62.1-243.055-218.8-256.175-77.652-6.502-168.308-57.712-265.297-8.917-98.731 49.673-164.231 281.179-169.025 338.434-9.504 113.5 171.605 151.252 328.303 164.372"/></g><g filter="url(#aj)"><path fill="#0285FE" d="M819.513 471.667c161.933 13.559 314.147-127.747 323.867-243.834S1079-20.837 917.065-34.395c-80.245-6.72-213.212 140.299-313.39 190.125-101.979 50.722-93.168 210.899-98.071 269.459-9.72 116.088 151.976 32.92 313.909 46.478"/></g><g filter="url(#ak)"><path fill="#0285FE" d="M696.171 479.93c141.691 11.864 276.481-130.901 286.201-246.989S928.565-14.842 786.874-26.706c-70.215-5.88-152.883-43.897-241.145 6.927-89.847 51.737-83.794 211.683-88.698 270.244-9.72 116.087 97.449 217.601 239.14 229.465"/></g></g></g><mask id="am" width="1186" height="1363" x="265" y="-529" maskUnits="userSpaceOnUse" style="mask-type:alpha"><path fill="url(#al)" d="M1432.36-274.589c-248.66-78.538-682.852-215.913-794.74-252.167-14.483-4.692-30.618 3.608-35.228 18.117L267.114 546.66c-4.347 13.685 3.222 28.304 16.907 32.652l796.629 253.096c13.68 4.348 28.3-3.221 32.65-16.907l335.96-1057.439c4.35-13.702-3.19-28.321-16.9-32.651"/></mask><g mask="url(#am)"><path fill="#30DAFF" d="M500.078-58.624c-11.331 123.725 25.943 261.28 114.667 289.469 88.723 28.188 221.215 14.637 263.777-119.327 21.091-66.386 79.732-45.437 60.607-138.346-19.467-94.578-146.276-114.767-191.032-128.987-88.724-28.188-236.687-26.534-248.019 97.191"/><g filter="url(#an)"><path fill="#30DAFF" d="M500.689-42.498c2.875 208.578 19.542 241.563 95.806 265.793s192.398 5.504 234.942-128.405c21.083-66.359 72.862-45.803 59.932-136.708-13.162-92.539-125.143-108.025-163.614-120.248-76.264-24.229-233.574 14.934-227.066 119.568"/></g><g filter="url(#ao)"><path fill="#30DAFF" d="M507.694-56.21a25.6 25.6 0 0 0-1.104 5.205C481.91 187.457 579.935 321.037 673.613 350.8c94.024 29.872 185.75-71.309 233.434-221.395 23.63-74.375 81.907-1.181 63.16-104.42-19.085-105.095-168.194-147.5-215.624-162.569-93.485-29.701-198.817-65.735-246.889 81.374"/></g><g filter="url(#ap)"><path fill="#30DAFF" d="M512.498-32.79c-25.899 211.332 43.061 450.351 153.104 485.313s253.2-86.78 310.387-266.779c28.341-89.197 140.231-25.788 119.101-149.172C1073.58-89.03 915.705-112.183 860.194-129.82c-110.043-34.961-321.798-114.301-347.696 97.03"/></g><g filter="url(#aq)"><path fill="#30DAFF" d="M521.329 126.613c20.176 324.35 27.271 330.272 134.861 364.454s271.868-37.52 333.444-231.331c30.516-96.043 18.766-125.691 1.441-256.82-17.636-133.485-202.012-156.611-256.286-173.854C627.2-205.12 509.628-61.484 521.329 126.613"/></g><g filter="url(#ar)"><path fill="#30DAFF" d="M556.181 132.869c-63.633 200.286 26.599 418.782 136.642 453.744 110.043 34.961 262.254-31.894 325.887-232.18 31.53-99.252 89.08-266.137 71.75-401.466-17.65-137.76-281.268-39.864-336.779-57.5-110.043-34.962-133.867 37.116-197.5 237.402"/></g><g filter="url(#as)"><path fill="#30DAFF" d="M586.548-23.333c-55.679 175.251 41.4 372.194 151.443 407.155 110.043 34.962 258.098-18.812 313.779-194.063 27.59-86.845 37.81-17.571 15.79-138.16-22.41-122.756-180.088-146.556-235.599-164.193-110.043-34.961-189.735-85.989-245.413 89.261"/></g></g><g filter="url(#at)" opacity=".6"><path fill="#02FFF0" d="M991.462 194.675c10.688-4.414 17.878-14.978 16.308-26.437-19.767-143.71-155.983-293.562-228.632-289.043-75.588 4.702-254.075-94.541-83.374 259.41 1.473 3.053 2.449 6.524 2.586 9.911 5.952 147.88-123.668 328.395 112.056 271.826 1.496-.359 3.229-.608 4.758-.774 69.408-7.526-12.221-147.057 176.298-224.893"/></g></g><defs><filter id="b" width="1126.64" height="815.662" x="-259.694" y="633.785" color-interpolation-filters="sRGB" filterUnits="userSpaceOnUse"><feFlood flood-opacity="0" result="BackgroundImageFix"/><feBlend in="SourceGraphic" in2="BackgroundImageFix" result="shape"/><feGaussianBlur result="effect1_foregroundBlur_31_966" stdDeviation="51.792"/></filter><filter id="i" width="632.288" height="514.8" x="-245.318" y="565.862" color-interpolation-filters="sRGB" filterUnits="userSpaceOnUse"><feFlood flood-opacity="0" result="BackgroundImageFix"/><feBlend in="SourceGraphic" in2="BackgroundImageFix" result="shape"/><feGaussianBlur result="effect1_foregroundBlur_31_966" stdDeviation="2.072"/></filter><filter id="k" width="730.098" height="664.117" x="-295.627" y="555.918" color-interpolation-filters="sRGB" filterUnits="userSpaceOnUse"><feFlood flood-opacity="0" result="BackgroundImageFix"/><feBlend in="SourceGraphic" in2="BackgroundImageFix" result="shape"/><feGaussianBlur result="effect1_foregroundBlur_31_966" stdDeviation="7.251"/></filter><filter id="m" width="925.405" height="826.345" x="-364.495" y="559.911" color-interpolation-filters="sRGB" filterUnits="userSpaceOnUse"><feFlood flood-opacity="0" result="BackgroundImageFix"/><feBlend in="SourceGraphic" in2="BackgroundImageFix" result="shape"/><feGaussianBlur result="effect1_foregroundBlur_31_966" stdDeviation="10.358"/></filter><filter id="o" width="1044.33" height="792.069" x="-343.342" y="600.314" color-interpolation-filters="sRGB" filterUnits="userSpaceOnUse"><feFlood flood-opacity="0" result="BackgroundImageFix"/><feBlend in="SourceGraphic" in2="BackgroundImageFix" result="shape"/><feGaussianBlur result="effect1_foregroundBlur_31_966" stdDeviation="27.968"/></filter><filter id="q" width="1241.13" height="973.267" x="-349.327" y="585.887" color-interpolation-filters="sRGB" filterUnits="userSpaceOnUse"><feFlood flood-opacity="0" result="BackgroundImageFix"/><feBlend in="SourceGraphic" in2="BackgroundImageFix" result="shape"/><feGaussianBlur result="effect1_foregroundBlur_31_966" stdDeviation="69.401"/></filter><filter id="s" width="971.171" height="821.367" x="-407.755" y="620.234" color-interpolation-filters="sRGB" filterUnits="userSpaceOnUse"><feFlood flood-opacity="0" result="BackgroundImageFix"/><feBlend in="SourceGraphic" in2="BackgroundImageFix" result="shape"/><feGaussianBlur result="effect1_foregroundBlur_31_966" stdDeviation="32.111"/></filter><filter id="u" width="972.493" height="755.707" x="-175.019" y="611.952" color-interpolation-filters="sRGB" filterUnits="userSpaceOnUse"><feFlood flood-opacity="0" result="BackgroundImageFix"/><feBlend in="SourceGraphic" in2="BackgroundImageFix" result="shape"/><feGaussianBlur result="effect1_foregroundBlur_31_966" stdDeviation="35.218"/></filter><filter id="z" width="485.095" height="519.632" x="-229.014" y="968.412" color-interpolation-filters="sRGB" filterUnits="userSpaceOnUse"><feFlood flood-opacity="0" result="BackgroundImageFix"/><feBlend in="SourceGraphic" in2="BackgroundImageFix" result="shape"/><feGaussianBlur result="effect1_foregroundBlur_31_966" stdDeviation="2.072"/></filter><filter id="A" width="626.441" height="602.157" x="-239.668" y="920.266" color-interpolation-filters="sRGB" filterUnits="userSpaceOnUse"><feFlood flood-opacity="0" result="BackgroundImageFix"/><feBlend in="SourceGraphic" in2="BackgroundImageFix" result="shape"/><feGaussianBlur result="effect1_foregroundBlur_31_966" stdDeviation="7.251"/></filter><filter id="B" width="852.568" height="781.988" x="-208.812" y="797.757" color-interpolation-filters="sRGB" filterUnits="userSpaceOnUse"><feFlood flood-opacity="0" result="BackgroundImageFix"/><feBlend in="SourceGraphic" in2="BackgroundImageFix" result="shape"/><feGaussianBlur result="effect1_foregroundBlur_31_966" stdDeviation="10.358"/></filter><filter id="C" width="811.217" height="984.435" x="-207.157" y="669.351" color-interpolation-filters="sRGB" filterUnits="userSpaceOnUse"><feFlood flood-opacity="0" result="BackgroundImageFix"/><feBlend in="SourceGraphic" in2="BackgroundImageFix" result="shape"/><feGaussianBlur result="effect1_foregroundBlur_31_966" stdDeviation="27.968"/></filter><filter id="D" width="984.98" height="1126.61" x="-262.901" y="487.278" color-interpolation-filters="sRGB" filterUnits="userSpaceOnUse"><feFlood flood-opacity="0" result="BackgroundImageFix"/><feBlend in="SourceGraphic" in2="BackgroundImageFix" result="shape"/><feGaussianBlur result="effect1_foregroundBlur_31_966" stdDeviation="69.401"/></filter><filter id="E" width="830.985" height="831.831" x="-175.029" y="776.956" color-interpolation-filters="sRGB" filterUnits="userSpaceOnUse"><feFlood flood-opacity="0" result="BackgroundImageFix"/><feBlend in="SourceGraphic" in2="BackgroundImageFix" result="shape"/><feGaussianBlur result="effect1_foregroundBlur_31_966" stdDeviation="32.111"/></filter><filter id="H" width="545.621" height="534.627" x="215.694" y="962.995" color-interpolation-filters="sRGB" filterUnits="userSpaceOnUse"><feFlood flood-opacity="0" result="BackgroundImageFix"/><feBlend in="SourceGraphic" in2="BackgroundImageFix" result="shape"/><feGaussianBlur result="effect1_foregroundBlur_31_966" stdDeviation="2.072"/></filter><filter id="I" width="723.137" height="660.151" x="41.196" y="843.213" color-interpolation-filters="sRGB" filterUnits="userSpaceOnUse"><feFlood flood-opacity="0" result="BackgroundImageFix"/><feBlend in="SourceGraphic" in2="BackgroundImageFix" result="shape"/><feGaussianBlur result="effect1_foregroundBlur_31_966" stdDeviation="7.251"/></filter><filter id="J" width="886.065" height="831.729" x="-102.126" y="671.18" color-interpolation-filters="sRGB" filterUnits="userSpaceOnUse"><feFlood flood-opacity="0" result="BackgroundImageFix"/><feBlend in="SourceGraphic" in2="BackgroundImageFix" result="shape"/><feGaussianBlur result="effect1_foregroundBlur_31_966" stdDeviation="10.358"/></filter><filter id="K" width="1014.78" height="765.987" x="-191.709" y="752.977" color-interpolation-filters="sRGB" filterUnits="userSpaceOnUse"><feFlood flood-opacity="0" result="BackgroundImageFix"/><feBlend in="SourceGraphic" in2="BackgroundImageFix" result="shape"/><feGaussianBlur result="effect1_foregroundBlur_31_966" stdDeviation="27.968"/></filter><filter id="L" width="1242.56" height="1018.2" x="-402.217" y="559.936" color-interpolation-filters="sRGB" filterUnits="userSpaceOnUse"><feFlood flood-opacity="0" result="BackgroundImageFix"/><feBlend in="SourceGraphic" in2="BackgroundImageFix" result="shape"/><feGaussianBlur result="effect1_foregroundBlur_31_966" stdDeviation="69.401"/></filter><filter id="M" width="849.953" height="810.508" x="-56.78" y="650.529" color-interpolation-filters="sRGB" filterUnits="userSpaceOnUse"><feFlood flood-opacity="0" result="BackgroundImageFix"/><feBlend in="SourceGraphic" in2="BackgroundImageFix" result="shape"/><feGaussianBlur result="effect1_foregroundBlur_31_966" stdDeviation="32.111"/></filter><filter id="N" width="923.176" height="694.257" x="-130.822" y="721.421" color-interpolation-filters="sRGB" filterUnits="userSpaceOnUse"><feFlood flood-opacity="0" result="BackgroundImageFix"/><feBlend in="SourceGraphic" in2="BackgroundImageFix" result="shape"/><feGaussianBlur result="effect1_foregroundBlur_31_966" stdDeviation="43.505"/></filter><filter id="P" width="697.741" height="931.559" x="485.323" y="-292.747" color-interpolation-filters="sRGB" filterUnits="userSpaceOnUse"><feFlood flood-opacity="0" result="BackgroundImageFix"/><feBlend in="SourceGraphic" in2="BackgroundImageFix" result="shape"/><feGaussianBlur result="effect1_foregroundBlur_31_966" stdDeviation="60.905"/></filter><filter id="U" width="390.524" height="475.07" x="797.923" y="112.161" color-interpolation-filters="sRGB" filterUnits="userSpaceOnUse"><feFlood flood-opacity="0" result="BackgroundImageFix"/><feBlend in="SourceGraphic" in2="BackgroundImageFix" result="shape"/><feGaussianBlur result="effect1_foregroundBlur_31_966" stdDeviation="2.436"/></filter><filter id="V" width="511.555" height="556.556" x="688.832" y="71.478" color-interpolation-filters="sRGB" filterUnits="userSpaceOnUse"><feFlood flood-opacity="0" result="BackgroundImageFix"/><feBlend in="SourceGraphic" in2="BackgroundImageFix" result="shape"/><feGaussianBlur result="effect1_foregroundBlur_31_966" stdDeviation="8.527"/></filter><filter id="W" width="638.501" height="707.486" x="561.183" y="-27.177" color-interpolation-filters="sRGB" filterUnits="userSpaceOnUse"><feFlood flood-opacity="0" result="BackgroundImageFix"/><feBlend in="SourceGraphic" in2="BackgroundImageFix" result="shape"/><feGaussianBlur result="effect1_foregroundBlur_31_966" stdDeviation="12.181"/></filter><filter id="X" width="641.726" height="828.266" x="544.243" y="-147.887" color-interpolation-filters="sRGB" filterUnits="userSpaceOnUse"><feFlood flood-opacity="0" result="BackgroundImageFix"/><feBlend in="SourceGraphic" in2="BackgroundImageFix" result="shape"/><feGaussianBlur result="effect1_foregroundBlur_31_966" stdDeviation="32.889"/></filter><filter id="Y" width="848.214" height="1046.39" x="385.314" y="-327.109" color-interpolation-filters="sRGB" filterUnits="userSpaceOnUse"><feFlood flood-opacity="0" result="BackgroundImageFix"/><feBlend in="SourceGraphic" in2="BackgroundImageFix" result="shape"/><feGaussianBlur result="effect1_foregroundBlur_31_966" stdDeviation="81.612"/></filter><filter id="Z" width="667.633" height="780.708" x="505.654" y="-49.028" color-interpolation-filters="sRGB" filterUnits="userSpaceOnUse"><feFlood flood-opacity="0" result="BackgroundImageFix"/><feBlend in="SourceGraphic" in2="BackgroundImageFix" result="shape"/><feGaussianBlur result="effect1_foregroundBlur_31_966" stdDeviation="37.761"/></filter><filter id="aa" width="625.523" height="787.085" x="556.993" y="-227.784" color-interpolation-filters="sRGB" filterUnits="userSpaceOnUse"><feFlood flood-opacity="0" result="BackgroundImageFix"/><feBlend in="SourceGraphic" in2="BackgroundImageFix" result="shape"/><feGaussianBlur result="effect1_foregroundBlur_31_966" stdDeviation="41.415"/></filter><filter id="af" width="391.736" height="367.975" x="494.505" y="202.57" color-interpolation-filters="sRGB" filterUnits="userSpaceOnUse"><feFlood flood-opacity="0" result="BackgroundImageFix"/><feBlend in="SourceGraphic" in2="BackgroundImageFix" result="shape"/><feGaussianBlur result="effect1_foregroundBlur_31_966" stdDeviation="2.436"/></filter><filter id="ag" width="462.336" height="482.701" x="465.078" y="100.313" color-interpolation-filters="sRGB" filterUnits="userSpaceOnUse"><feFlood flood-opacity="0" result="BackgroundImageFix"/><feBlend in="SourceGraphic" in2="BackgroundImageFix" result="shape"/><feGaussianBlur result="effect1_foregroundBlur_31_966" stdDeviation="8.527"/></filter><filter id="ah" width="602.637" height="656.838" x="420.945" y="-94.641" color-interpolation-filters="sRGB" filterUnits="userSpaceOnUse"><feFlood flood-opacity="0" result="BackgroundImageFix"/><feBlend in="SourceGraphic" in2="BackgroundImageFix" result="shape"/><feGaussianBlur result="effect1_foregroundBlur_31_966" stdDeviation="12.181"/></filter><filter id="ai" width="785.866" height="656.099" x="349.102" y="-78.521" color-interpolation-filters="sRGB" filterUnits="userSpaceOnUse"><feFlood flood-opacity="0" result="BackgroundImageFix"/><feBlend in="SourceGraphic" in2="BackgroundImageFix" result="shape"/><feGaussianBlur result="effect1_foregroundBlur_31_966" stdDeviation="32.889"/></filter><filter id="aj" width="965.488" height="849.018" x="341.962" y="-197.842" color-interpolation-filters="sRGB" filterUnits="userSpaceOnUse"><feFlood flood-opacity="0" result="BackgroundImageFix"/><feBlend in="SourceGraphic" in2="BackgroundImageFix" result="shape"/><feGaussianBlur result="effect1_foregroundBlur_31_966" stdDeviation="81.612"/></filter><filter id="ak" width="677.962" height="677.548" x="380.897" y="-121.403" color-interpolation-filters="sRGB" filterUnits="userSpaceOnUse"><feFlood flood-opacity="0" result="BackgroundImageFix"/><feBlend in="SourceGraphic" in2="BackgroundImageFix" result="shape"/><feGaussianBlur result="effect1_foregroundBlur_31_966" stdDeviation="37.761"/></filter><filter id="an" width="402.665" height="411.065" x="495.621" y="-173.869" color-interpolation-filters="sRGB" filterUnits="userSpaceOnUse"><feFlood flood-opacity="0" result="BackgroundImageFix"/><feBlend in="SourceGraphic" in2="BackgroundImageFix" result="shape"/><feGaussianBlur result="effect1_foregroundBlur_31_966" stdDeviation="2.436"/></filter><filter id="ao" width="505.243" height="554.488" x="485.673" y="-181.4" color-interpolation-filters="sRGB" filterUnits="userSpaceOnUse"><feFlood flood-opacity="0" result="BackgroundImageFix"/><feBlend in="SourceGraphic" in2="BackgroundImageFix" result="shape"/><feGaussianBlur result="effect1_foregroundBlur_31_966" stdDeviation="8.527"/></filter><filter id="ap" width="639.405" height="681.026" x="482.687" y="-198.148" color-interpolation-filters="sRGB" filterUnits="userSpaceOnUse"><feFlood flood-opacity="0" result="BackgroundImageFix"/><feBlend in="SourceGraphic" in2="BackgroundImageFix" result="shape"/><feGaussianBlur result="effect1_foregroundBlur_31_966" stdDeviation="12.181"/></filter><filter id="aq" width="619.53" height="806.822" x="454.744" y="-241.768" color-interpolation-filters="sRGB" filterUnits="userSpaceOnUse"><feFlood flood-opacity="0" result="BackgroundImageFix"/><feBlend in="SourceGraphic" in2="BackgroundImageFix" result="shape"/><feGaussianBlur result="effect1_foregroundBlur_31_966" stdDeviation="32.889"/></filter><filter id="ar" width="885.033" height="1043.86" x="371.837" y="-285.172" color-interpolation-filters="sRGB" filterUnits="userSpaceOnUse"><feFlood flood-opacity="0" result="BackgroundImageFix"/><feBlend in="SourceGraphic" in2="BackgroundImageFix" result="shape"/><feGaussianBlur result="effect1_foregroundBlur_31_966" stdDeviation="81.612"/></filter><filter id="as" width="660.204" height="692.429" x="494.831" y="-222.991" color-interpolation-filters="sRGB" filterUnits="userSpaceOnUse"><feFlood flood-opacity="0" result="BackgroundImageFix"/><feBlend in="SourceGraphic" in2="BackgroundImageFix" result="shape"/><feGaussianBlur result="effect1_foregroundBlur_31_966" stdDeviation="37.761"/></filter><filter id="at" width="588.428" height="765.798" x="521.875" y="-232.501" color-interpolation-filters="sRGB" filterUnits="userSpaceOnUse"><feFlood flood-opacity="0" result="BackgroundImageFix"/><feBlend in="SourceGraphic" in2="BackgroundImageFix" result="shape"/><feGaussianBlur result="effect1_foregroundBlur_31_966" stdDeviation="51.16"/></filter><linearGradient id="c" x1="303.628" x2="303.628" y1="581.037" y2="1502.19" gradientUnits="userSpaceOnUse"><stop stop-color="#0239FE"/><stop offset="1" stop-color="#0285FE"/></linearGradient><linearGradient id="d" x1="75.264" x2="-300.988" y1="889.749" y2="1150.46" gradientUnits="userSpaceOnUse"><stop stop-color="#C4C4C4"/><stop offset="1" stop-color="#C4C4C4" stop-opacity="0"/></linearGradient><linearGradient id="f" x1="100.855" x2="69.28" y1="579.998" y2="1224.03" gradientUnits="userSpaceOnUse"><stop stop-color="#C4C4C4"/><stop offset="1" stop-color="#C4C4C4" stop-opacity="0"/></linearGradient><linearGradient id="h" x1="-235.72" x2="379.482" y1="834.306" y2="884.137" gradientUnits="userSpaceOnUse"><stop stop-color="#0239FE"/><stop offset="1" stop-color="#0285FE"/></linearGradient><linearGradient id="j" x1="-235.089" x2="379.863" y1="803.984" y2="853.796" gradientUnits="userSpaceOnUse"><stop stop-color="#0239FE"/><stop offset="1" stop-color="#0285FE"/></linearGradient><linearGradient id="l" x1="-273.405" x2="415.836" y1="866.723" y2="922.552" gradientUnits="userSpaceOnUse"><stop stop-color="#0239FE"/><stop offset="1" stop-color="#0285FE"/></linearGradient><linearGradient id="n" x1="-332.103" x2="536.67" y1="950.299" y2="1020.67" gradientUnits="userSpaceOnUse"><stop stop-color="#0239FE"/><stop offset="1" stop-color="#0285FE"/></linearGradient><linearGradient id="p" x1="-281.44" x2="645.114" y1="965.927" y2="1040.98" gradientUnits="userSpaceOnUse"><stop stop-color="#0239FE"/><stop offset="1" stop-color="#0285FE"/></linearGradient><linearGradient id="r" x1="-204.443" x2="753.066" y1="1041.08" y2="1118.64" gradientUnits="userSpaceOnUse"><stop stop-color="#0239FE"/><stop offset="1" stop-color="#0285FE"/></linearGradient><linearGradient id="t" x1="-338.206" x2="499.613" y1="1000.01" y2="1067.87" gradientUnits="userSpaceOnUse"><stop stop-color="#0239FE"/><stop offset="1" stop-color="#0285FE"/></linearGradient><linearGradient id="v" x1="-47.998" x2="17.176" y1="1002.97" y2="1443.72" gradientUnits="userSpaceOnUse"><stop stop-color="#C4C4C4"/><stop offset=".943" stop-color="#C4C4C4" stop-opacity="0"/></linearGradient><linearGradient id="x" x1="-88.721" x2="427.427" y1="1226.75" y2="1247.27" gradientUnits="userSpaceOnUse"><stop stop-color="#C4C4C4"/><stop offset="1" stop-color="#C4C4C4" stop-opacity="0"/></linearGradient><linearGradient id="F" x1="603.021" x2="-8.27" y1="1476.93" y2="822.432" gradientUnits="userSpaceOnUse"><stop stop-color="#C4C4C4"/><stop offset="1" stop-color="#C4C4C4" stop-opacity="0"/></linearGradient><linearGradient id="O" x1="-26.88" x2="695.209" y1="1064.12" y2="1122.6" gradientUnits="userSpaceOnUse"><stop offset=".214" stop-color="#0073FB"/><stop offset=".568" stop-color="#65FFED"/><stop offset=".938" stop-color="#DE58FF"/></linearGradient><linearGradient id="Q" x1="944.521" x2="744.385" y1="345.857" y2="623.46" gradientUnits="userSpaceOnUse"><stop stop-color="#C4C4C4"/><stop offset="1" stop-color="#C4C4C4" stop-opacity="0"/></linearGradient><linearGradient id="S" x1="1176.42" x2="694.563" y1="331.059" y2="345.658" gradientUnits="userSpaceOnUse"><stop stop-color="#C4C4C4"/><stop offset="1" stop-color="#C4C4C4" stop-opacity="0"/></linearGradient><linearGradient id="ab" x1="858.169" x2="529.616" y1="436.41" y2="381.532" gradientUnits="userSpaceOnUse"><stop stop-color="#C4C4C4"/><stop offset=".943" stop-color="#C4C4C4" stop-opacity="0"/></linearGradient><linearGradient id="ad" x1="690.321" x2="682.196" y1="463.722" y2="77.617" gradientUnits="userSpaceOnUse"><stop stop-color="#C4C4C4"/><stop offset="1" stop-color="#C4C4C4" stop-opacity="0"/></linearGradient><linearGradient id="al" x1="514.803" x2="995.492" y1="-56.573" y2="409.513" gradientUnits="userSpaceOnUse"><stop stop-color="#C4C4C4"/><stop offset="1" stop-color="#C4C4C4" stop-opacity="0"/></linearGradient><clipPath id="a"><path fill="#fff" d="M0 0h1026v1417H0z"/></clipPath></defs></svg>