<svg width="1376" height="708" viewBox="0 0 1376 708" fill="none" xmlns="http://www.w3.org/2000/svg">
<g clip-path="url(#clip0_31_966)">
<g filter="url(#filter0_f_31_966)">
<ellipse cx="614.628" cy="802.646" rx="302.924" ry="460.579" transform="rotate(-85.3691 614.628 802.646)" fill="url(#paint0_linear_31_966)"/>
</g>
<mask id="mask0_31_966" style="mask-type:alpha" maskUnits="userSpaceOnUse" x="-275" y="206" width="1596" height="923">
<path d="M1319.42 1096.35L1131.89 290.925C1129.33 279.925 1119.96 271.836 1108.7 270.909L327.578 206.538C325.854 206.396 324.12 206.426 322.402 206.628L63.1246 237.164C56.1183 237.989 49.7481 241.626 45.4758 247.24L-269.504 661.124C-274.509 667.701 -276.089 676.265 -273.761 684.195L-173.426 1025.94C-170.393 1036.27 -161.308 1043.66 -150.578 1044.53L659.808 1110.17L1293.35 1128.23C1310.39 1128.72 1323.28 1112.95 1319.42 1096.35Z" fill="url(#paint1_linear_31_966)"/>
</mask>
<g mask="url(#mask0_31_966)">
</g>
<mask id="mask1_31_966" style="mask-type:alpha" maskUnits="userSpaceOnUse" x="-249" y="150" width="1507" height="1020">
<path d="M-248.336 1029.75C-220.486 692.717 -186.899 286.599 -178.823 176.697C-177.712 161.585 -164.11 149.76 -149.006 150.984L1233.33 262.954C1247.65 264.113 1258.31 276.655 1257.15 290.968L1187.89 1146.06C1186.73 1160.38 1174.18 1171.04 1159.87 1169.88L-224.518 1057.74C-238.847 1056.58 -249.519 1044.07 -248.336 1029.75Z" fill="url(#paint2_linear_31_966)"/>
</mask>
<g mask="url(#mask1_31_966)">
<path d="M416.547 321.573C578.539 334.694 703.423 485.4 693.28 610.621C683.138 735.841 604.252 894.859 430.449 880.781C344.321 873.804 232.966 949.04 135.689 878.395C36.6657 806.48 74.185 637.613 79.3016 574.446C89.4445 449.225 254.556 308.452 416.547 321.573Z" fill="url(#paint3_linear_31_966)"/>
<g filter="url(#filter1_f_31_966)">
<path d="M413.737 332.14C587.469 346.212 702.08 476.343 693.361 583.978C684.643 691.614 607.653 827.556 433.921 813.484C347.829 806.51 237.241 872.794 139.297 810.909C39.594 747.912 75.161 603.028 79.5591 548.731C88.2776 441.096 240.005 318.068 413.737 332.14Z" fill="url(#paint4_linear_31_966)"/>
</g>
<g filter="url(#filter2_f_31_966)">
<path d="M419 332.568C613.72 348.34 741.087 507.646 730.338 640.348C719.589 773.049 632.017 941.244 437.297 925.472C340.803 917.656 215.176 1012.69 105.887 937.318C-5.36557 860.596 36.7399 670.533 42.1622 603.592C52.911 470.89 224.28 316.796 419 332.568Z" fill="url(#paint5_linear_31_966)"/>
</g>
<g filter="url(#filter3_f_31_966)">
<path d="M440.2 350.105C677.972 402.128 863.168 590.372 850.588 745.681C838.008 900.991 702.388 1059.01 468.86 1040.09C353.135 1030.72 190.659 1187.94 59.4334 1099.46C-74.1497 1009.39 -25.167 800.146 -18.821 721.8C-6.24086 566.491 164.754 289.838 440.2 350.105Z" fill="url(#paint6_linear_31_966)"/>
</g>
<g filter="url(#filter4_f_31_966)">
<path d="M516.108 419.52C767.556 439.887 967.817 657.523 955.518 809.37C943.218 961.217 798.537 1114.73 547.089 1094.36C422.484 1084.27 266.496 1129.97 124.58 1042.36C-19.8854 953.175 31.1569 748.85 37.3615 672.251C49.6612 520.404 264.659 399.152 516.108 419.52Z" fill="url(#paint7_linear_31_966)"/>
</g>
<g filter="url(#filter5_f_31_966)">
<path d="M609.064 488.058C868.912 509.106 1076.04 731.89 1063.46 887.2C1050.88 1042.51 901.502 1199.41 641.654 1178.36C512.886 1167.93 351.737 1214.54 205.015 1124.81C55.657 1033.46 108.227 824.507 114.573 746.161C127.153 590.851 349.215 467.011 609.064 488.058Z" fill="url(#paint8_linear_31_966)"/>
</g>
<g filter="url(#filter6_f_31_966)">
<path d="M415.622 447.53C642.99 465.947 822.151 686.466 809.571 841.775C796.991 997.085 664.589 1155.36 437.222 1136.94C324.55 1127.82 184.399 1158.05 56.8002 1069.86C-73.091 980.096 -24.9478 770.783 -18.6018 692.437C-6.02166 537.128 188.255 429.113 415.622 447.53Z" fill="url(#paint9_linear_31_966)"/>
</g>
</g>
<g filter="url(#filter7_f_31_966)">
<path d="M209.948 953.179C194.909 904.621 230.006 796.028 275.892 681.532C276.866 679.101 277.473 676.545 277.685 673.934L289.83 523.994C300.672 390.148 510.646 443.67 681.418 535.567C852.189 627.465 848.011 623.349 832.991 753.079C817.971 882.81 909.525 824.752 1011.42 889.666C1113.32 954.579 898.726 835.649 770.717 926.009C642.707 1016.37 720.45 1042.37 544.481 945.018C368.512 847.663 372.45 892.057 362.997 939.134C353.544 986.21 407.331 990.575 398.182 1033.9C389.033 1077.23 367.122 1055.31 295.088 1025.55C223.054 995.794 225.148 1002.26 209.948 953.179Z" fill="#120ECF"/>
</g>
<mask id="mask2_31_966" style="mask-type:alpha" maskUnits="userSpaceOnUse" x="-68" y="147" width="936" height="1372">
<path d="M723.216 148.83L-49.3917 409.55C-60.5475 413.314 -67.7812 424.106 -67.0248 435.855L-26.0432 1072.45C-25.9113 1074.5 -25.5368 1076.52 -24.9276 1078.48L39.2671 1285.24C41.42 1292.17 46.3737 1297.89 52.93 1301.01L505.6 1516.32C512.096 1519.41 519.583 1519.67 526.278 1517.03L851.347 1389.28C861.871 1385.14 868.515 1374.68 867.782 1363.39L824.127 691.033L757.318 170.158C755.23 153.878 738.767 143.582 723.216 148.83Z" fill="url(#paint10_linear_31_966)"/>
</mask>
<g mask="url(#mask2_31_966)">
<mask id="mask3_31_966" style="mask-type:alpha" maskUnits="userSpaceOnUse" x="-53" y="212" width="909" height="1286">
<path d="M830.706 1447.06C498.878 1468.15 148.42 1490.33 48.1057 1497.5C33.0795 1498.58 19.7217 1486.93 18.8092 1471.89L-52.8651 290.767C-53.7322 276.477 -42.8838 264.175 -28.5974 263.247L755.577 212.332C769.949 211.399 782.341 222.327 783.214 236.703L854.991 1419.53C855.859 1433.84 845.007 1446.15 830.706 1447.06Z" fill="url(#paint11_linear_31_966)"/>
</mask>
<g mask="url(#mask3_31_966)">
<path d="M75.893 995.388C67.1137 860.173 199.569 737.409 324.936 729.269C450.302 721.129 618.377 765.182 627.797 910.256C632.464 982.148 721.936 1064 665.052 1153.46C607.146 1244.54 434.878 1235.87 371.637 1239.97C246.27 1248.11 84.6722 1130.6 75.893 995.388Z" fill="#02D1FE"/>
<g filter="url(#filter8_f_31_966)">
<path d="M86.4513 991.921C75.8983 829.387 202.4 704.362 322.582 696.559C442.765 688.756 604.464 739.838 615.017 902.372C620.246 982.915 721.256 1074.56 667.621 1174.14C613.022 1275.51 437.505 1264.66 376.879 1268.6C256.697 1276.4 97.0043 1154.45 86.4513 991.921Z" fill="#02D1FE"/>
</g>
<g filter="url(#filter9_f_31_966)">
<path d="M124.484 970.55C144.044 767.764 305.566 590.356 461.056 580.26C616.547 570.164 791.254 661.101 803.91 856.028C810.182 952.623 987.712 1065.8 917.733 1185.59C846.496 1307.53 561.755 1314.39 483.317 1319.49C327.826 1329.58 101.826 1205.47 124.484 970.55Z" fill="#02D1FE"/>
</g>
<g filter="url(#filter10_f_31_966)">
<path d="M160.48 915.429C146.852 705.544 334.482 496.858 486.507 486.988C638.531 477.117 809.998 576.113 823.626 785.998C830.379 890.006 896.596 1012.52 828.915 1141.01C760.017 1271.8 448.778 1353.61 372.089 1358.59C220.065 1368.46 174.107 1125.31 160.48 915.429Z" fill="#02D1FE"/>
</g>
<g filter="url(#filter11_f_31_966)">
<path d="M214.885 814.81C200.803 597.914 393.582 397.885 549.073 387.79C704.563 377.694 880.016 480.111 894.098 697.007C901.077 804.49 701.139 978.633 632 1111.36C561.618 1246.47 347.628 1230.68 269.191 1235.77C113.7 1245.87 228.968 1031.71 214.885 814.81Z" fill="#02D1FE"/>
</g>
<g filter="url(#filter12_f_31_966)">
<path d="M200.751 979.553C188.429 789.768 382.723 613.08 538.214 602.985C693.705 592.889 868.237 681.139 880.56 870.924C886.666 964.971 935.441 1076.48 865.265 1193.24C793.828 1312.1 580.079 1300.01 501.641 1305.1C346.15 1315.2 213.073 1169.34 200.751 979.553Z" fill="#02D1FE"/>
</g>
</g>
</g>
<mask id="mask4_31_966" style="mask-type:alpha" maskUnits="userSpaceOnUse" x="-265" y="-11" width="1815" height="1569">
<path d="M1225.99 7.74762C1326.47 347.926 1507.41 959.325 1548.68 1094.67C1553.12 1109.23 1544.52 1125.07 1529.93 1129.41L92.69 1556.61C78.9257 1560.71 64.4511 1552.86 60.3598 1539.1L-263.192 450.589C-267.283 436.824 -259.442 422.35 -245.677 418.258L1193.71 -9.58855C1207.49 -13.6849 1221.92 -6.04066 1225.99 7.74762Z" fill="url(#paint12_linear_31_966)"/>
</mask>
<g mask="url(#mask4_31_966)">
<path d="M916.088 1255.29C750.343 1267.35 567.318 1214.06 531.84 1094.7C496.362 975.343 517.798 798.496 698.017 744.928C787.324 718.382 760.775 639.436 884.547 667.335C1010.54 695.736 1034.37 865.825 1052.27 926.035C1087.75 1045.39 1081.83 1243.23 916.088 1255.29Z" fill="#438EFF"/>
<path d="M894.538 1254.07C615.672 1245.01 571.976 1221.89 541.48 1119.3C510.985 1016.7 538.932 861.858 719.077 808.312C808.347 781.777 782.152 712.017 903.399 731.582C1026.82 751.498 1044.73 901.641 1060.12 953.395C1090.61 1055.99 1034.31 1265.39 894.538 1254.07Z" fill="#438EFF"/>
<g filter="url(#filter14_f_31_966)">
<path d="M912.186 1245.31C910.517 1245.81 908.692 1246.16 906.954 1246.31C586.87 1273.68 410.387 1139.12 372.893 1012.97C335.295 886.486 472.902 766.348 674.81 706.332C774.865 676.592 678.437 596.825 816.034 624.479C956.102 652.63 1009.08 853.098 1028.05 916.905C1065.49 1042.85 1111.12 1184.85 912.186 1245.31Z" fill="#438EFF"/>
</g>
<g filter="url(#filter15_f_31_966)">
<path d="M881.85 1238.03C598.582 1267.38 280.658 1169.18 236.655 1021.14C192.652 873.106 359.041 684.702 601.189 612.726C721.185 577.058 639.183 425.831 803.661 457.175C971.094 489.081 998.109 700.796 1020.31 775.474C1064.31 923.513 1165.12 1208.68 881.85 1238.03Z" fill="#438EFF"/>
</g>
<g filter="url(#filter16_f_31_966)">
<path d="M668.897 1222.24C235.637 1187.14 227.895 1177.5 184.873 1032.77C141.851 888.029 241.849 670.127 502.579 592.627C631.784 554.222 671.139 570.675 846.068 597.123C1024.14 624.047 1050.46 871.196 1072.16 944.21C1115.18 1088.95 920.152 1242.59 668.897 1222.24Z" fill="#438EFF"/>
</g>
<g filter="url(#filter17_f_31_966)">
<path d="M661.402 1175.47C391.961 1255.56 102.016 1129.43 58.0131 981.387C14.0099 833.349 107.225 631.464 376.665 551.375C510.186 511.687 734.806 438.897 915.352 465.465C1099.14 492.509 961.629 842.607 983.826 917.285C1027.83 1065.32 930.842 1095.38 661.402 1175.47Z" fill="#438EFF"/>
</g>
<g filter="url(#filter18_f_31_966)">
<path d="M871.055 1138.77C635.295 1208.84 374.344 1074.09 330.341 926.054C286.338 778.015 361.955 581.362 597.715 511.284C714.546 476.557 622.159 461.16 782.877 493.621C946.481 526.666 974.367 738.122 996.564 812.8C1040.57 960.838 1106.82 1068.69 871.055 1138.77Z" fill="#438EFF"/>
</g>
</g>
<g opacity="0.6" filter="url(#filter19_f_31_966)">
<path d="M592.149 585.868C596.633 575.206 607.421 568.099 618.879 569.682C812.593 596.448 1014.16 785.482 1006.21 883.622C998.022 984.706 1126.58 1226.32 655.608 987.823C652.584 986.292 649.126 985.252 645.743 985.034C447.665 972.27 201.103 1143.3 283.504 827.483C283.892 825.995 284.18 824.25 284.357 822.722C295.289 727.922 483.393 844.445 592.149 585.868Z" fill="url(#paint13_linear_31_966)"/>
</g>
<g filter="url(#filter20_f_31_966)">
<ellipse cx="226.474" cy="344.341" rx="226.474" ry="344.341" transform="matrix(0.998071 -0.0620851 -0.0620851 -0.998071 924.545 298.771)" fill="#0285FE"/>
</g>
<mask id="mask5_31_966" style="mask-type:alpha" maskUnits="userSpaceOnUse" x="895" y="-589" width="676" height="1196">
<path d="M927.768 -587.815L1514.31 -439.635C1525.26 -436.868 1533.17 -427.349 1533.89 -416.077L1570.74 163.28C1570.85 165.007 1570.78 166.74 1570.55 168.454L1544.57 358.425C1543.61 365.415 1539.86 371.716 1534.16 375.883L1225.31 601.939C1218.64 606.82 1210.05 608.24 1202.16 605.764L955.582 528.331C945.311 525.106 938.09 515.885 937.422 505.14L899.963 -97.0369L895.401 -562.352C895.234 -579.398 911.241 -591.99 927.768 -587.815Z" fill="url(#paint14_linear_31_966)"/>
</mask>
<g mask="url(#mask5_31_966)">
</g>
<mask id="mask6_31_966" style="mask-type:alpha" maskUnits="userSpaceOnUse" x="862" y="-532" width="744" height="1115">
<path d="M968.434 581.578C1209.66 566.18 1490.41 548.258 1579.07 543.271C1594.2 542.419 1606.14 529.004 1605.2 513.879L1541.68 -507.352C1540.79 -521.684 1528.45 -532.579 1514.11 -531.688L887.062 -492.682C872.731 -491.791 861.835 -479.45 862.727 -465.118L926.38 558.167C927.273 572.515 939.628 583.417 953.975 582.501L968.434 581.578Z" fill="url(#paint15_linear_31_966)"/>
</mask>
<g mask="url(#mask6_31_966)">
<path d="M1486.03 95.8237C1478.49 -25.4478 1367.58 -120.905 1273.84 -115.074C1180.1 -109.242 1060.13 -52.4988 1068.22 77.6151C1072.23 142.093 1014.44 224.279 1065.89 297.98C1118.26 373.005 1245.01 347.32 1292.3 344.379C1386.04 338.547 1493.58 217.095 1486.03 95.8237Z" fill="#0285FE"/>
<g filter="url(#filter21_f_31_966)">
<path d="M1478.1 97.7771C1470.01 -32.2837 1374.34 -119.774 1293.76 -114.762C1213.18 -109.749 1110.49 -54.1003 1118.58 75.9605C1122.58 140.412 1071.49 222.149 1116.38 296.227C1162.08 371.635 1270.88 347.074 1311.52 344.546C1392.1 339.534 1486.19 227.838 1478.1 97.7771Z" fill="#0285FE"/>
</g>
<g filter="url(#filter22_f_31_966)">
<path d="M1477.85 93.8365C1468.78 -51.9364 1351.48 -149.369 1252.14 -143.19C1152.79 -137.01 1025.84 -73.9012 1034.91 71.8717C1039.41 144.109 966.615 236.686 1021.42 319.433C1077.22 403.667 1219.88 374.85 1269.99 371.733C1369.34 365.553 1486.92 239.609 1477.85 93.8365Z" fill="#0285FE"/>
</g>
<g filter="url(#filter23_f_31_966)">
<path d="M1465.04 77.7447C1429.47 -100.716 1291.35 -241.781 1175.08 -234.548C1058.81 -227.316 938.802 -128.149 949.677 46.6764C955.067 133.311 835.274 252.564 899.576 351.891C965.033 453.003 1122.13 419.314 1180.78 415.665C1297.05 408.433 1506.24 284.482 1465.04 77.7447Z" fill="#0285FE"/>
</g>
<g filter="url(#filter24_f_31_966)">
<path d="M1414.21 20.0338C1402.5 -168.208 1242.62 -320.945 1128.94 -313.873C1015.27 -306.802 898.492 -200.8 910.202 -12.5582C916.005 80.7246 879.667 196.686 943.169 303.992C1007.81 413.227 1161.26 377.929 1218.6 374.362C1332.28 367.29 1425.92 208.275 1414.21 20.0338Z" fill="#0285FE"/>
</g>
<g filter="url(#filter25_f_31_966)">
<path d="M1364.28 -50.4086C1352.18 -244.939 1188.54 -402.877 1072.27 -395.644C956.005 -388.412 836.634 -278.949 848.735 -84.4193C854.731 11.9798 817.64 131.787 882.664 242.715C948.856 355.637 1105.78 319.262 1164.44 315.614C1280.7 308.381 1376.38 144.122 1364.28 -50.4086Z" fill="#0285FE"/>
</g>
<g filter="url(#filter26_f_31_966)">
<path d="M1391.87 94.7546C1381.28 -75.4593 1218.95 -212.464 1102.68 -205.231C986.41 -197.999 866.249 -101.242 876.837 68.972C882.084 153.321 857.527 257.661 921.66 354.273C986.946 452.621 1144.08 419.56 1202.73 415.912C1319 408.679 1402.46 264.968 1391.87 94.7546Z" fill="#0285FE"/>
</g>
</g>
<g filter="url(#filter27_f_31_966)">
<path d="M1011.02 241.426C1046.98 253.304 1128.19 228.808 1214.07 196.284C1216.52 195.357 1219.08 194.798 1221.69 194.635L1332.95 187.714C1433.16 181.481 1396.08 23.7782 1329.78 -105.158C1263.47 -234.093 1266.49 -230.912 1169.31 -221.499C1072.12 -212.085 1116.8 -279.71 1069.7 -356.785C1022.6 -433.859 1108.5 -271.79 1039.17 -177.366C969.839 -82.9429 951.488 -141.419 1021.8 -8.52171C1092.11 124.376 1058.98 120.811 1023.66 127.219C988.34 133.627 985.829 93.3602 953.314 99.5936C920.799 105.827 936.878 122.512 958.115 176.773C979.352 231.034 974.551 229.378 1011.02 241.426Z" fill="#FF50ED"/>
</g>
<mask id="mask7_31_966" style="mask-type:alpha" maskUnits="userSpaceOnUse" x="593" y="-256" width="1026" height="712">
<path d="M1616.74 -123.459L1415.46 438.137C1411.49 449.22 1400.56 456.251 1388.83 455.275L919.351 416.225C917.304 416.054 915.284 415.642 913.334 414.996L763.155 365.27C756.263 362.988 750.639 357.928 747.643 351.314L595.388 15.1462C592.42 8.59318 592.3 1.1033 595.056 -5.54165L692.173 -239.69C696.505 -250.135 707.091 -256.582 718.359 -255.639L1215.56 -214.007L1596.06 -157.954C1612.3 -155.562 1622.28 -138.909 1616.74 -123.459Z" fill="url(#paint16_linear_31_966)"/>
</mask>
<g mask="url(#mask7_31_966)">
<mask id="mask8_31_966" style="mask-type:alpha" maskUnits="userSpaceOnUse" x="602" y="-247" width="970" height="694">
<path d="M649.993 -222.963C630.353 15.5084 609.845 265.215 602.518 347.672C601.185 362.678 612.609 376.412 627.626 377.606L1495.99 446.618C1510.26 447.753 1522.76 437.136 1523.96 422.869L1571.88 -149.508C1573.08 -163.86 1562.39 -176.455 1548.03 -177.596L677.964 -246.744C663.679 -247.879 651.169 -237.245 649.993 -222.963Z" fill="url(#paint17_linear_31_966)"/>
</mask>
<g mask="url(#mask8_31_966)">
<path d="M977.599 341.04C1078.55 349.493 1172.17 252.199 1180 158.602C1187.84 65.0046 1157.26 -61.2466 1048.95 -70.3155C995.276 -74.8096 935.346 -142.834 867.675 -101.564C798.788 -59.5522 802.86 69.3388 798.907 116.554C791.07 210.151 876.649 332.588 977.599 341.04Z" fill="#0285FE"/>
<g filter="url(#filter28_f_31_966)">
<path d="M977.061 332.922C1085.33 341.988 1169.6 267.422 1175.68 194.757C1181.77 122.091 1148.9 23.3097 1040.64 14.2445C986.985 9.75223 926.068 -46.1672 859.296 -15.3184C791.324 16.0846 797.78 116.427 794.711 153.084C788.627 225.749 868.795 323.857 977.061 332.922Z" fill="#0285FE"/>
</g>
<g filter="url(#filter29_f_31_966)">
<path d="M980.338 333.196C1101.68 343.357 1196.91 250.545 1204.42 160.818C1211.93 71.0913 1176.01 -50.4923 1054.66 -60.6527C994.532 -65.6876 927.437 -142.473 852.253 -103.773C775.719 -64.3779 781.373 66.9723 777.584 112.235C770.071 201.962 858.993 323.036 980.338 333.196Z" fill="#0285FE"/>
</g>
<g filter="url(#filter30_f_31_966)">
<path d="M996.844 305.066C1148.7 293.28 1283.57 175.023 1293.29 58.935C1303.01 -57.1526 1237.48 -189.017 1091.95 -201.202C1019.83 -207.24 937.716 -341.526 847.194 -290.891C755.046 -239.346 745.935 -26.599 741.031 31.9616C731.311 148.049 820.928 318.719 996.844 305.066Z" fill="#0285FE"/>
</g>
<g filter="url(#filter31_f_31_966)">
<path d="M1038.55 278.929C1195.25 292.05 1353.86 154.714 1363.37 41.2146C1372.87 -72.285 1301.27 -201.84 1144.57 -214.96C1066.92 -221.462 976.262 -272.672 879.273 -223.876C780.542 -174.204 715.041 57.3024 710.247 114.557C700.744 228.057 881.853 265.809 1038.55 278.929Z" fill="#0285FE"/>
</g>
<g filter="url(#filter32_f_31_966)">
<path d="M1114.52 239.668C1276.46 253.227 1428.67 111.922 1438.39 -4.16609C1448.11 -120.254 1374.01 -252.835 1212.07 -266.394C1131.83 -273.113 998.863 -126.095 898.684 -76.2685C796.706 -25.547 805.517 134.63 800.614 193.191C790.894 309.278 952.59 226.11 1114.52 239.668Z" fill="#0285FE"/>
</g>
<g filter="url(#filter33_f_31_966)">
<path d="M991.181 247.931C1132.87 259.795 1267.66 117.03 1277.38 0.942445C1287.1 -115.145 1223.57 -246.841 1081.88 -258.705C1011.67 -264.584 929.001 -302.602 840.739 -251.778C750.892 -200.041 756.944 -40.0948 752.041 18.4657C742.321 134.553 849.49 236.067 991.181 247.931Z" fill="#0285FE"/>
</g>
</g>
</g>
<mask id="mask9_31_966" style="mask-type:alpha" maskUnits="userSpaceOnUse" x="560" y="-761" width="1186" height="1363">
<path d="M1727.38 -506.588C1478.72 -585.126 1044.53 -722.502 932.637 -758.755C918.154 -763.448 902.019 -755.147 897.409 -740.638L562.132 314.661C557.784 328.346 565.353 342.965 579.038 347.313L1375.67 600.409C1389.35 604.757 1403.97 597.187 1408.32 583.502L1744.28 -473.938C1748.63 -487.64 1741.09 -502.258 1727.38 -506.588Z" fill="url(#paint18_linear_31_966)"/>
</mask>
<g mask="url(#mask9_31_966)">
<path d="M795.095 -290.623C783.764 -166.898 821.038 -29.3429 909.762 -1.15465C998.485 27.0336 1130.98 13.4821 1173.54 -120.482C1194.63 -186.867 1253.27 -165.919 1234.15 -258.828C1214.68 -353.405 1087.87 -373.594 1043.11 -387.814C954.39 -416.002 806.427 -414.348 795.095 -290.623Z" fill="#30DAFF"/>
<g filter="url(#filter34_f_31_966)">
<path d="M795.706 -274.497C798.581 -65.9194 815.248 -32.9343 891.512 -8.70453C967.776 15.5252 1083.91 -3.20056 1126.45 -137.11C1147.54 -203.468 1199.32 -182.912 1186.39 -273.818C1173.22 -366.356 1061.24 -381.842 1022.77 -394.065C946.508 -418.295 789.198 -379.132 795.706 -274.497Z" fill="#30DAFF"/>
</g>
<g filter="url(#filter35_f_31_966)">
<path d="M802.711 -288.21C802.169 -286.552 801.787 -284.739 801.607 -283.004C776.927 -44.5421 874.952 89.0377 968.63 118.8C1062.65 148.672 1154.38 47.4914 1202.06 -102.595C1225.69 -176.97 1283.97 -103.776 1265.22 -207.015C1246.14 -312.109 1097.03 -354.514 1049.6 -369.584C956.115 -399.285 850.784 -435.319 802.711 -288.21Z" fill="#30DAFF"/>
</g>
<g filter="url(#filter36_f_31_966)">
<path d="M807.515 -264.789C781.617 -53.4575 850.576 185.562 960.619 220.523C1070.66 255.485 1213.82 133.744 1271.01 -46.2549C1299.34 -135.453 1411.24 -72.043 1390.11 -195.428C1368.6 -321.029 1210.72 -344.183 1155.21 -361.819C1045.17 -396.781 833.413 -476.12 807.515 -264.789Z" fill="#30DAFF"/>
</g>
<g filter="url(#filter37_f_31_966)">
<path d="M816.346 -105.387C836.522 218.964 843.617 224.886 951.207 259.068C1058.8 293.25 1223.08 221.548 1284.65 27.7364C1315.16 -68.3065 1303.42 -97.9543 1286.09 -229.083C1268.46 -362.568 1084.08 -385.694 1029.81 -402.937C922.217 -437.12 804.645 -293.484 816.346 -105.387Z" fill="#30DAFF"/>
</g>
<g filter="url(#filter38_f_31_966)">
<path d="M851.198 -99.1305C787.565 101.156 877.797 319.652 987.84 354.613C1097.88 389.575 1250.09 322.719 1313.73 122.433C1345.26 23.1816 1402.81 -143.703 1385.47 -279.032C1367.83 -416.793 1104.21 -318.896 1048.7 -336.533C938.655 -371.494 914.831 -299.417 851.198 -99.1305Z" fill="#30DAFF"/>
</g>
<g filter="url(#filter39_f_31_966)">
<path d="M881.565 -255.332C825.886 -80.0819 922.965 116.861 1033.01 151.823C1143.05 186.785 1291.11 133.01 1346.78 -42.2402C1374.38 -129.085 1384.59 -59.8114 1362.58 -180.401C1340.16 -303.156 1182.49 -326.957 1126.98 -344.593C1016.94 -379.555 937.243 -430.583 881.565 -255.332Z" fill="#30DAFF"/>
</g>
</g>
<g opacity="0.6" filter="url(#filter40_f_31_966)">
<path d="M1286.47 -37.3243C1297.16 -41.7384 1304.35 -52.302 1302.78 -63.7606C1283.01 -207.471 1146.8 -357.323 1074.15 -352.804C998.559 -348.102 820.073 -447.345 990.774 -93.394C992.247 -90.3407 993.223 -86.8699 993.359 -83.4826C999.312 64.3968 869.692 244.912 1105.42 188.343C1106.91 187.984 1108.64 187.735 1110.17 187.569C1179.58 180.043 1097.95 40.5116 1286.47 -37.3243Z" fill="#02FFF0"/>
</g>
</g>
<defs>
<filter id="filter0_f_31_966" x="51.3063" y="394.815" width="1126.64" height="815.662" filterUnits="userSpaceOnUse" color-interpolation-filters="sRGB">
<feFlood flood-opacity="0" result="BackgroundImageFix"/>
<feBlend mode="normal" in="SourceGraphic" in2="BackgroundImageFix" result="shape"/>
<feGaussianBlur stdDeviation="51.7919" result="effect1_foregroundBlur_31_966"/>
</filter>
<filter id="filter1_f_31_966" x="65.6823" y="326.892" width="632.288" height="514.8" filterUnits="userSpaceOnUse" color-interpolation-filters="sRGB">
<feFlood flood-opacity="0" result="BackgroundImageFix"/>
<feBlend mode="normal" in="SourceGraphic" in2="BackgroundImageFix" result="shape"/>
<feGaussianBlur stdDeviation="2.07168" result="effect1_foregroundBlur_31_966"/>
</filter>
<filter id="filter2_f_31_966" x="15.3728" y="316.948" width="730.098" height="664.117" filterUnits="userSpaceOnUse" color-interpolation-filters="sRGB">
<feFlood flood-opacity="0" result="BackgroundImageFix"/>
<feBlend mode="normal" in="SourceGraphic" in2="BackgroundImageFix" result="shape"/>
<feGaussianBlur stdDeviation="7.25087" result="effect1_foregroundBlur_31_966"/>
</filter>
<filter id="filter3_f_31_966" x="-53.4951" y="320.941" width="925.405" height="826.345" filterUnits="userSpaceOnUse" color-interpolation-filters="sRGB">
<feFlood flood-opacity="0" result="BackgroundImageFix"/>
<feBlend mode="normal" in="SourceGraphic" in2="BackgroundImageFix" result="shape"/>
<feGaussianBlur stdDeviation="10.3584" result="effect1_foregroundBlur_31_966"/>
</filter>
<filter id="filter4_f_31_966" x="-32.3415" y="361.345" width="1044.33" height="792.069" filterUnits="userSpaceOnUse" color-interpolation-filters="sRGB">
<feFlood flood-opacity="0" result="BackgroundImageFix"/>
<feBlend mode="normal" in="SourceGraphic" in2="BackgroundImageFix" result="shape"/>
<feGaussianBlur stdDeviation="27.9676" result="effect1_foregroundBlur_31_966"/>
</filter>
<filter id="filter5_f_31_966" x="-38.3272" y="346.917" width="1241.13" height="973.267" filterUnits="userSpaceOnUse" color-interpolation-filters="sRGB">
<feFlood flood-opacity="0" result="BackgroundImageFix"/>
<feBlend mode="normal" in="SourceGraphic" in2="BackgroundImageFix" result="shape"/>
<feGaussianBlur stdDeviation="69.4012" result="effect1_foregroundBlur_31_966"/>
</filter>
<filter id="filter6_f_31_966" x="-96.7547" y="381.264" width="971.171" height="821.367" filterUnits="userSpaceOnUse" color-interpolation-filters="sRGB">
<feFlood flood-opacity="0" result="BackgroundImageFix"/>
<feBlend mode="normal" in="SourceGraphic" in2="BackgroundImageFix" result="shape"/>
<feGaussianBlur stdDeviation="32.111" result="effect1_foregroundBlur_31_966"/>
</filter>
<filter id="filter7_f_31_966" x="135.981" y="372.982" width="972.493" height="755.707" filterUnits="userSpaceOnUse" color-interpolation-filters="sRGB">
<feFlood flood-opacity="0" result="BackgroundImageFix"/>
<feBlend mode="normal" in="SourceGraphic" in2="BackgroundImageFix" result="shape"/>
<feGaussianBlur stdDeviation="35.2185" result="effect1_foregroundBlur_31_966"/>
</filter>
<filter id="filter8_f_31_966" x="71.3318" y="681.296" width="626.441" height="602.157" filterUnits="userSpaceOnUse" color-interpolation-filters="sRGB">
<feFlood flood-opacity="0" result="BackgroundImageFix"/>
<feBlend mode="normal" in="SourceGraphic" in2="BackgroundImageFix" result="shape"/>
<feGaussianBlur stdDeviation="7.25087" result="effect1_foregroundBlur_31_966"/>
</filter>
<filter id="filter9_f_31_966" x="102.188" y="558.787" width="852.568" height="781.988" filterUnits="userSpaceOnUse" color-interpolation-filters="sRGB">
<feFlood flood-opacity="0" result="BackgroundImageFix"/>
<feBlend mode="normal" in="SourceGraphic" in2="BackgroundImageFix" result="shape"/>
<feGaussianBlur stdDeviation="10.3584" result="effect1_foregroundBlur_31_966"/>
</filter>
<filter id="filter10_f_31_966" x="103.843" y="430.381" width="811.217" height="984.435" filterUnits="userSpaceOnUse" color-interpolation-filters="sRGB">
<feFlood flood-opacity="0" result="BackgroundImageFix"/>
<feBlend mode="normal" in="SourceGraphic" in2="BackgroundImageFix" result="shape"/>
<feGaussianBlur stdDeviation="27.9676" result="effect1_foregroundBlur_31_966"/>
</filter>
<filter id="filter11_f_31_966" x="48.0985" y="248.308" width="984.98" height="1126.61" filterUnits="userSpaceOnUse" color-interpolation-filters="sRGB">
<feFlood flood-opacity="0" result="BackgroundImageFix"/>
<feBlend mode="normal" in="SourceGraphic" in2="BackgroundImageFix" result="shape"/>
<feGaussianBlur stdDeviation="69.4012" result="effect1_foregroundBlur_31_966"/>
</filter>
<filter id="filter12_f_31_966" x="135.971" y="537.986" width="830.985" height="831.831" filterUnits="userSpaceOnUse" color-interpolation-filters="sRGB">
<feFlood flood-opacity="0" result="BackgroundImageFix"/>
<feBlend mode="normal" in="SourceGraphic" in2="BackgroundImageFix" result="shape"/>
<feGaussianBlur stdDeviation="32.111" result="effect1_foregroundBlur_31_966"/>
</filter>
<filter id="filter14_f_31_966" x="352.196" y="604.243" width="723.137" height="660.151" filterUnits="userSpaceOnUse" color-interpolation-filters="sRGB">
<feFlood flood-opacity="0" result="BackgroundImageFix"/>
<feBlend mode="normal" in="SourceGraphic" in2="BackgroundImageFix" result="shape"/>
<feGaussianBlur stdDeviation="7.25087" result="effect1_foregroundBlur_31_966"/>
</filter>
<filter id="filter15_f_31_966" x="208.874" y="432.21" width="886.065" height="831.729" filterUnits="userSpaceOnUse" color-interpolation-filters="sRGB">
<feFlood flood-opacity="0" result="BackgroundImageFix"/>
<feBlend mode="normal" in="SourceGraphic" in2="BackgroundImageFix" result="shape"/>
<feGaussianBlur stdDeviation="10.3584" result="effect1_foregroundBlur_31_966"/>
</filter>
<filter id="filter16_f_31_966" x="119.291" y="514.007" width="1014.78" height="765.987" filterUnits="userSpaceOnUse" color-interpolation-filters="sRGB">
<feFlood flood-opacity="0" result="BackgroundImageFix"/>
<feBlend mode="normal" in="SourceGraphic" in2="BackgroundImageFix" result="shape"/>
<feGaussianBlur stdDeviation="27.9676" result="effect1_foregroundBlur_31_966"/>
</filter>
<filter id="filter17_f_31_966" x="-91.2169" y="320.966" width="1242.56" height="1018.2" filterUnits="userSpaceOnUse" color-interpolation-filters="sRGB">
<feFlood flood-opacity="0" result="BackgroundImageFix"/>
<feBlend mode="normal" in="SourceGraphic" in2="BackgroundImageFix" result="shape"/>
<feGaussianBlur stdDeviation="69.4012" result="effect1_foregroundBlur_31_966"/>
</filter>
<filter id="filter18_f_31_966" x="254.22" y="411.559" width="849.953" height="810.508" filterUnits="userSpaceOnUse" color-interpolation-filters="sRGB">
<feFlood flood-opacity="0" result="BackgroundImageFix"/>
<feBlend mode="normal" in="SourceGraphic" in2="BackgroundImageFix" result="shape"/>
<feGaussianBlur stdDeviation="32.111" result="effect1_foregroundBlur_31_966"/>
</filter>
<filter id="filter19_f_31_966" x="180.178" y="482.451" width="923.176" height="694.257" filterUnits="userSpaceOnUse" color-interpolation-filters="sRGB">
<feFlood flood-opacity="0" result="BackgroundImageFix"/>
<feBlend mode="normal" in="SourceGraphic" in2="BackgroundImageFix" result="shape"/>
<feGaussianBlur stdDeviation="43.5052" result="effect1_foregroundBlur_31_966"/>
</filter>
<filter id="filter20_f_31_966" x="780.333" y="-524.746" width="697.741" height="931.558" filterUnits="userSpaceOnUse" color-interpolation-filters="sRGB">
<feFlood flood-opacity="0" result="BackgroundImageFix"/>
<feBlend mode="normal" in="SourceGraphic" in2="BackgroundImageFix" result="shape"/>
<feGaussianBlur stdDeviation="60.9047" result="effect1_foregroundBlur_31_966"/>
</filter>
<filter id="filter21_f_31_966" x="1092.93" y="-119.839" width="390.524" height="475.07" filterUnits="userSpaceOnUse" color-interpolation-filters="sRGB">
<feFlood flood-opacity="0" result="BackgroundImageFix"/>
<feBlend mode="normal" in="SourceGraphic" in2="BackgroundImageFix" result="shape"/>
<feGaussianBlur stdDeviation="2.43619" result="effect1_foregroundBlur_31_966"/>
</filter>
<filter id="filter22_f_31_966" x="983.842" y="-160.521" width="511.555" height="556.556" filterUnits="userSpaceOnUse" color-interpolation-filters="sRGB">
<feFlood flood-opacity="0" result="BackgroundImageFix"/>
<feBlend mode="normal" in="SourceGraphic" in2="BackgroundImageFix" result="shape"/>
<feGaussianBlur stdDeviation="8.52665" result="effect1_foregroundBlur_31_966"/>
</filter>
<filter id="filter23_f_31_966" x="856.193" y="-259.177" width="638.501" height="707.486" filterUnits="userSpaceOnUse" color-interpolation-filters="sRGB">
<feFlood flood-opacity="0" result="BackgroundImageFix"/>
<feBlend mode="normal" in="SourceGraphic" in2="BackgroundImageFix" result="shape"/>
<feGaussianBlur stdDeviation="12.1809" result="effect1_foregroundBlur_31_966"/>
</filter>
<filter id="filter24_f_31_966" x="839.253" y="-379.886" width="641.726" height="828.266" filterUnits="userSpaceOnUse" color-interpolation-filters="sRGB">
<feFlood flood-opacity="0" result="BackgroundImageFix"/>
<feBlend mode="normal" in="SourceGraphic" in2="BackgroundImageFix" result="shape"/>
<feGaussianBlur stdDeviation="32.8885" result="effect1_foregroundBlur_31_966"/>
</filter>
<filter id="filter25_f_31_966" x="680.324" y="-559.108" width="848.214" height="1046.39" filterUnits="userSpaceOnUse" color-interpolation-filters="sRGB">
<feFlood flood-opacity="0" result="BackgroundImageFix"/>
<feBlend mode="normal" in="SourceGraphic" in2="BackgroundImageFix" result="shape"/>
<feGaussianBlur stdDeviation="81.6123" result="effect1_foregroundBlur_31_966"/>
</filter>
<filter id="filter26_f_31_966" x="800.663" y="-281.027" width="667.633" height="780.708" filterUnits="userSpaceOnUse" color-interpolation-filters="sRGB">
<feFlood flood-opacity="0" result="BackgroundImageFix"/>
<feBlend mode="normal" in="SourceGraphic" in2="BackgroundImageFix" result="shape"/>
<feGaussianBlur stdDeviation="37.7609" result="effect1_foregroundBlur_31_966"/>
</filter>
<filter id="filter27_f_31_966" x="852.003" y="-459.783" width="625.523" height="787.085" filterUnits="userSpaceOnUse" color-interpolation-filters="sRGB">
<feFlood flood-opacity="0" result="BackgroundImageFix"/>
<feBlend mode="normal" in="SourceGraphic" in2="BackgroundImageFix" result="shape"/>
<feGaussianBlur stdDeviation="41.4152" result="effect1_foregroundBlur_31_966"/>
</filter>
<filter id="filter28_f_31_966" x="789.514" y="-29.4291" width="391.736" height="367.975" filterUnits="userSpaceOnUse" color-interpolation-filters="sRGB">
<feFlood flood-opacity="0" result="BackgroundImageFix"/>
<feBlend mode="normal" in="SourceGraphic" in2="BackgroundImageFix" result="shape"/>
<feGaussianBlur stdDeviation="2.43619" result="effect1_foregroundBlur_31_966"/>
</filter>
<filter id="filter29_f_31_966" x="760.087" y="-131.686" width="462.336" height="482.701" filterUnits="userSpaceOnUse" color-interpolation-filters="sRGB">
<feFlood flood-opacity="0" result="BackgroundImageFix"/>
<feBlend mode="normal" in="SourceGraphic" in2="BackgroundImageFix" result="shape"/>
<feGaussianBlur stdDeviation="8.52665" result="effect1_foregroundBlur_31_966"/>
</filter>
<filter id="filter30_f_31_966" x="715.955" y="-326.64" width="602.637" height="656.838" filterUnits="userSpaceOnUse" color-interpolation-filters="sRGB">
<feFlood flood-opacity="0" result="BackgroundImageFix"/>
<feBlend mode="normal" in="SourceGraphic" in2="BackgroundImageFix" result="shape"/>
<feGaussianBlur stdDeviation="12.1809" result="effect1_foregroundBlur_31_966"/>
</filter>
<filter id="filter31_f_31_966" x="644.112" y="-310.52" width="785.866" height="656.099" filterUnits="userSpaceOnUse" color-interpolation-filters="sRGB">
<feFlood flood-opacity="0" result="BackgroundImageFix"/>
<feBlend mode="normal" in="SourceGraphic" in2="BackgroundImageFix" result="shape"/>
<feGaussianBlur stdDeviation="32.8885" result="effect1_foregroundBlur_31_966"/>
</filter>
<filter id="filter32_f_31_966" x="636.972" y="-429.841" width="965.488" height="849.018" filterUnits="userSpaceOnUse" color-interpolation-filters="sRGB">
<feFlood flood-opacity="0" result="BackgroundImageFix"/>
<feBlend mode="normal" in="SourceGraphic" in2="BackgroundImageFix" result="shape"/>
<feGaussianBlur stdDeviation="81.6123" result="effect1_foregroundBlur_31_966"/>
</filter>
<filter id="filter33_f_31_966" x="675.907" y="-353.402" width="677.962" height="677.548" filterUnits="userSpaceOnUse" color-interpolation-filters="sRGB">
<feFlood flood-opacity="0" result="BackgroundImageFix"/>
<feBlend mode="normal" in="SourceGraphic" in2="BackgroundImageFix" result="shape"/>
<feGaussianBlur stdDeviation="37.7609" result="effect1_foregroundBlur_31_966"/>
</filter>
<filter id="filter34_f_31_966" x="790.638" y="-405.869" width="402.665" height="411.065" filterUnits="userSpaceOnUse" color-interpolation-filters="sRGB">
<feFlood flood-opacity="0" result="BackgroundImageFix"/>
<feBlend mode="normal" in="SourceGraphic" in2="BackgroundImageFix" result="shape"/>
<feGaussianBlur stdDeviation="2.43619" result="effect1_foregroundBlur_31_966"/>
</filter>
<filter id="filter35_f_31_966" x="780.69" y="-413.4" width="505.243" height="554.489" filterUnits="userSpaceOnUse" color-interpolation-filters="sRGB">
<feFlood flood-opacity="0" result="BackgroundImageFix"/>
<feBlend mode="normal" in="SourceGraphic" in2="BackgroundImageFix" result="shape"/>
<feGaussianBlur stdDeviation="8.52665" result="effect1_foregroundBlur_31_966"/>
</filter>
<filter id="filter36_f_31_966" x="777.705" y="-430.147" width="639.405" height="681.027" filterUnits="userSpaceOnUse" color-interpolation-filters="sRGB">
<feFlood flood-opacity="0" result="BackgroundImageFix"/>
<feBlend mode="normal" in="SourceGraphic" in2="BackgroundImageFix" result="shape"/>
<feGaussianBlur stdDeviation="12.1809" result="effect1_foregroundBlur_31_966"/>
</filter>
<filter id="filter37_f_31_966" x="749.761" y="-473.768" width="619.53" height="806.822" filterUnits="userSpaceOnUse" color-interpolation-filters="sRGB">
<feFlood flood-opacity="0" result="BackgroundImageFix"/>
<feBlend mode="normal" in="SourceGraphic" in2="BackgroundImageFix" result="shape"/>
<feGaussianBlur stdDeviation="32.8885" result="effect1_foregroundBlur_31_966"/>
</filter>
<filter id="filter38_f_31_966" x="666.854" y="-517.171" width="885.033" height="1043.86" filterUnits="userSpaceOnUse" color-interpolation-filters="sRGB">
<feFlood flood-opacity="0" result="BackgroundImageFix"/>
<feBlend mode="normal" in="SourceGraphic" in2="BackgroundImageFix" result="shape"/>
<feGaussianBlur stdDeviation="81.6123" result="effect1_foregroundBlur_31_966"/>
</filter>
<filter id="filter39_f_31_966" x="789.848" y="-454.991" width="660.204" height="692.429" filterUnits="userSpaceOnUse" color-interpolation-filters="sRGB">
<feFlood flood-opacity="0" result="BackgroundImageFix"/>
<feBlend mode="normal" in="SourceGraphic" in2="BackgroundImageFix" result="shape"/>
<feGaussianBlur stdDeviation="37.7609" result="effect1_foregroundBlur_31_966"/>
</filter>
<filter id="filter40_f_31_966" x="816.885" y="-464.5" width="588.428" height="765.798" filterUnits="userSpaceOnUse" color-interpolation-filters="sRGB">
<feFlood flood-opacity="0" result="BackgroundImageFix"/>
<feBlend mode="normal" in="SourceGraphic" in2="BackgroundImageFix" result="shape"/>
<feGaussianBlur stdDeviation="51.1599" result="effect1_foregroundBlur_31_966"/>
</filter>
<linearGradient id="paint0_linear_31_966" x1="614.628" y1="342.067" x2="614.628" y2="1263.22" gradientUnits="userSpaceOnUse">
<stop stop-color="#0239FE"/>
<stop offset="1" stop-color="#0285FE"/>
</linearGradient>
<linearGradient id="paint1_linear_31_966" x1="386.264" y1="650.779" x2="10.0117" y2="911.485" gradientUnits="userSpaceOnUse">
<stop stop-color="#C4C4C4"/>
<stop offset="1" stop-color="#C4C4C4" stop-opacity="0"/>
</linearGradient>
<linearGradient id="paint2_linear_31_966" x1="411.855" y1="341.028" x2="380.28" y2="985.062" gradientUnits="userSpaceOnUse">
<stop stop-color="#C4C4C4"/>
<stop offset="1" stop-color="#C4C4C4" stop-opacity="0"/>
</linearGradient>
<linearGradient id="paint3_linear_31_966" x1="75.2797" y1="595.336" x2="690.482" y2="645.167" gradientUnits="userSpaceOnUse">
<stop stop-color="#0239FE"/>
<stop offset="1" stop-color="#0285FE"/>
</linearGradient>
<linearGradient id="paint4_linear_31_966" x1="75.9112" y1="565.015" x2="690.863" y2="614.826" gradientUnits="userSpaceOnUse">
<stop stop-color="#0239FE"/>
<stop offset="1" stop-color="#0285FE"/>
</linearGradient>
<linearGradient id="paint5_linear_31_966" x1="37.5949" y1="627.753" x2="726.836" y2="683.582" gradientUnits="userSpaceOnUse">
<stop stop-color="#0239FE"/>
<stop offset="1" stop-color="#0285FE"/>
</linearGradient>
<linearGradient id="paint6_linear_31_966" x1="-21.1033" y1="711.329" x2="847.67" y2="781.7" gradientUnits="userSpaceOnUse">
<stop stop-color="#0239FE"/>
<stop offset="1" stop-color="#0285FE"/>
</linearGradient>
<linearGradient id="paint7_linear_31_966" x1="29.5596" y1="726.957" x2="956.114" y2="802.009" gradientUnits="userSpaceOnUse">
<stop stop-color="#0239FE"/>
<stop offset="1" stop-color="#0285FE"/>
</linearGradient>
<linearGradient id="paint8_linear_31_966" x1="106.557" y1="802.112" x2="1064.07" y2="879.67" gradientUnits="userSpaceOnUse">
<stop stop-color="#0239FE"/>
<stop offset="1" stop-color="#0285FE"/>
</linearGradient>
<linearGradient id="paint9_linear_31_966" x1="-27.2064" y1="761.039" x2="810.613" y2="828.903" gradientUnits="userSpaceOnUse">
<stop stop-color="#0239FE"/>
<stop offset="1" stop-color="#0285FE"/>
</linearGradient>
<linearGradient id="paint10_linear_31_966" x1="263.002" y1="763.995" x2="328.176" y2="1204.75" gradientUnits="userSpaceOnUse">
<stop stop-color="#C4C4C4"/>
<stop offset="0.943414" stop-color="#C4C4C4" stop-opacity="0"/>
</linearGradient>
<linearGradient id="paint11_linear_31_966" x1="222.279" y1="987.782" x2="738.427" y2="1008.3" gradientUnits="userSpaceOnUse">
<stop stop-color="#C4C4C4"/>
<stop offset="1" stop-color="#C4C4C4" stop-opacity="0"/>
</linearGradient>
<linearGradient id="paint12_linear_31_966" x1="914.021" y1="1237.96" x2="302.73" y2="583.462" gradientUnits="userSpaceOnUse">
<stop stop-color="#C4C4C4"/>
<stop offset="1" stop-color="#C4C4C4" stop-opacity="0"/>
</linearGradient>
<linearGradient id="paint13_linear_31_966" x1="284.12" y1="825.145" x2="1006.21" y2="883.635" gradientUnits="userSpaceOnUse">
<stop offset="0.213542" stop-color="#0073FB"/>
<stop offset="0.567708" stop-color="#65FFED"/>
<stop offset="0.9375" stop-color="#DE58FF"/>
</linearGradient>
<linearGradient id="paint14_linear_31_966" x1="1239.53" y1="113.858" x2="1039.39" y2="391.461" gradientUnits="userSpaceOnUse">
<stop stop-color="#C4C4C4"/>
<stop offset="1" stop-color="#C4C4C4" stop-opacity="0"/>
</linearGradient>
<linearGradient id="paint15_linear_31_966" x1="1471.43" y1="99.0594" x2="989.572" y2="113.659" gradientUnits="userSpaceOnUse">
<stop stop-color="#C4C4C4"/>
<stop offset="1" stop-color="#C4C4C4" stop-opacity="0"/>
</linearGradient>
<linearGradient id="paint16_linear_31_966" x1="1153.18" y1="204.411" x2="824.626" y2="149.533" gradientUnits="userSpaceOnUse">
<stop stop-color="#C4C4C4"/>
<stop offset="0.943414" stop-color="#C4C4C4" stop-opacity="0"/>
</linearGradient>
<linearGradient id="paint17_linear_31_966" x1="985.331" y1="231.723" x2="977.206" y2="-154.382" gradientUnits="userSpaceOnUse">
<stop stop-color="#C4C4C4"/>
<stop offset="1" stop-color="#C4C4C4" stop-opacity="0"/>
</linearGradient>
<linearGradient id="paint18_linear_31_966" x1="809.82" y1="-288.573" x2="1290.51" y2="177.514" gradientUnits="userSpaceOnUse">
<stop stop-color="#C4C4C4"/>
<stop offset="1" stop-color="#C4C4C4" stop-opacity="0"/>
</linearGradient>
<clipPath id="clip0_31_966">
<rect width="1376" height="708" fill="white"/>
</clipPath>
</defs>
</svg>
