<svg xmlns="http://www.w3.org/2000/svg" fill="none" viewBox="0 0 156 34" class="nuxt-icon app-header__logo-svg" data-v-43a5b862=""><path fill="white" d="M9.893 32.308c-3.08 0-6.059-1.061-8.66-3.457l2.396-2.979c1.78 1.61 3.765 2.842 6.298 2.842 2.294 0 3.766-1.267 3.766-3.047v-.034c0-1.506-.787-2.5-4.587-3.903-4.553-1.711-6.915-3.389-6.915-7.223v-.068c0-3.937 3.15-6.71 7.6-6.71 2.772 0 5.34.89 7.53 2.807l-2.259 3.047c-1.643-1.335-3.457-2.26-5.374-2.26-2.157 0-3.492 1.199-3.492 2.773v.035c0 1.677.89 2.567 4.964 4.142 4.45 1.711 6.504 3.56 6.504 7.052v.068c0 4.21-3.286 6.915-7.77 6.915M20.74 32V8.037h3.97V32zm12.95 0V11.734h-6.3V8.037h16.57v3.697h-6.3V32zm12.797 0V8.037h15.097v3.595h-11.16v6.504h9.893v3.594h-9.893v6.676h11.33V32zm17.71 0v-4.553h4.382V32zm7.841 0V8.037h8.559c2.601 0 4.792.72 6.127 2.054 1.061 1.061 1.61 2.396 1.61 4.04v.102c0 2.944-1.712 4.485-3.527 5.375 2.636.924 4.553 2.499 4.553 5.717v.137c0 4.21-3.423 6.538-8.524 6.538zm12.324-17.15v-.069c0-2.02-1.472-3.184-4.04-3.184H75.94v6.641h4.142c2.602 0 4.28-1.163 4.28-3.388m1.027 10.132c0-2.088-1.609-3.389-4.621-3.389H75.94v6.847h4.998c2.739 0 4.45-1.198 4.45-3.39zM97.188 32v-9.55l-8.08-14.413h4.554l5.545 10.373 5.58-10.373h4.416l-8.045 14.378V32z"></path><rect width="40" height="24" x="114" y="2" fill="white" rx="12"></rect><path fill="transparent" d="M119.554 18.5V8.7h4.242q1.317 0 2.268.434.953.42 1.47 1.218.519.798.518 1.904 0 1.092-.518 1.89-.517.798-1.47 1.232-.951.42-2.268.42h-2.982l1.008-1.022V18.5zm2.268-3.472-1.008-1.078h2.856q1.05 0 1.568-.448.519-.448.518-1.246 0-.812-.518-1.26t-1.568-.448h-2.856l1.008-1.078zm7.345 3.472V8.7h4.242q1.315 0 2.268.434.952.42 1.47 1.218t.518 1.904q0 1.092-.518 1.89-.518.784-1.47 1.204-.953.42-2.268.42h-2.982l1.008-.994V18.5zm6.23 0-2.45-3.556h2.422l2.478 3.556zm-3.962-3.472-1.008-1.064h2.856q1.05 0 1.568-.448.518-.462.518-1.26 0-.812-.518-1.26t-1.568-.448h-2.856l1.008-1.078zm12.282 3.64a6 6 0 0 1-2.156-.378 5.2 5.2 0 0 1-1.708-1.064 5 5 0 0 1-1.12-1.61 5.1 5.1 0 0 1-.392-2.016q0-1.092.392-2.016a4.9 4.9 0 0 1 1.134-1.61 5.2 5.2 0 0 1 1.708-1.064 5.9 5.9 0 0 1 2.128-.378q1.162 0 2.128.378a5 5 0 0 1 1.694 1.064 4.87 4.87 0 0 1 1.54 3.626 5.05 5.05 0 0 1-.406 2.03 4.9 4.9 0 0 1-1.134 1.61 5.1 5.1 0 0 1-1.694 1.05 5.8 5.8 0 0 1-2.114.378m-.014-1.932q.658 0 1.204-.224.56-.224.98-.644t.644-.994a3.3 3.3 0 0 0 .238-1.274 3.3 3.3 0 0 0-.238-1.274 2.85 2.85 0 0 0-.644-.994 2.7 2.7 0 0 0-.966-.644 3.3 3.3 0 0 0-1.218-.224q-.657 0-1.218.224-.546.225-.966.644t-.658.994a3.5 3.5 0 0 0-.224 1.274q0 .686.224 1.274.239.574.644.994.42.42.98.644.561.224 1.218.224"></path></svg>